Coelacanth.sfdir
StartChar: exclam
Encoding: 33 33 75
GlifName: exclam
Width: 266
VWidth: 1159
Flags: W
HStem: -21 140<100.678 143.536>
VStem: 53 141<25.3087 69.9365> 109 45<209 415.199>
LayerCount: 2
Fore
SplineSet
109 209 m 21xa0
 109 339 107 437 100 533 c 4
 96 580 72 604 74 654 c 5
 155 664 198 692 203 661 c 5
 187 625 189 602 183 533 c 4
 172 408 154 342 154 208 c 13
 109 209 l 21xa0
EndSplineSet
Refer: 48 46 N 1 0 0 1 23 0 2
Validated: 33
Substitution2: "pcap-1" exclam.pcap
Substitution2: "smcp-1" exclam.smcp
Position2: "cpsp-1" dx=0 dy=0 dh=50 dv=100
EndChar
StartChar: dollar
Encoding: 36 36 1373
GlifName: dollar
Width: 463
UnlinkRmOvrlpSave: 1
Flags: HW
HStem: -8 34<169.661 305.631> 391 26<201.367 298.023>
VStem: 100 64<290.012 362.48> 341 55<52.7366 132.167>
LayerCount: 2
Fore
SplineSet
385 374 m 1
 362.692382812 340.166992188 349.461914062 316 327 287 c 1
 308 298 l 1
 316 311 320 321.356445312 320 338 c 3
 320 369.60546875 290.0234375 391 258 391 c 3
 208.895507812 391 164 365.506835938 164 330 c 3
 164 284.208984375 223.037109375 269.921875 278 243 c 0
 348.162109375 208.6328125 396 175.487304688 396 111 c 3
 396 43.2158203125 318.341796875 -8 230 -8 c 3
 158.830078125 -8 95.2880859375 34.1015625 68 83 c 1
 85.9228515625 105.013671875 111.349609375 129.633789062 132 155 c 1
 154 141 l 1
 142.299804688 127.888671875 141 104.958984375 141 82 c 3
 141 51.73828125 186.509765625 26 236 26 c 3
 300.005859375 26 341 58.0322265625 341 91 c 3
 341 133.17578125 302.220703125 142.890625 246 173 c 0
 175.155273438 210.942382812 100 236.939453125 100 306 c 3
 100 370.165039062 174.412109375 417 258 417 c 3
 312.67578125 417 358.897460938 393.739257812 385 374 c 1
EndSplineSet
Refer: 1967 58113 N 0.0181668 0.693762 -0.968418 0.0253589 236.417 -147.881 2
Substitution2: "case-1" dollar.alt
Substitution2: "lnum-1" dollar.alt
EndChar
StartChar: ampersand
Encoding: 38 38 78
GlifName: ampersand
Width: 676
VWidth: 1159
Flags: W
HStem: -11 57<161.575 299.635 513.09 600.584> 461 35<584.895 645> 492 33<480.667 506.511>
VStem: 17 72<119.103 262.82> 81 38<475.664 567.366> 289 62<462.542 556.254>
LayerCount: 2
Fore
SplineSet
202 360 m 1x94
 131 330 89 273 89 216 c 3
 89 111 147 46 242 46 c 3
 312 46 353 107 386 146 c 1
 316 303 240 344 202 360 c 1x94
197 594 m 0
 166 594 119 568 119 525 c 3
 119 466 183 440 225 415 c 1
 268 442 289 467 289 492 c 3xac
 289 542 251 594 197 594 c 0
645 461 m 1xcc
 604 461 574 446 562 415 c 0
 526 330 495 261 448 181 c 1
 489 75 532 41 565 41 c 3
 602 41 627 90 641 121 c 1
 672 108 l 1
 640 39 616 -5 530 -5 c 3
 477 -5 433 45 406 108 c 1
 374 78 332 -11 199 -11 c 3
 80 -11 17 85 17 172 c 3xd4
 17 274 88 345 169 378 c 1
 121 404 81 448 81 506 c 3
 81 593 156 626 231 653 c 1
 316 623 351 575 351 498 c 3
 351 482 304 429 260 399 c 1
 317 376 392 298 428 216 c 1
 466 279 512 384 526 443 c 0
 532 469 492 485 472 492 c 1
 483 525 l 1xac
 525 509 598 495 648 496 c 1
 645 461 l 1xcc
EndSplineSet
Validated: 33
Substitution2: "pcap-1" ampersand.pcap
Substitution2: "smcp-1" ampersand.smcp
Position2: "cpsp-1" dx=0 dy=0 dh=50 dv=100
EndChar
StartChar: quotesingle
Encoding: 39 39 79
GlifName: quotesingle
Width: 200
VWidth: 1159
Flags: W
HStem: 445.7 254<79 119>
VStem: 51 96<522.722 699.7> 79 40<445.7 617.021>
LayerCount: 2
Fore
SplineSet
51 699.7 m 9xc0
 147 699.7 l 17xc0
 145.966 630.734 121.666 537.034 119 445.7 c 9
 79 445.7 l 17xa0
 76.2106 536.911 52.1894 630.89 51 699.7 c 9xc0
EndSplineSet
Validated: 1
Position2: "Extra space for context kern-1" dx=35 dy=0 dh=70 dv=0
Position2: "cpsp-1" dx=0 dy=0 dh=7 dv=14
EndChar
StartChar: parenleft
Encoding: 40 40 59
GlifName: parenleft
Width: 383
VWidth: 1515
Flags: W
VStem: 37 48<44.425 376.993>
LayerCount: 2
Fore
SplineSet
337 724 m 1
 358 689 l 1
 168.837837838 592.717321803 85 423.444444444 85 211 c 3
 85 -1.89263157895 171.845559846 -173.612631579 356 -266 c 1
 335 -301 l 1
 147 -203.619607843 37 -20.9058823529 37 211 c 3
 37 442.099029126 143.644518272 624.388349515 337 724 c 1
EndSplineSet
Validated: 1
Position2: "cpsp-1" dx=0 dy=0 dh=50 dv=100
Position2: "'case' vertical ajustments for all-caps-1" dx=0 dy=125 dh=0 dv=0
EndChar
StartChar: asterisk
Encoding: 42 42 87
GlifName: asterisk
Width: 362
VWidth: 1159
Flags: W
HStem: 402 21G<232.5 263.5>
VStem: 135 79<610.995 694.668>
LayerCount: 2
Fore
SplineSet
188 522 m 1
 162 468 169 444 137 387 c 1
 114 383 80 416 75 434 c 1
 112 487 132 487 169 533 c 1
 109 540 89 528 26 540 c 1
 14 563 38 605 50 614 c 1
 112 596 118 576 173 555 c 1
 162 614 142 628 135 692 c 1
 150 708 198 703 214 691 c 1
 215 627 200 616 196 557 c 1
 249 587 256 608 315 635 c 1
 331 628 347 587 338 561 c 1
 278 540 262 551 205 536 c 1
 249 494 272 493 316 446 c 1
 314 426 275 402 252 402 c 1
 213 454 220 473 188 522 c 1
EndSplineSet
Validated: 33
EndChar
StartChar: comma
Encoding: 44 44 46
GlifName: space
Width: 200
VWidth: 1159
Flags: W
HStem: -133 252
VStem: 27 144
LayerCount: 2
Fore
SplineSet
43 -133 m 1
 27 -108 l 1
 61 -87 104 -45 90 -14 c 0
 80 8 58 23 37 34 c 0
 32 36 30 43 30 49 c 3
 30 55 32 60 37 62 c 0
 58 73 74 89 85 110 c 0
 87 115 93 119 99 119 c 3
 105 119 111 115 113 110 c 0
 124 89 142 73 163 62 c 0
 168 60 171 55 171 49 c 3
 171 43 161 -68 43 -133 c 1
EndSplineSet
Validated: 33
Position2: "Extra space for context kern-1" dx=78 dy=0 dh=156 dv=0
Position2: "cpsp-1" dx=0 dy=0 dh=7 dv=14
EndChar
StartChar: period
Encoding: 46 46 48
GlifName: period
Width: 200
VWidth: 1159
Flags: W
HStem: -21 140<77.678 120.536>
VStem: 30 141<25.3087 69.9365>
LayerCount: 2
Fore
SplineSet
163 33 m 0
 142 22 124 8 113 -13 c 0
 111 -18 106 -21 100 -21 c 3
 94 -21 87 -18 85 -13 c 0
 74 8 58 22 37 33 c 0
 32 35 30 43 30 49 c 3
 30 55 32 60 37 62 c 0
 58 73 74 89 85 110 c 0
 87 115 94 119 100 119 c 3
 106 119 111 115 113 110 c 0
 124 89 142 73 163 62 c 0
 168 60 171 55 171 49 c 3
 171 43 168 35 163 33 c 0
EndSplineSet
Validated: 1
Position2: "Extra space for context kern-1" dx=78 dy=0 dh=156 dv=0
Position2: "cpsp-1" dx=0 dy=0 dh=7 dv=14
EndChar
StartChar: zero
Encoding: 48 48 63
GlifName: zero
Width: 502
VWidth: 1159
Flags: W
HStem: 1 33<203.15 319.348> 358 36<180.377 302.898>
VStem: 55 73<109.281 280.474> 368 79<105.768 284.433>
LayerCount: 2
Fore
SplineSet
234 358 m 7
 160 358 128 284 128 215 c 7
 128 118 169 34 269 34 c 7
 348 34 368 120 368 183 c 7
 368 280 334 358 234 358 c 7
254 394 m 7
 361 394 447 303 447 194 c 7
 447 88 366 1 255 1 c 7
 144 1 55 88 55 194 c 7
 55 301 146 394 254 394 c 7
EndSplineSet
Validated: 1
Substitution2: "'zero' Slashed Zero lookup 22-1" zero.alt
Substitution2: "dnom-1" zero.denom
Substitution2: "numr-1" zero.numerator
Substitution2: "lnum-1" zero.proportionallining
Substitution2: "tnum-1" zero.tabulartext
EndChar
StartChar: one
Encoding: 49 49 64
GlifName: one
Width: 371
VWidth: 1159
Flags: W
HStem: 0 26<77 128.33 240.02 295> 369 23<87 139.532> 379 23<250.588 289.609>
VStem: 158 61<44.4318 360.804>
LayerCount: 2
Fore
SplineSet
87 392 m 1xd0
 140.482421875 387.885742188 231.96484375 388.837890625 289 402 c 9
 291 379 l 1xb0
 231 367 232 358 226 327 c 0
 225 318 219 249 219 200 c 27
 219 145 224 68 226 58 c 0
 232 31 260 29 296 27 c 9
 295 0 l 1
 220.509765625 6.4775390625 151.725585938 7.2900390625 77 0 c 9
 75 26 l 1
 108 30 136 32 148 62 c 0
 152 71 158 94 158 200 c 3
 158 298 154 319 153 325 c 0
 147 357 151 365 86 369 c 9
 87 392 l 1xd0
EndSplineSet
Validated: 33
Substitution2: "dnom-1" one.denom
Substitution2: "numr-1" one.numerator
Substitution2: "tnum-1" one.tabulartext
Substitution2: "lnum-1" one.proportionallining
EndChar
StartChar: two
Encoding: 50 50 65
GlifName: two
Width: 445
Flags: HW
HStem: -11 21G<353 372.5> 2 64<121 368.376> 405 53<115.723 234.173>
VStem: 260 68<263.541 378.966>
LayerCount: 2
Fore
SplineSet
56 367 m 1x70
 82.6142578125 414.314453125 121.978515625 458 190 458 c 0
 266 458 328 405 328 335 c 3
 328 222 138 89 121 66 c 9x70
 338 69 l 2
 370 69 393 108 415 138 c 1
 435 121 l 1
 435 121 375 39 370 -11 c 1xb0
 336 5 261 2 187 2 c 0
 97 2 38 0 33 0 c 1
 27 18 l 1
 69 75 260 187 260 325 c 3
 260 382 213 405 169 405 c 0
 123 405 96 381 76 353 c 1
 56 367 l 1x70
EndSplineSet
Substitution2: "dnom-1" two.denom
Substitution2: "numr-1" two.numerator
Substitution2: "tnum-1" two.tabulartext
Substitution2: "lnum-1" two.proportionallining
EndChar
StartChar: three
Encoding: 51 51 66
GlifName: three
Width: 388
Flags: HW
HStem: -234 26<98.3077 116.651> 122 26<93 117.144> 402 52<130.681 219.829>
VStem: 236 67<266.659 384.313> 251 72<-77.1723 66.4688>
LayerCount: 2
Fore
SplineSet
91 -208 m 1xe8
 209 -155 251 -94 251 -7 c 3xe8
 251 68 194 116 147 137 c 1
 143 137 114 122 93 122 c 1
 84 148 l 1
 144 166 236 223 236 331 c 3
 236 389 191 402 174 402 c 3
 133 402 114 379 93 362 c 1
 79 380 l 1
 89 414 157 454 193 454 c 3
 252 454 303 409 303 344 c 3xf0
 303 248 206 176 202 172 c 1
 252 154 323 95 323 6 c 3
 323 -142 145 -227 101 -234 c 1
 91 -208 l 1xe8
EndSplineSet
Substitution2: "case-1" three.proportionallining
Substitution2: "lnum-1" three.proportionallining
Substitution2: "tnum-1" three.tabulartext
Substitution2: "numr-1" three.numerator
Substitution2: "dnom-1" three.denom
EndChar
StartChar: four
Encoding: 52 52 67
GlifName: four
Width: 463
Flags: HW
HStem: -7 21G<403.519 423.775> 0 45.5<56.3721 256 317 407.937> 402.3 20G<309.934 344>
VStem: 256 61<-178.286 0 45.5 270.662> 320.5 23.5<404.437 413.313>
LayerCount: 2
Fore
SplineSet
257 45.5 m 17x78
 257 129 263.81640625 221.055664062 255 277.5 c 9
 255 277.5 138.0703125 130.26953125 55 45.5 c 9
 257 45.5 l 17x78
344 409.5 m 25
 336.58984375 383.370117188 325.603515625 359.635742188 325 342.5 c 0
 321 229 320.509765625 174.200195312 317 45.5 c 1x78
 384 44 400 46 436 104.5 c 9
 436 104.5 452.3203125 97.83984375 457 95.5 c 9
 457 95.5 432.549804688 32.974609375 415 -7 c 1xb8
 392.038085938 2.591796875 344.772460938 1.060546875 317 1 c 1
 316.793945312 -73.654296875 319.56640625 -154.471679688 324 -179.5 c 1
 285 -203 263 -227 249 -252.5 c 9
 249 -252.5 225.509765625 -239.349609375 222 -233.5 c 1
 258 -179 255.592773438 -116.307617188 256 0 c 1
 72 0 33 1 5 -17 c 9
 5 -17 -10.9296875 -1.2900390625 -16 3 c 1
 -1 19 299.3671875 367.799804688 320.5 422.299804688 c 9
 344 409.5 l 25
EndSplineSet
Substitution2: "dnom-1" four.denom
Substitution2: "numr-1" four.numerator
Substitution2: "tnum-1" four.tabulartext
Substitution2: "lnum-1" four.proportionallining
EndChar
StartChar: five
Encoding: 53 53 68
GlifName: five
Width: 362
Flags: HW
HStem: 326.5 72<120.63 288.458>
VStem: 246 63<-40.6381 97.0244>
LayerCount: 2
Fore
SplineSet
96 393.5 m 9
 160.349609375 395.450195312 245.5 396 261 398.5 c 0
 287.412109375 402.759765625 301.110351562 428.610351562 313 448.5 c 9
 313 448.5 332.3203125 436.83984375 337 434.5 c 9
 309.700195312 392.379882812 284.5 326 267 326.5 c 0
 236.475585938 327.372070312 184.009765625 323.5 122 323.5 c 9
 122 323.5 117.509765625 264.299804688 114 217.5 c 1
 196.5 224 309 176.166015625 309 48.5 c 3
 309 -95.595703125 153 -206 45 -215 c 9
 45 -215 45.33984375 -188.849609375 43 -183 c 1
 127 -180 246 -92.1005859375 246 28 c 3
 246 87.0654296875 202.5 164 71 152 c 1
 80.5 208 92.359375 305.161132812 96 393.5 c 9
EndSplineSet
Substitution2: "case-1" five.proportionallining
Substitution2: "lnum-1" five.proportionallining
Substitution2: "tnum-1" five.tabulartext
Substitution2: "numr-1" five.numerator
Substitution2: "dnom-1" five.denom
EndChar
StartChar: six
Encoding: 54 54 69
GlifName: six
Width: 487
VWidth: 1159
Flags: W
HStem: -10 40<226.82 331.156> 320 44<214.153 314.825>
VStem: 71 72<129.031 347.68> 375 64<95.8203 248.065>
LayerCount: 2
Fore
SplineSet
369 630 m 9
 369 630 377.099609375 612.459960938 381 607 c 1
 228 538 143 413.28515625 143 244 c 27
 143 142.525390625 188.8828125 30 291 30 c 3
 339.225585938 30 375 82.2705078125 375 142 c 3
 375 245.787109375 323.599609375 320 258 320 c 3
 230.620117188 320 214 304 194 282 c 1
 173 296 l 1
 191 336 235.845703125 364 291 364 c 3
 366 364 439 276.702148438 439 178 c 3
 439 75.951171875 345.0234375 -10 257 -10 c 3
 131.85546875 -10 71 121.913085938 71 214 c 3
 71 413.572265625 195 572 369 630 c 9
EndSplineSet
Validated: 1
Substitution2: "dnom-1" six.denom
Substitution2: "numr-1" six.numerator
Substitution2: "tnum-1" six.tabulartext
Substitution2: "lnum-1" six.proportionallining
EndChar
StartChar: seven
Encoding: 55 55 70
GlifName: seven
Width: 420
Flags: HW
HStem: 339 67<88.377 340.466>
LayerCount: 2
Fore
SplineSet
88 422 m 17
 96 410 106.708984375 406.586914062 121 406 c 24
 241.021484375 401.072265625 415 404 429 408 c 9
 429 408 435.879882812 390.900390625 439 387 c 1
 403 357 147 -132 151 -170 c 9
 151 -170 104.1796875 -167.219726562 80 -168 c 1
 180 0 255.811523438 122.745117188 354 317 c 0
 357.623046875 324.166992188 352.004882812 334.358398438 344 335 c 0
 267.584960938 341.12109375 258 343 142 339 c 0
 96.1396484375 337.418945312 61 328.799804688 46 283 c 9
 46 283 25.240234375 291.440429688 19 293 c 9
 19 293 58 396 64 427 c 9
 88 422 l 17
EndSplineSet
Substitution2: "dnom-1" seven.denom
Substitution2: "numr-1" seven.numerator
Substitution2: "tnum-1" seven.tabulartext
Substitution2: "lnum-1" seven.proportionallining
EndChar
StartChar: eight
Encoding: 56 56 71
GlifName: eight
Width: 468
UnlinkRmOvrlpSave: 1
Flags: HW
HStem: -7 34<198.562 310.068> 601 30<181.115 269.561>
VStem: 65 66<92.7065 220.453> 96 44<449.749 559.456> 323 57<427.637 550.295> 349 66<77.2167 214.897>
LayerCount: 2
Fore
SplineSet
221 601 m 3xe8
 182.759765625 601 140 557.240234375 140 521 c 3
 140 359.752929688 415 333.541992188 415 155 c 3xd4
 415 57.6220703125 333.377929688 -7 225 -7 c 3
 142.084960938 -7 65 41.5078125 65 133 c 3
 65 334.173828125 323 331.985351562 323 476 c 3
 323 520.192382812 293.192382812 601 221 601 c 3xe8
235 631 m 3
 309.364840863 631 380 589.301337248 380 497 c 3
 380 337.97265625 131 333.3203125 131 173 c 3xe8
 131 100.75 183.142578125 27 253 27 c 3
 339.083007812 27 349 101.166992188 349 133 c 3
 349 209.573242188 310.577314014 244.362524352 242.071289062 296 c 0
 170.9453125 349.612304688 96 402.180664062 96 484 c 3
 96 574.750976562 174.927242309 631 235 631 c 3
EndSplineSet
Substitution2: "case-1" eight.proportionallining
Substitution2: "tnum-1" eight.tabulartext
Substitution2: "lnum-1" eight.proportionallining
Substitution2: "numr-1" eight.numerator
Substitution2: "dnom-1" eight.denom
EndChar
StartChar: greater
Encoding: 62 62 333
GlifName: greater
Width: 463
VWidth: 0
Flags: W
HStem: -7 21G<70.4615 113.429> 392 20G<91.5605 135.282>
LayerCount: 2
Fore
SplineSet
72.5 365.6 m 25
 106 412 l 25
 412 203 l 25
 82 -7 l 25
 67 19 l 25
 332.5 187.6 l 25
 72.5 365.6 l 25
EndSplineSet
Validated: 1
Position2: "'case' vertical ajustments for all-caps-1" dx=0 dy=90 dh=0 dv=0
EndChar
StartChar: question
Encoding: 63 63 74
GlifName: question
Width: 378
VWidth: 1159
Flags: W
HStem: -21 140<95.678 138.536> 559.439 86.3608<67.0492 192.794> 680.8 20G<42.0879 62.5>
VStem: 26.1369 25.8631<672.026 695.853> 48 141<25.3087 69.9365> 110 18<185 224.85> 274 27<382.756 488.042>
LayerCount: 2
Fore
SplineSet
38 556.8 m 5xf6
 40.004833655 573.545373103 40.8164204084 588.176249895 40.8164204084 600.982038936 c 7
 40.8164204084 655.444150344 26.1369221359 676.895160528 26.1369221359 687.59766363 c 7
 26.1369221359 694.46213426 32.1757769697 696.904881972 52 700.8 c 5
 73 645.8 80 645.8 110 645.8 c 7
 206.132 645.8 301 565.837 301 444.8 c 7
 301 276.485 186.449 267.419 172 261.8 c 4
 144.69 247.8 130.667 225.8 128 185 c 13
 128 185 114.8 183.8 110 183.8 c 5
 106.776632964 214.303528103 103.82423636 242.461492248 103.82423636 266.457131635 c 7
 103.82423636 302.015713954 110.307578181 328.434001862 132 339.8 c 4
 158.928 353.909 274 321.545 274 435.8 c 7
 274 513.494315351 201.403177297 559.439212105 87.3039357441 559.439212105 c 7
 71.6259866427 559.439212105 55.1644520351 558.571750493 38 556.8 c 5xf6
EndSplineSet
Refer: 48 46 S 1 0 0 1 18 0 2
Validated: 1
Position2: "cpsp-1" dx=0 dy=0 dh=50 dv=100
Substitution2: "smcp-1" question.smcp
Substitution2: "pcap-1" question.pcap
EndChar
StartChar: at
Encoding: 64 64 874
GlifName: at
Width: 802
Flags: HW
HStem: -184 52<296.563 523.286> -31 20G<676.376 717.315> 1.09961 47.7002<458.768 559.989> 6.5 58.5<278.488 363.298> 517 44<312.978 552.39>
VStem: 37 69<49.8848 285.86> 222.851 64.0986<81.8658 195.602> 713 47<195.839 377.338>
LayerCount: 2
Fore
SplineSet
564.755 335 m 1xdf
 539.555 278.3 520.869 211.186 510.755 150.5 c 0
 505.822 120.901 501.64 87.547 501.64 75.1396 c 3
 501.64 56.5948 506.697 48.7998 515.255 48.7998 c 3
 536.667 48.7998 581.1 56.0977 613.5 83.5 c 0
 670.796 131.958 713 199 713 285 c 3
 713 435.003 578.205 517 422 517 c 3
 248.443 517 106 367.01 106 157 c 3
 106 -16.493 253.56 -132 409 -132 c 3
 533.221 -132 638.753 -81.1985 714 -11 c 1
 720.63 -17.63 724.37 -21.37 731 -28 c 1
 659 -108 535.675 -184 398 -184 c 3
 215.848 -184 37 -52.6006 37 157 c 3
 37 379.824 218.625 561 442 561 c 3
 602.303 561 760 456.039 760 288 c 3
 760 187.436 682.662 103.668 629.5 65.5 c 0
 593.246 39.4713 536.574 1.09961 478.355 1.09961 c 3xef
 439.181 1.09961 436.86 44.567 439.655 89.2998 c 1
 395.555 42.4999 337.055 6.5 301.955 6.5 c 3
 255.02 6.5 222.851 50.7988 222.851 103.97 c 3
 222.851 201.658 297.9 289.633 360.455 322.4 c 0
 401.855 344.9 452.255 353 519.755 368.3 c 0
 531.919 371.057 544.824 385.269 549.455 394.4 c 1
 596.255 398.9 l 1
 585.463 377.317 575.358 356.207 564.755 335 c 1xdf
479.155 314.8 m 1
 470.155 316.6 445.855 318.4 437.755 318.4 c 3
 409.855 318.4 377.455 303.1 358.556 289.6 c 0
 323.189 264.337 286.949 213.234 286.949 145.586 c 3
 286.949 102.981 305.419 65 351.455 65 c 3xdf
 379.355 65 417.155 91.3378 442.355 116.7 c 1
 451.355 154.163 463.055 195.981 472.955 237.8 c 0
 478.177 259.858 483.105 283.587 483.105 298.967 c 3
 483.105 306.389 481.962 311.994 479.155 314.8 c 1
EndSplineSet
Position2: "'case' vertical ajustments for all-caps-1" dx=0 dy=160 dh=0 dv=0
Position2: "cpsp-1" dx=0 dy=0 dh=50 dv=100
EndChar
StartChar: A
Encoding: 65 65 26
GlifName: A_
Width: 724
Flags: HMW
HStem: -10 37<485.198 526.465 650.751 700.047> 245 42<247 437.657> 692 20G<358 405.5>
VStem: 360 43<632.023 712>
DStem2: 106 80 164 87 0.391141 0.920331<-3.53261 211.909 245.659 524.174> 417 642 475 236 0.354654 -0.934998<388.302 400.179 571.058 597.203>
AnchorPoint: "Bottom" 363 -15 basechar 0
AnchorPoint: "Ogonek" 533 27 basechar 0
AnchorPoint: "Top" 377 699 basechar 0
LayerCount: 2
Fore
SplineSet
247 287 m 1
 300 282 410 283 459 283 c 1
 420 383 394 443 352 545 c 9
 311 444 284 378 247 287 c 1
487 -10 m 13
 487 -10 481 12 477 27 c 1
 519 37 545 48 535 76 c 0
 512 139 498 173 475 236 c 1
 415 246 318 252 231 245 c 13
 205 183 185 147 164 87 c 0
 152 51 176 29 247 34 c 13
 245 -10 l 1
 212.10546875 -3.4208984375 160.25390625 0.2958984375 112.120117188 0.2958984375 c 3
 79.7734375 0.2958984375 49.10546875 -1.3828125 27 -5 c 13
 27 -5 23 20 22 34 c 1
 71 48 95 57 106 80 c 0
 198 289 276 470 344 640 c 0
 359 678 356 679 360 712 c 13
 403 712 l 13
 408 685 403 681 417 642 c 0
 491 417 535 281 637 62 c 28
 649 36 674 34 702 32 c 13
 702 32 701 8 700 -4 c 1
 670.361328125 0.0419921875 636.48828125 2.4697265625 602.727539062 2.4697265625 c 3
 561.307617188 2.4697265625 520.055664062 -1.1845703125 487 -10 c 13
EndSplineSet
Position2: "cpsp-1" dx=0 dy=0 dh=50 dv=100
Substitution2: "c2pc-1" a.pcap
Substitution2: "c2sc-1" a.smcp
EndChar
StartChar: B
Encoding: 66 66 27
GlifName: B_
Width: 610
Flags: HMW
HStem: -4 38<41 115.426 217.57 407.69> 349 30<207 346.635> 653 41<43 110.219 219.972 352.268>
VStem: 125 80<45.6349 349 379 533.879> 412 90<447.929 586.24> 483 90<100.26 258.491>
AnchorPoint: "Bottom" 306 -15 basechar 0
AnchorPoint: "Top" 273 699 basechar 0
LayerCount: 2
Fore
SplineSet
38 34 m 1xf4
 85 36 120 36 122 73 c 0
 122 78 125 176 125 292 c 3
 125 461 118 605 117 614 c 0
 116 624 113 641 92 646 c 0
 85 648 43 655 36 656 c 1
 43 694 l 1
 53 694 94 684 148 684 c 3
 201 684 256 694 306 694 c 3
 461 694 502 578 502 518 c 3xf8
 502 447 452 402 360 369 c 1
 483 363 573 278 573 181 c 3
 573 70 471 -4 312 -4 c 3
 259 -4 209 2 152 2 c 3
 93 2 48 -2 41 -2 c 1
 38 34 l 1xf4
306 381 m 0
 375 391 412 440 412 499 c 3
 412 537 393 653 288 653 c 3
 274 653 249 651 240 649 c 0
 218 644 216 624 215 614 c 0
 205 501 207 379 207 379 c 1
 289 379 296 380 306 381 c 0
282 349 m 0
 205 349 l 9
 206 251 206 155 208 96 c 0
 209 59 214 47 240 41 c 0
 250 39 295 34 321 34 c 3
 413 34 483 83 483 178 c 3xf4
 483 262 425 349 282 349 c 0
EndSplineSet
Position2: "cpsp-1" dx=0 dy=0 dh=50 dv=100
Substitution2: "c2pc-1" b.pcap
Substitution2: "c2sc-1" b.smcp
EndChar
StartChar: C
Encoding: 67 67 28
GlifName: C_
Width: 743
VWidth: 1159
Flags: W
HStem: -13 42<347.099 553.906> 670 40<327.101 545.759>
VStem: 43 103<243.914 469.499> 633 33<533.188 599.436> 673 27<146.932 165.074>
AnchorPoint: "Bottom" 416 -15 basechar 0
AnchorPoint: "Top" 426 699 basechar 0
LayerCount: 2
Fore
SplineSet
43 348 m 3
 43 525.39031339 167 710 447 710 c 7
 509 710 544 706 603 689 c 4
 644 678 661 684 676 689 c 5
 703 675 l 5
 665 615 666 578 666 556 c 4
 666 536 665 529 633 529 c 13
 618 566 630 604 596 625 c 4
 542 657 499 670 433 670 c 31
 273 670 146 561.030927835 146 368 c 3
 146 158.528358209 298 29 452 29 c 3
 554 29 636 82 673 171 c 9
 700 163 l 1
 691 116 683 90 671 43 c 1
 608 12 531 -13 438 -13 c 3
 218 -13 43 137.669467787 43 348 c 3
EndSplineSet
Position2: "cpsp-1" dx=0 dy=0 dh=50 dv=100
Substitution2: "c2pc-1" c.pcap
Substitution2: "c2sc-1" c.smcp
EndChar
StartChar: D
Encoding: 68 68 29
GlifName: D_
Width: 792
Flags: HW
HStem: -10 38<15.6316 81.6884> -7 44<159.868 463.195> 647 41<13 82.5059> 659 37<188.563 435.412>
VStem: 94.1875 82.2977<49.5582 525.672> 655 94<221.047 461.211>
AnchorPoint: "Bottom" 357 -15 basechar 0
AnchorPoint: "Top" 357 699 basechar 0
LayerCount: 2
Fore
SplineSet
325 37 m 3x5c
 525 37 655 146.444335938 655 340 c 3
 655 529.78515625 517 659 312 659 c 3
 271 659 248 654 207 649 c 0
 179 645 178 627 178 607 c 0
 178 494.098557692 176.485207101 391.17714497 176.485207101 286.661342171 c 3
 176.485207101 221.338965422 177.076923077 155.393780048 179 86 c 0
 179 68 182 50 210 46 c 0
 241 41 279 37 325 37 c 3x5c
13 688 m 25xac
 56 686 81 682 124 682 c 27
 211 682 259 696 346 696 c 3
 561 696 749 559.819335938 749 350 c 3
 749 72.8955078125 526 -7 322 -7 c 3x5c
 248 -7 205 0 131 0 c 3
 57 0 46 -5 16 -10 c 9
 14 28 l 1
 55 32 87 33 89 66 c 0
 92.6730983382 127.388808183 94.1875324521 203.810135573 94.1875324521 281.058446902 c 3
 94.1875324521 414.118448109 89.6942114956 549.6321079 84 615 c 0
 82 651 65 647 12 647 c 9
 13 688 l 25xac
EndSplineSet
Position2: "cpsp-1" dx=0 dy=0 dh=50 dv=100
Substitution2: "c2pc-1" d.pcap
Substitution2: "c2sc-1" d.smcp
EndChar
StartChar: E
Encoding: 69 69 30
GlifName: E_
Width: 661
Flags: HW
HStem: -9 35<50 95.5829> 3.06988 37.3024<225.897 486.73> 333 36<199 467.393> 649.076 36.8926<242.298 481.505> 660 31<42 102.489>
VStem: 116 93<372.594 641.287> 120.788 78.2122<90.4624 333 369 606.123> 491 36<247.75 305.348 393.846 441.094> 532 30<536 622.25> 592 28<152.034 171.75>
AnchorPoint: "Bottom" 321 -15 basechar 0
AnchorPoint: "Ogonek" 560 15 basechar 0
AnchorPoint: "Top" 324 699 basechar 0
LayerCount: 2
Fore
SplineSet
42 691 m 1xadc0
 114.521484375 687.35546875 200.588867188 685.96875 281.956054688 685.96875 c 3
 423.86328125 685.96875 551.475585938 690.186523438 568 694 c 1
 579.145507812 684.248046875 583.133789062 678.741210938 583.133789062 670.086914062 c 3
 583.133789062 653.395507812 569.168945312 625.342773438 562 536 c 1
 532 533 l 1
 521 570.532226562 540 619.532226562 504 631 c 0
 462.48828125 642.860351562 396.6640625 649.076171875 333.41796875 649.076171875 c 3
 300.677734375 649.076171875 268.627929688 647.41015625 241 644 c 0
 223 642 210 628 209 610 c 0x35c0
 205 527.284179688 200 445.588867188 199 369 c 1
 263 371 423 371 437 372 c 0
 474 377 479 403 495 447 c 1
 529 440 l 1
 520.80078125 409.1328125 517.486328125 378.498046875 517.486328125 347.872070312 c 3
 517.486328125 314.998046875 521.305664062 282.1328125 527 249 c 1
 491 240 l 1
 471 311 478 324 437 328 c 0
 393 333 292 332 199 333 c 1
 198 235.61328125 202 147.262695312 214 81 c 0
 218 64 227 50 244 49 c 0
 289.831054688 44.564453125 330.319335938 40.3720703125 368.696289062 40.3720703125 c 0
 408.193359375 40.3720703125 445.453125 44.8134765625 484 58 c 0
 543 78 553 101 592 177 c 1
 620 170 l 1
 604 104 593 62 581 0 c 1
 476.235351562 -0.5458984375 366.641601562 3.0703125 267.733398438 3.0703125 c 3x73c0
 185.2109375 3.0703125 110.225585938 0.552734375 52 -9 c 1
 42 26 l 1
 95 36 118 49 118 77 c 1
 119.797851562 111.740234375 120.788085938 206.912109375 120.788085938 308.828125 c 3xa3c0
 120.788085938 435.280273438 119.302734375 571.978515625 116 619 c 0
 115 646 110 646 37 660 c 1
 42 691 l 1xadc0
EndSplineSet
Position2: "cpsp-1" dx=0 dy=0 dh=50 dv=100
Substitution2: "c2pc-1" e.pcap
Substitution2: "c2sc-1" e.smcp
EndChar
StartChar: F
Encoding: 70 70 31
GlifName: F_
Width: 610
Flags: HW
HStem: -9 35<56 102.518> 332 39<209 412.616> 654 31<40 104.778> 680 20G<537.477 548.182>
VStem: 127.705 81.2945<84.0664 332 371 638.375> 474 36<246.75 303.707 394.284 440.094> 522 31<534 596.775>
AnchorPoint: "Bottom" 194 -15 basechar 0
AnchorPoint: "Top" 332 699 basechar 0
LayerCount: 2
Fore
SplineSet
339 -11 m 1xde
 286.5 -3.68620369155 248 0 207 -0 c 3
 166 0 122 -3.56988984115 58 -9 c 1
 48 26 l 1
 101 36 126 49 126 77 c 1
 127.21875 100.456054688 127.705078125 151.548828125 127.705078125 213.64453125 c 3
 127.705078125 355.750457193 125.167426959 555.33293468 123 614 c 0
 122 641 108 641 35 655 c 1
 40 686 l 1xee
 95.5693359373 683.208007812 158.545898438 681.974609375 220.612304688 681.974609375 c 7
 380.814453125 681.974609375 534.955078125 690.188476562 540 701 c 1
 556.364257812 691.374023438 561 684 561 663 c 0
 561 641 555.59375 603.985351562 553 535 c 1
 522 532 l 1
 511 568 515.194483347 615.658719044 479 626 c 0
 416 644 315.11618712 651.01290968 234 642 c 0
 216 640 212.889179385 623.005882544 212 605 c 0
 208 523.652360515 209 446.321888412 209 371 c 1
 273 373 405.090785282 369.12037639 419 371 c 0
 456 376 462 402 478 446 c 1
 512 439 l 1
 503.80078125 408.1328125 500.486328125 377.498046875 500.486328125 346.872070312 c 3
 500.486328125 313.998046875 504.305664062 281.1328125 510 248 c 1
 474 239 l 1
 454 310 459.931645605 322.348676636 419 327 c 0
 375 332 301 331 208 332 c 1
 213 219 205.635578893 146.298789703 221 81 c 0
 225 64 233 42 345 42 c 1
 339 -11 l 1xde
EndSplineSet
Position2: "cpsp-1" dx=0 dy=0 dh=50 dv=100
Substitution2: "c2pc-1" f.pcap
Substitution2: "c2sc-1" f.smcp
EndChar
StartChar: G
Encoding: 71 71 32
GlifName: G_
Width: 803
VWidth: 1159
Flags: W
HStem: -15 37<374.664 581.67> 317 32<497.562 613.119 730.522 761> 674 38<338.234 547.832> 682 20G<658 689>
VStem: 43 99<248.93 472.081> 638 87<58.334 304.866> 675 31<535.645 556.71>
AnchorPoint: "Bottom" 426 -15 basechar 0
AnchorPoint: "Top" 449 699 basechar 0
LayerCount: 2
Fore
SplineSet
43 355 m 3xec
 43 608.579101562 302 712 466 712 c 3xec
 529 712 576 696 625 681 c 0
 653 674 653 682 663 702 c 9
 689 701 l 9
 706 537 l 9
 675 531 l 1xda
 631 627 549 674 443 674 c 3
 252 674 142 518.012695312 142 366 c 3
 142 176.799602441 296 22 483 22 c 31
 538 22 571 33 620 58 c 28
 635 65 636 80 636 97 c 4
 636 135.72179787 638 199.917303194 638 258 c 0
 638 289 632 309 583 313 c 0
 551 315 528 316 496 317 c 9
 498 349 l 1
 600 339 712 340 761 346 c 9
 764 322 l 1
 736 315 726 308 725 287 c 0
 723 212.859042661 722 145.827792661 720 92 c 4
 719 70 725 63 748 48 c 13
 745 27 l 5
 666 15 502 -15 448 -15 c 7
 220 -15 43 139.672261332 43 355 c 3xec
EndSplineSet
Position2: "cpsp-1" dx=0 dy=0 dh=50 dv=100
Substitution2: "c2pc-1" g.pcap
Substitution2: "c2sc-1" g.smcp
EndChar
StartChar: H
Encoding: 72 72 33
GlifName: H_
Width: 875
Flags: HW
HStem: -15 35<226.933 289.427 604 660.791> -11 42<41 105.628> 325 40<208 684> 650 37<41.7353 112.046 221.692 299.162> 657 34<601.971 658.882> 661 37<785.97 836.135>
VStem: 111 97<40.9826 319.166> 123 85<213.224 325 365 616.072> 684 78<81.7338 325 365 438.46>
AnchorPoint: "Bottom" 441 -15 basechar 0
AnchorPoint: "Top" 449 699 basechar 0
LayerCount: 2
Fore
SplineSet
42 691 m 1x6980
 92 685.6 137 682 185 682 c 3
 220 682 256 683.666666667 299 687 c 1
 301 650 l 1x3180
 274 646 222.487806167 645.926837 220 631 c 0
 214 595 210 468 208 365 c 1
 452 358 568 368 684 365 c 1
 684 433 681.678103615 510.910166229 679 610 c 0
 678 647 639 645 598 657 c 1
 603 691 l 1x2980
 644 685.6 678 682 711 682 c 3
 748 682 786 686.705882353 835 698 c 1
 841 661 l 1
 792 649 780.75103736 651.016597762 779 623 c 0
 772 511 762 328 762 197 c 3
 762 127.047851562 764.083326842 71.9907587711 772 50 c 0
 781 25 809 24 839 22 c 1
 839 22 834 2 835 -12 c 1
 800 -5 764 0 726 0 c 3
 687 0 647 -5 604 -15 c 1
 604 -15 598 8 596 20 c 1xa580
 643 30 672.104748451 31.9926654284 674 59 c 0
 681 158.75 683 221.219726562 684 325 c 1
 614 330 356 329 207 325 c 1
 206 235.659179688 204.147884534 132.338078383 208 63 c 0
 210 27 262 31 294 24 c 1
 294 24 290 1 289 -13 c 1
 237 -4 193 0 150 0 c 3
 113 0 78 -3 41 -11 c 1
 41 -11 36 13 34 31 c 1
 70 37 109.380988861 37.0309980813 111 63 c 0x6280
 118 175.280273438 123 340.692382812 123 464 c 3
 123 546 121.082564422 610.026226103 116 626 c 0
 109 648 77 648 39 653 c 1
 42 691 l 1x6980
EndSplineSet
Position2: "cpsp-1" dx=0 dy=0 dh=50 dv=100
Substitution2: "c2pc-1" h.pcap
Substitution2: "c2sc-1" h.smcp
EndChar
StartChar: I
Encoding: 73 73 34
GlifName: I_
Width: 393
Flags: W
HStem: -10 40<42.125 145.827> 652 43<47.3488 146.792>
VStem: 157 90<41.0295 293.416> 163.915 75.6025<80.3904 534.592>
AnchorPoint: "Bottom" 193 -15 basechar 0
AnchorPoint: "Ogonek" 260 15 basechar 0
AnchorPoint: "Top" 197 699 basechar 0
LayerCount: 2
Fore
SplineSet
48 695 m 1xd0
 106.9375 685.854492188 153 682 200 682 c 7
 246 682 292.494140625 685.60546875 353 692 c 9
 355 649 l 1
 297 647 259 657 255 616 c 0
 247.69921875 537.685546875 239.517578125 432.501953125 239.517578125 296.6484375 c 3xd0
 239.517578125 227.806640625 241.619140625 151.087890625 247 66 c 0
 249 27 301 32 355 30 c 9
 354 -9 l 1
 302.493164062 -3.390625 245 0 190 -0 c 3
 137 0 85.6328125 -3.1396484375 43 -10 c 1
 38 30 l 1
 98 30 155 27 157 77 c 0xe0
 161.643554688 148.973632812 163.915039062 243.802734375 163.915039062 336.857421875 c 3
 163.915039062 444.202148438 160.892578125 549.185546875 155 614 c 0
 151 650 97 647 44 652 c 9
 48 695 l 1xd0
EndSplineSet
Position2: "cpsp-1" dx=0 dy=0 dh=50 dv=100
Substitution2: "c2pc-1" i.pcap
Substitution2: "c2sc-1" i.smcp
EndChar
StartChar: J
Encoding: 74 74 35
GlifName: J_
Width: 394
Flags: HMW
AnchorPoint: "Bottom" 213 -138.8 basechar 0
AnchorPoint: "Top" 196 699 basechar 0
LayerCount: 2
Fore
SplineSet
149 614 m 0
 142 650 91 647 38 652 c 1
 42 692 l 1
 96.806640625 685.621777344 140 683 184 683 c 3
 233 683 282.114257812 686.302929687 347 692 c 1
 349 649 l 1
 291 647 252.823602479 657.016826597 249 616 c 0
 238 498 242 378 242 225 c 3
 242 95 248 43 248 0 c 3
 248 -92 187.981632476 -152.412489916 118 -200 c 0
 93 -217 68 -235 43 -251 c 1
 18 -218 l 1
 41 -207 59.39850139 -195.281198888 76 -182 c 0
 81 -178 85.9020857715 -174.899628056 90 -171 c 0
 152 -112 162 -30 162 65 c 3
 162 104 156 578 149 614 c 0
EndSplineSet
Position2: "cpsp-1" dx=0 dy=0 dh=50 dv=100
Substitution2: "c2pc-1" j.pcap
Substitution2: "c2sc-1" j.smcp
EndChar
StartChar: K
Encoding: 75 75 36
GlifName: K_
Width: 725
Flags: HW
HStem: -10 30<243.663 298.933> -1 24<496.273 524.261 682.235 699.667> 657 31<46.4194 99.0559 227.774 295.29 594.711 630.844>
VStem: 117 92<40.8706 315.532> 125.513 78.4867<125.33 316 357 600.136>
AnchorPoint: "Bottom" 385 -15 basechar 0
AnchorPoint: "Top" 361 699 basechar 0
LayerCount: 2
Fore
SplineSet
417 685 m 1xa8
 440.456054688 683.004882812 466.1953125 681.94921875 492.741210938 681.94921875 c 3
 538.625976562 681.94921875 586.921875 685.1015625 630 692 c 1
 639 656 l 1
 598 646 572 635 544 610 c 0
 451 529 357 449 265 367 c 1
 602 87 l 0
 636 59 675 38 703 23 c 1
 699 -1 l 1
 671 1 632 4 604 4 c 3
 571 4 529 1 497 -4 c 1
 493 21 l 1
 523 30 539 33 517 58 c 0
 496 81 306 232 204 316 c 1x68
 204 235 205 134 209 79 c 0
 211 36 243 34 302 20 c 1
 298 -10 l 1
 251.799804688 -2.7998046875 204.51953125 1.8798828125 152.48828125 1.8798828125 c 3
 117.799804688 1.8798828125 81 -0.2001953125 41 -5 c 1
 38 28 l 1
 93 29 115 35 117 71 c 0xb0
 122.73828125 166.833007812 125.513671875 266.947265625 125.513671875 367.184570312 c 3
 125.513671875 441.622070312 123.983398438 516.127929688 121 589 c 0
 119 644 104 645 41 657 c 1
 47 688 l 1
 82.66015625 683.541992188 120.108398438 681.66796875 157.662109375 681.66796875 c 3
 204.357421875 681.66796875 251.21484375 684.56640625 295 689 c 1
 298 657 l 1
 240 652 218 651 213 608 c 0
 208 524 204 444 204 357 c 1
 286 433 369 505 449 584 c 0
 460 595 473 611 473 621 c 0
 473 645.334960938 453 651.657226562 416 658 c 1
 417 685 l 1xa8
EndSplineSet
Position2: "cpsp-1" dx=0 dy=0 dh=50 dv=100
Substitution2: "c2pc-1" k.pcap
Substitution2: "c2sc-1" k.smcp
EndChar
StartChar: L
Encoding: 76 76 37
GlifName: L_
Width: 655
Flags: HW
HStem: -7 44<49 114.095> 2 50<215.846 531.493> 652 41<223.258 312.683>
VStem: 120 88<57.6719 639.659> 588 35<122.552 159>
AnchorPoint: "Bottom" 326 -15 basechar 0
AnchorPoint: "TopRight" 374.5 581 basechar 0
AnchorPoint: "Top" 183 699 basechar 0
LayerCount: 2
Fore
SplineSet
312 693 m 1xb8
 316 652 l 1
 229 641 215 660 211 576 c 0
 209 528.555664062 208 149 208 149 c 0
 208 90 210 52 251 52 c 0
 283 52 441 52 464 53 c 0
 534 57 563 91 588 166 c 1
 623 159 l 1
 623 102 611 122 584 -21 c 1
 562 -12 556 -3 512 -1 c 0
 501 -1 412 2 310 2 c 3x78
 95 2 60 -7 49 -7 c 1
 44 37 l 1
 103 43 117 45 118 76 c 0
 118 80 120 178 120 300 c 3
 120 454.967773438 115 603.858398438 114 615 c 0
 112 643 100 648 38 650 c 1
 42 696 l 1
 82.373046875 686.141601562 127.59375 682.454101562 172.076171875 682.454101562 c 3
 222.348632812 682.454101562 271.677734375 687.1640625 312 693 c 1xb8
EndSplineSet
Position2: "cpsp-1" dx=0 dy=0 dh=50 dv=100
Substitution2: "c2pc-1" l.pcap
Substitution2: "c2sc-1" l.smcp
EndChar
StartChar: M
Encoding: 77 77 38
GlifName: M_
Width: 1004
Flags: HW
HStem: -10 41<36 117.222 220.099 297.854 694.125 766.456> 2 21G<474.5 522> 651 40<879.759 963.7> 655 44<49.7273 137.712>
VStem: 171 30<117 529> 475 42<2 72.3822> 795 80<55.7692 360.364>
AnchorPoint: "Bottom" 487 -15 basechar 0
AnchorPoint: "Top" 521 699 basechar 0
LayerCount: 2
Fore
SplineSet
967 -10 m 1x2e
 929.70703125 -3.83611505682 888 0 844 0 c 3
 797 0 746.567382812 -4.06640625 695 -12 c 1
 690 26 l 1
 771 36.880859375 794 49.7392578125 795 117 c 0
 799 261.34375 793 402.680664062 781 537 c 1
 705 409.676757812 632 279.34765625 567 142 c 0
 547 100 527 42 517 -2 c 1
 475 -2 l 1x6e
 474 53 450.188476562 108.095703125 428 151 c 2
 232 538 l 1
 214 405.825649045 202 262.881363779 201 117 c 0
 201 38 222 45 302 31 c 1
 297 -10 l 1
 257.203125 -4.0029296875 210 0 161 0 c 3
 120 0 76.935546875 -2.72265625 36 -10 c 1
 34 31 l 1
 124 41 141.77734375 56.9443359375 145 109 c 2
 171 526 l 2
 173 564 171 599 150 621 c 0
 132 639 107 651 43 652 c 1
 51 696 l 1x9e
 109 689 177 681 241 683 c 0
 259 683 263 670 268 658 c 0
 343 484.302577182 427 317.632938255 519 160 c 1
 791 674 l 0
 796 683 805 687 811 686 c 0
 860 680 914 682 963 687 c 1
 967 647 l 1
 892 645 864 637 864 577 c 0
 864 419.663085938 868 262.325195312 875 111 c 0
 879 38 900 34 968 33 c 1
 967 -10 l 1x2e
EndSplineSet
Position2: "cpsp-1" dx=0 dy=0 dh=50 dv=100
Substitution2: "c2pc-1" m.pcap
Substitution2: "c2sc-1" m.smcp
EndChar
StartChar: N
Encoding: 78 78 39
GlifName: N_
Width: 906
Flags: HW
HStem: -10 44<61.3182 125.789 224.598 308.067> 651 39<809.248 870> 659 38<638.263 716.466>
VStem: 135 55<66.539 312.678> 144.632 54.3679<242 550> 758 37<-2.08108 25.5054>
AnchorPoint: "Bottom" 469 -15 basechar 0
AnchorPoint: "Top" 465 699 basechar 0
LayerCount: 2
Fore
SplineSet
52 691 m 1xcc
 91 687 142.98828125 683 184 683 c 0
 199 683 200.154296875 679.150390625 207 672 c 0
 376 495.837118639 551 327.504435061 737 167 c 1
 744.59765625 270.138671875 747.256835938 373.27734375 747.256835938 480.467773438 c 3
 747.256835938 498.842637788 747.166015625 517.345615528 747 536 c 0
 746 658 694 647 635 654 c 1
 639 692 l 1xac
 694.51953125 684.825195312 741 682 785 682 c 3
 814 682 841.846679688 683.370117188 870 685 c 1
 875 646 l 1
 826 640 804.778320312 642.020507812 801 600 c 0
 786 436.059594774 783 261.523046122 783 86 c 0
 783 63 789 23 795 0 c 1
 758 -11 l 1
 742 32 708.759765625 72.75390625 676 105 c 0
 521 257.228432233 363 404.578204003 199 549 c 1xcc
 190 154 l 2
 187.614257812 52.4208984375 224 44.6748046875 315 35 c 1
 307 -11 l 1
 268.475585938 -2.830078125 231 0 196 0 c 3
 147 0 102.106445312 -5.4853515625 62 -10 c 1
 57 34 l 1
 115 34 132.193359375 45.0400390625 135 93 c 0xd4
 141.388671875 202.165039062 144.631835938 315.788085938 144.631835938 430.331054688 c 3
 144.631835938 476.814648275 144.08984375 523.450472237 143 570 c 0
 142 613 107 648 50 647 c 1
 52 691 l 1xcc
EndSplineSet
Position2: "cpsp-1" dx=0 dy=0 dh=50 dv=100
Substitution2: "c2pc-1" n.pcap
Substitution2: "c2sc-1" n.smcp
EndChar
StartChar: O
Encoding: 79 79 40
GlifName: O_
Width: 845
Flags: W
HStem: -13 50<350.825 545.448> 660 49<304.396 495.712>
VStem: 43 93<264.284 455.257> 701 101<219.4 441.786>
AnchorPoint: "Horn" 713.5 573 basechar 0
AnchorPoint: "Middle" 423.697 364.853 basechar 0
AnchorPoint: "Bottom" 422 -15 basechar 0
AnchorPoint: "Ogonek" 486 11 basechar 0
AnchorPoint: "Top" 426 699 basechar 0
LayerCount: 2
Fore
SplineSet
391 660 m 3
 250 660 136 543.419836023 136 382 c 3
 136 202.520642412 279 37 449 37 c 3
 602 37 701 170.530119977 701 321 c 3
 701 500.470296712 561 660 391 660 c 3
428 709 m 3
 635 709 802 543.449896694 802 341 c 3
 802 145.552293527 644 -13 430 -13 c 3
 216 -13 43 144.55469308 43 341 c 3
 43 537.466253444 218 709 428 709 c 3
EndSplineSet
Position2: "cpsp-1" dx=0 dy=0 dh=50 dv=100
Substitution2: "c2pc-1" o.pcap
Substitution2: "c2sc-1" o.smcp
EndChar
StartChar: P
Encoding: 80 80 41
GlifName: P_
Width: 620
Flags: HW
HStem: -11 38<57.4211 109.993> 242 36<222.515 385.94> 645 42<38.5 123.292> 655 39<219.531 387.467>
VStem: 127 90<358.521 636.758> 138.344 80.6562<48.2578 250 282.973 479.296> 499 89<377.611 543.933>
AnchorPoint: "Bottom" 186 -15 basechar 0
AnchorPoint: "Top" 318 699 basechar 0
LayerCount: 2
Fore
SplineSet
290 278 m 3xd6
 397 278 499 335.9609375 499 459 c 3
 499 539.534482759 440.292062123 612.759083501 397 632 c 0
 361 648 309 654 243 654 c 3
 228 654 216.597155067 640.994589556 217 626 c 0xda
 219 551.556518917 218 420.778746291 219 290 c 1
 241 281 263 278 290 278 c 3xd6
39 686 m 1xea
 65 684 99 682 138 682 c 3
 209 682 248 693 319 693 c 3
 484 693 588 575.519823789 588 467 c 3
 588 347.405273438 486 242 282 242 c 3
 259 242 242 246 222 250 c 1
 224 180.607954545 224.453213516 104.246240067 229 73 c 0
 235 32 255 41 326 36 c 1
 322 -10 l 1
 263.657226562 -4.84205948129 223 0 179 -0 c 3
 145 0 108.73046875 -3.09209385589 60 -11 c 1
 46 26 l 1
 120 51.103515625 134.748499786 41.2489140221 136 78 c 0
 137.5625 124.180535181 138.34375 177.280533334 138.34375 233.623046875 c 3xd6
 138.34375 356.454896729 132.012914267 494.702971854 127 610 c 0
 126 633 106 643 36 644 c 1
 39 686 l 1xea
EndSplineSet
Position2: "cpsp-1" dx=0 dy=0 dh=50 dv=100
Substitution2: "c2pc-1" p.pcap
Substitution2: "c2sc-1" p.smcp
EndChar
StartChar: Q
Encoding: 81 81 42
GlifName: Q_
Width: 785
VWidth: 1361
Flags: W
HStem: -157 43<708.054 873.117> -5 51<313.167 416.904> 674 32<293.987 459.678>
VStem: 43 98<254.599 491.499> 639 102<242.788 484.609>
AnchorPoint: "Middle" 392.697 364.853 basechar 0
AnchorPoint: "Top" 395 699 basechar 0
AnchorPoint: "Bottom" 343 -15 basechar 0
LayerCount: 2
Fore
SplineSet
378 674 m 3
 240 674 141 558.260742188 141 390 c 3
 141 213.029296875 242 46 404 46 c 3
 543 46 639 170.169921875 639 345 c 3
 639 552.943359375 518 674 378 674 c 3
505 21 m 1
 635 -79 745 -114 819 -114 c 3
 839 -114 857 -112 872 -107 c 1
 877 -137 l 1
 833 -152 791 -157 749 -157 c 3
 626 -157 507 -100 393 -5 c 1
 184 -5 43 164.081054688 43 363 c 3
 43 577.008789062 198 706 389 706 c 3
 581 706 741 560.415039062 741 365 c 3
 741 209.901367188 643 74.6875 505 21 c 1
EndSplineSet
Validated: 1
Position2: "cpsp-1" dx=0 dy=0 dh=50 dv=100
Substitution2: "salt-1" Q.alt
Substitution2: "c2pc-1" q.pcap
Substitution2: "c2sc-1" q.smcp
EndChar
StartChar: R
Encoding: 82 82 43
GlifName: R_
Width: 763
Flags: HMW
HStem: -10 44<287 295> 323 44<201 329.579>
VStem: 111 90<71.4111 283.488 429.868 640.189> 479 87<441.267 575.707>
AnchorPoint: "Bottom" 380 -15 basechar 0
AnchorPoint: "Top" 307 699 basechar 0
LayerCount: 2
Fore
SplineSet
201 367 m 1
 242 366 263 363 304 363 c 3
 450 363 479 453.25390625 479 507 c 3
 479 568.294921875 418 664 302 664 c 3
 271 664 208 657 204 614 c 0
 197 536.944335938 199 444.055664062 201 367 c 1
35 692 m 1
 78 691 103 690 146 690 c 0
 215 690 244 706 323 706 c 0
 456 706 566 622.090820312 566 518 c 0
 566 430.016601562 496 369.338867188 416 339 c 1
 535 138.395507812 629 5.9765625 763 4 c 1
 756 -33 l 1
 578 -37.943359375 404 150.91015625 330 319 c 1
 321 318 313 318 306 318 c 0
 265 318 242 322 201 323 c 1
 206 227 209 158 213 77 c 0
 215 40 240 35 295 30 c 1
 287 -14 l 1
 244 -5 201 0 158 0 c 3
 121 0 83 -4 46 -11 c 1
 39 30 l 1
 92 32 107 34 111 65 c 1
 116 190 119 274 119 357 c 3
 119 430.888671875 117 503.72265625 114 604 c 1
 109 641 98 653 35 655 c 1
 35 692 l 1
EndSplineSet
Position2: "cpsp-1" dx=0 dy=0 dh=50 dv=100
Substitution2: "salt-1" R.alt
Substitution2: "c2pc-1" r.pcap
Substitution2: "c2sc-1" r.smcp
EndChar
StartChar: S
Encoding: 83 83 44
GlifName: S_
Width: 575
VWidth: 1159
Flags: HW
HStem: -10 43<195.79 384.696> 672 38<219.404 383.163> 681 20G<474 513>
VStem: 30 34<149.828 195.235> 58 32<0 20.4257> 68 82<457.95 594.46> 449 80<96.0494 230.479> 482 33<527.268 575.693 682.701 692>
AnchorPoint: "Bottom" 286 -15 basechar 0
AnchorPoint: "Top" 308 699 basechar 0
LayerCount: 2
Fore
SplineSet
30 194 m 5xd0
 64 200 l 5
 82 141 86.878297754 120.865926417 110 100 c 4
 151 63 241 33 305 33 c 7
 407 33 449 107 449 164 c 7
 449 286 282.776167628 306.192651078 193 347 c 4
 171 357 68 397 68 510 c 7
 68 601.2 146 702 310 702 c 7xd6
 368 702 417.383162321 689.10631413 439 681 c 4
 455 675 465 663 483 693 c 5xb6
 513 684 l 5
 496 604 499.867877476 602.962428833 515 550 c 4
 521 529 515 511 482 517 c 5
 475 533 471.790643312 554.907101001 463 575 c 4
 442 623 371 664 297 664 c 7
 244 664 150 641.352112676 150 530 c 7xc5
 150 429 243.829771373 432.615686511 397 365 c 4
 508 316 529 231 529 181 c 7
 529 101 474 -10 282 -10 c 7
 227 -10 169.157879915 0.444742029655 119 18 c 4
 99 25 100 24 90 -4 c 5
 58 0 l 5xca
 59 69 56 87 30 194 c 5xd0
EndSplineSet
Position2: "cpsp-1" dx=0 dy=0 dh=50 dv=100
Substitution2: "c2pc-1" s.pcap
Substitution2: "c2sc-1" s.smcp
EndChar
StartChar: T
Encoding: 84 84 45
GlifName: T_
Width: 728
VWidth: 1159
Flags: HMW
HStem: -7 44<419.307 513> 634 51<94.399 314.89 414 630.844>
VStem: 312 97<51.3596 333.831>
AnchorPoint: "Bottom" 358 -15 basechar 0
AnchorPoint: "Top" 358 699 basechar 0
LayerCount: 2
Fore
SplineSet
125 685 m 4
 250.15790027 683.585786438 375.31580054 682.171572875 500.827254201 682.171572875 c 7
 552.81580054 682.171572875 604.865007051 682.414213562 657 683 c 0
 673 683 688 689 695 698 c 1
 720 682 l 1
 706 646 689 606 687 559 c 1
 650 565 l 1
 656 595 l 0
 667 644 471 633 414 633 c 1
 409.816653826 510.056331081 408.063916709 389.049553755 408.063916709 265.927993012 c 3
 408.063916709 212.461403074 408.394448725 158.596006255 409 104 c 0
 410 41 413 47 520 37 c 1
 513 -7 l 1
 474.745360611 -1.66214334103 425.212355377 0.945200232948 374.874776298 0.945200232948 c 3
 312.048779143 0.945200232948 247.969467552 -3.11635527979 203 -11 c 1
 195 37 l 1
 312 47.4345703125 311 57 312 77 c 0
 315.541381265 148.546391976 319.779505934 308.040308735 319.779505934 439.509740173 c 3
 319.779505934 530.782942065 317.736777048 608.548654171 312 634 c 5
 248 635 186 633 124 628 c 4
 77 624 74 628 37 554 c 5
 -2 573 l 5
 18 612 47 691 58 713 c 5
 81 695 103 685 125 685 c 4
EndSplineSet
Validated: 33
Position2: "cpsp-1" dx=0 dy=0 dh=50 dv=100
Substitution2: "c2pc-1" t.pcap
Substitution2: "c2sc-1" t.smcp
EndChar
StartChar: U
Encoding: 85 85 53
GlifName: U_
Width: 845
Flags: HW
HStem: -15 54<319.139 565.9> 650 40<32.125 112.17 222.669 307.778 745.959 819.369> 672 20G<588 604.309>
VStem: 117 87<141.83 548.181> 122 90<338.372 637.527> 682 55<147.927 617.398> 683 61<264.848 645.847>
AnchorPoint: "Horn" 740 544 basechar 0
AnchorPoint: "Bottom" 428 -15 basechar 0
AnchorPoint: "Ogonek" 498 11 basechar 0
AnchorPoint: "Top" 449 699 basechar 0
LayerCount: 2
Fore
SplineSet
33 690 m 1xc8
 63 686.5 111.25 684.75 162.125 684.75 c 3
 213 684.75 266.5 686.5 307 690 c 1
 311 654 l 1
 243 648 213 646 212 591 c 0xc8
 212 583.9375 204 286.287109375 204 254 c 0
 204 195 216 144 248 108 c 0
 286 63.4150390625 353 39 461 39 c 3
 487 39 570 40.0712890625 627 99 c 0
 664 135 677 180 682 256 c 0xd4
 688 352.368164062 688 510.6171875 683 608 c 0
 681 654 653 651 587 652 c 1
 589 692 l 1xa2
 619.618164062 687.877929688 683.174804688 684.796875 736.796875 684.796875 c 3
 774.241210938 684.796875 806.841796875 686.299804688 820 690 c 1
 823 651 l 1
 774 650 746 657 744 618 c 0xc2
 743 606.846679688 742 487.203125 737 254 c 0
 736 177 712 116 670 73 c 0
 616 13.2861328125 531 -15 420 -15 c 3
 307 -15 228 12.4443359375 180 61 c 0
 136 103 117 162 117 235 c 0xd4
 117 265.252929688 122 578.874023438 122 594 c 0
 122 638 110 641 28 650 c 1
 33 690 l 1xc8
EndSplineSet
Position2: "cpsp-1" dx=0 dy=0 dh=50 dv=100
Substitution2: "c2pc-1" u.pcap
Substitution2: "c2sc-1" u.smcp
EndChar
StartChar: V
Encoding: 86 86 54
GlifName: V_
Width: 853
Flags: HW
HStem: 658 38<16.0789 79.9741> 658 36<194.341 275 602.689 675.375 771.391 834.825>
VStem: 403 46<-27 41.9461>
AnchorPoint: "Bottom" 423 -15 basechar 0
AnchorPoint: "Top" 437 704 basechar 0
LayerCount: 2
Fore
SplineSet
275 694 m 1x60
 275 658 l 1
 247 659 227 658 215 656 c 0
 184 650 192 634 198 620 c 2
 454 102 l 1
 673 613 l 2
 680 631 679 654 653 656 c 0
 647 656 605 658 600 658 c 1
 601 698 l 1
 636.908203125 690.913085938 680.852539062 687.84375 722.180664062 687.84375 c 3
 768.32421875 687.84375 811.206054688 691.669921875 836 698 c 1
 841 656 l 1
 802 655 766 653 733 599 c 0
 711 562.866210938 546 221.599609375 475 60 c 0
 464 34 453 0 449 -27 c 1
 403 -27 l 1
 402 0 390 21 375 57 c 0
 328 169.8125 213 405.51171875 101 612 c 0
 79 653 59 651 12 658 c 1x60
 17 696 l 1xa0
 62.0771484375 688.555664062 94.83984375 686.072265625 125.685546875 686.072265625 c 3
 169.428710938 686.072265625 209.317382812 691.067382812 275 694 c 1x60
EndSplineSet
Position2: "cpsp-1" dx=0 dy=0 dh=50 dv=100
Substitution2: "c2pc-1" v.pcap
Substitution2: "c2sc-1" v.smcp
EndChar
StartChar: W
Encoding: 87 87 55
GlifName: W_
Width: 1138
Flags: HW
HStem: 656 26.4375<597.128 680.836> 659 34<234.509 292.647 409.688 465.319 596.967 683.8 1102.15 1128.17>
VStem: 382 37<-21 34.9281> 763 36<-15 34.8204>
AnchorPoint: "Bottom" 580 -15 basechar 0
AnchorPoint: "Top" 585 699 basechar 0
LayerCount: 2
Fore
SplineSet
1127 693 m 1x70
 1133 657 l 1
 1057 628.323242188 1052 600.708007812 1006 486 c 0
 877 176 836 81 820 42 c 0
 810 19 801 7 799 -15 c 1
 763 -16 l 1
 762 2 759 19 743 58 c 0
 691.33984375 177 640.672851562 296 591 415 c 1
 483.323242188 151 446.088867188 60 432 23 c 0
 425 3 420 -7 419 -21 c 1
 382 -21 l 1
 378 -1 373 24 346 89 c 0
 243 345.071289062 138 550.932617188 129 567 c 0
 123 579.173828125 118 588.913085938 95 623 c 0
 69 654 39 652 11 654 c 1
 17 695 l 1
 48 686 99 682 151 682 c 3
 203 682 256.5 686 291 693 c 1
 299 659 l 1x70
 241 659 218 638.53125 218 600 c 0
 218 588 221 576 226 565 c 10
 427 107 l 1
 569 461 l 1
 516.428710938 586.375 482.0546875 623.561523438 477 631 c 1
 459 656 430 656 405 661 c 1
 411 690 l 1
 444.916992188 684.958007812 487 682 531 682 c 3xb0
 583 682 636.958007812 685.958007812 683 693 c 1x70
 687 658 l 1
 681 658 635 657 625 656 c 0xb0
 588 651 589 627 596 609 c 2
 806 107 l 1
 865 250 918 390 961 515 c 0
 991 607.514648438 979 663.455078125 871 657 c 1
 871 688 l 1
 897.424804688 684.105859374 934 682 975 682 c 3
 1022 682 1075.50488281 684.739257812 1127 693 c 1x70
EndSplineSet
Position2: "cpsp-1" dx=0 dy=0 dh=50 dv=100
Substitution2: "c2pc-1" w.pcap
Substitution2: "c2sc-1" w.smcp
EndChar
StartChar: X
Encoding: 88 88 56
GlifName: X_
Width: 808
Flags: HW
HStem: -6 31<44.6774 88.5845 222.476 289> -2 38<711.729 769.289> 653 39<241.532 301> 659 26<39 80.2795 473 511.234 691.996 728.194>
AnchorPoint: "Bottom" 397 -15 basechar 0
AnchorPoint: "Top" 390 699 basechar 0
LayerCount: 2
Fore
SplineSet
39 685 m 1x90
 83.99609375 682.979492188 117.556640625 681.795898438 147.969726562 681.795898438 c 3
 195.961914062 681.795898438 236.1171875 684.743164062 301 692 c 1
 302 658 l 1
 296 656 278 655 263 653 c 0
 238 648 236.559570312 629.696289062 247 615 c 2
 404 394 l 1
 460.1953125 471.537109375 505.984375 542.701171875 532 582 c 0
 546 602 557 631 524 643 c 0
 518 645 474 654 468 656 c 1
 473 686 l 1
 513.5859375 683.583984375 554.872070312 681.869140625 596.181640625 681.869140625 c 3
 640.370117188 681.869140625 684.5859375 683.83203125 728 689 c 1
 730 654 l 1
 712 652 664 646 620 603 c 0
 603.572265625 586.200195312 589.198242188 567.299804688 428 372 c 1
 483 307.396484375 649 112.559570312 669 90 c 0
 706 49 725 46 775 36 c 1
 768 -2 l 1x60
 739.157226562 3.8525390625 698.607421875 6.5595703125 655.845703125 6.5595703125 c 3
 596.309570312 6.5595703125 532.485351562 1.3115234375 490 -8 c 1
 487 25 l 1
 498 31 524 35 536 39 c 0
 572 51 558 80 543 101 c 0
 511 148.5859375 461 223.068359375 388 311 c 1
 319 222.696289062 263 137.473632812 227 81 c 0
 216 64 209 36 241 31 c 0
 255 29 279 26 289 25 c 1
 289 -6 l 1
 241.66015625 -2.912109375 200.673828125 -0.619140625 160.59375 -0.619140625 c 3
 122.782226562 -0.619140625 85.7763671875 -2.66015625 45 -8 c 1
 43 25 l 1
 53 27 105 38 147 79 c 0
 163 94.357421875 174 108.690429688 361 337 c 1
 153 588.328125 143 600.638671875 128 615 c 0
 92 648 59 655 38 659 c 1
 39 685 l 1x90
EndSplineSet
Position2: "cpsp-1" dx=0 dy=0 dh=50 dv=100
Substitution2: "c2pc-1" x.pcap
Substitution2: "c2sc-1" x.smcp
EndChar
StartChar: Y
Encoding: 89 89 57
GlifName: Y_
Width: 755
Flags: HW
HStem: -11 42<257 330.923 466.301 555.814> 649 35.2148<222.294 277.95 491 493 674 676.328> 651 39<19.4737 89.3442 247.708 279.641 664.659 739>
VStem: 363 78<94.0509 324.999>
AnchorPoint: "Bottom" 397 -15 basechar 0
AnchorPoint: "Top" 397 699 basechar 0
LayerCount: 2
Fore
SplineSet
284 651 m 1xb0
 284 651 262 649 247 649 c 0xd0
 229 649 214 639 225 622 c 0
 316 476.708007812 406 373.2265625 411 368 c 1
 479 478.5 544 584.791015625 546 589 c 0
 558 609 564 633 538 643 c 0
 526 648 507 650 491 652 c 1
 493 691 l 1
 516.158203125 687.34375 578.314453125 682.572265625 638.046875 682.572265625 c 3
 676.328125 682.572265625 713.61328125 684.532226562 739 690 c 1xb0
 739 647 l 1
 674 645 649 627 621 600 c 0
 557 534.271484375 490 420.551757812 441 335 c 1
 440 285 436 233 454 80 c 0
 459 41 479 36 560 32 c 1
 555 -11 l 1
 500.359375 -3.5732421875 450.296875 0.7705078125 400.099609375 0.7705078125 c 3
 354.366210938 0.7705078125 308.520507812 -2.8349609375 259 -11 c 1
 247 31 l 1
 326 43.8798828125 363 55.83984375 363 100 c 2
 359 298 l 1
 352 309.404296875 251 469.0703125 124 608 c 0
 97 636 75 636 16 652 c 1
 20 692 l 1
 55.171875 688.297851562 123.467773438 684.21484375 184.244140625 684.21484375 c 3xd0
 221.96484375 684.21484375 256.788085938 685.787109375 279 690 c 1
 284 651 l 1xb0
EndSplineSet
Position2: "cpsp-1" dx=0 dy=0 dh=50 dv=100
Substitution2: "c2pc-1" y.pcap
Substitution2: "c2sc-1" y.smcp
EndChar
StartChar: Z
Encoding: 90 90 58
GlifName: Z_
Width: 734
Flags: HW
HStem: 1 40<180 572.424> 642 43<110.808 552>
AnchorPoint: "Bottom" 369 -15 basechar 0
AnchorPoint: "Top" 378 699 basechar 0
LayerCount: 2
Fore
SplineSet
24 563 m 1
 71 672 61 709 88 719 c 1
 108 694.189453125 144 685.918945312 156 685 c 0
 188.526367188 683.471679688 545.125 681.942382812 652 683.533203125 c 0
 663.415039062 683.935546875 671.982421875 684.420898438 677 685 c 1
 689 663 l 1
 669.573242188 640.099609375 l 0
 180 38 l 1
 256 38 333 36 409 36 c 0
 565 36 658 77 683 152 c 1
 710 138 l 9
 673 47 661 11 636 -30 c 1
 615 -19 599 -6 515 -5 c 0
 364 -3 120 5 41 -2 c 1
 31 25 l 1
 70 46 102.676757812 82.4267578125 128 113 c 0
 269 285.199819279 413 462.650345726 548 638 c 0
 552 642 l 1
 188 642 l 2
 131 642 90 622.393554688 52 545 c 1
 24 563 l 1
EndSplineSet
Position2: "cpsp-1" dx=0 dy=0 dh=50 dv=100
Substitution2: "c2pc-1" z.pcap
Substitution2: "c2sc-1" z.smcp
EndChar
StartChar: bracketleft
Encoding: 91 91 85
GlifName: bracketleft
Width: 246
Flags: HW
HStem: -230 33<113.222 219> 685 32<123.8 219>
VStem: 37 46<-188 675>
LayerCount: 2
Fore
SplineSet
83 675 m 1
 83 -188 l 1
 219 -197 l 1
 219 -230 l 1
 37 -230 l 1
 37 717 l 1
 219 717 l 1
 219 685 l 1
 83 675 l 1
EndSplineSet
Position2: "cpsp-1" dx=0 dy=0 dh=50 dv=100
Position2: "'case' vertical ajustments for all-caps-1" dx=0 dy=90 dh=0 dv=0
EndChar
StartChar: asciicircum
Encoding: 94 94 872
GlifName: asciicircum
Width: 463
VWidth: 1159
Flags: W
HStem: 384.451 311.052
VStem: 79.749 303.814
LayerCount: 2
Fore
SplineSet
383.563476562 401.09765625 m 1
 356.88671875 384.451171875 l 1
 231.65625 599.27734375 l 1
 106.42578125 384.451171875 l 1
 79.7490234375 401.09765625 l 1
 210.166992188 695.502929688 l 1
 253.145507812 695.502929688 l 1
 383.563476562 401.09765625 l 1
EndSplineSet
Validated: 1
EndChar
StartChar: a
Encoding: 97 97 0
GlifName: a
Width: 413
VWidth: 1159
Flags: HMW
HStem: -15 43<75 181> 161 32<153 246> 364 52<128 220>
VStem: 33 64<34 133> 247 65<60 164 191 321>
AnchorPoint: "Bottom" 203 -15 basechar 0
AnchorPoint: "Ogonek" 354 18 basechar 0
AnchorPoint: "Top" 201 465 basechar 0
LayerCount: 2
Fore
SplineSet
254 167 m 1x01d0
 247 168 241 168 234 168 c 3
 209 168 171.077136087 162.843775526 159 157 c 0
 128 142 103 125 103 92 c 3
 103 61.966796875 121 34 153 34 c 3
 179 34 220 54 252 72 c 1
 251 84 251 100 251 117 c 3
 251 137 253 152 254 167 c 1x01d0
219 422 m 3
 240 422 305.870253473 374.918173114 316 359 c 0
 323 348 325 324 325 310 c 3
 325 244 320 181 320 117 c 3
 320 97 322.451212183 76.153333138 326 65 c 0
 333 43 344 42 348 42 c 3
 358 42 378 50 393 59 c 1
 406 31 l 1
 367 15 307 -11 297 -11 c 3x05b0
 287 -11 264 3 254 49 c 1
 202 18 159 -9 102 -9 c 3
 50 -9 41 27 41 71 c 3x03d0
 41 94 42.7150180244 117.66837539 48 130 c 0
 54 144 58 146 68 151 c 0
 130 182 182 190 255 200 c 1
 256 231 257 279 257 279 c 3
 257 305 252.770978795 316.843531807 246 327 c 0
 236 342 195 370 167 370 c 3
 137 370 131 360 131 342 c 3
 131 333 137 320 138 315 c 1
 63 285 l 1
 59 295 54 315 54 325 c 3x03b0
 54 339 61.6477211573 352.981194233 81 366 c 0
 136 403 204 422 219 422 c 3
EndSplineSet
Validated: 1
Substitution2: "case-1" A
Substitution2: "pcap-1" a.pcap
Substitution2: "smcp-1" a.smcp
EndChar
StartChar: b
Encoding: 98 98 1
GlifName: b
Width: 507
Flags: HMW
HStem: -9 44<177 317> 369 43<190 315>
VStem: 72 65<68 347 368 624> 398 69<122 283>
AnchorPoint: "Bottom" 248 -15 basechar 0
AnchorPoint: "Top" 104 749 basechar 0
LayerCount: 2
Fore
SplineSet
137 332 m 9
 136 241 135 189 135 98 c 3
 135 92 139 85 146 79 c 0
 177 52 219 36 260 36 c 3
 337 36 398 96 398 180 c 3
 398 270 344 369 243 369 c 3
 199 369 147 342 137 332 c 9
3 683 m 5
 40 690 96 718 146 759 c 5
 167 743 l 5
 157 717 149 687 148 667 c 4
 143 599 137 484 137 368 c 5
 170 382 226 412 286 412 c 3
 391 412 467 315 467 223 c 3
 467 94 351 -9 210 -9 c 3
 148 -9 141 15 108 15 c 3
 85 15 70 -3 63 -10 c 1
 45 2 l 1
 47 8 51 22 55 31 c 0
 61 49 67 69 68 145 c 0
 70 288 72 367 72 510 c 7
 72 570 72 607 68 627 c 4
 63 654 56 656 38 656 c 7
 28 656 17 654 8 654 c 5
 3 683 l 5
EndSplineSet
Substitution2: "case-1" B
Substitution2: "pcap-1" b.pcap
Substitution2: "smcp-1" b.smcp
EndChar
StartChar: c
Encoding: 99 99 2
GlifName: c
Width: 421
Flags: HMW
HStem: -15 52<185 333> 357 60<169 308>
VStem: 34 71<119 282>
AnchorPoint: "Bottom" 228 -15 basechar 0
AnchorPoint: "Top" 231 465 basechar 0
LayerCount: 2
Fore
SplineSet
338 313 m 1
 300 333 248 353 214 353 c 3
 144 353 106 300.154929577 106 219 c 3
 106 113 178 40 274 40 c 3
 313 40 346 56 369 72 c 1
 385 46 l 1
 351 19 292 -11 232 -11 c 3
 183 -11 34 7 34 182 c 3
 34 307.648535565 145 413 267 413 c 3
 315 413 364 393 395 370 c 1
 394 343 393 345 338 313 c 1
EndSplineSet
Substitution2: "case-1" C
Substitution2: "pcap-1" c.pcap
Substitution2: "smcp-1" c.smcp
EndChar
StartChar: d
Encoding: 100 100 3
GlifName: d
Width: 511
Flags: HMW
HStem: 451 102<-225.927 -142.073>
VStem: -236 104<460.954 543.046>
AnchorPoint: "Bottom" 224 -15 basechar 0
AnchorPoint: "Top" 390 734 basechar 0
AnchorPoint: "TopRight" 503.5 581 basechar 0
LayerCount: 2
Fore
SplineSet
361 53 m 1
 317 23 260 -5 197 -5 c 3
 97 -5 34 79 34 172 c 3
 34 252 80 321 135 359 c 0
 181 390 237 405 267 405 c 3
 292 405 349 388 363 386 c 1
 363 504 362 563 361 626 c 0
 361 642 354 656 337 656 c 3
 331 656 306 650 296 649 c 1
 288 681 l 1
 340 692 399 720 442 754 c 1
 462 738 l 1
 456 724 449 697 448 686 c 0
 428 531 427 354 427 185 c 3
 427 133 428 80 435 32 c 0
 437 18 448 22 449 22 c 0
 463 26 490 34 502 38 c 1
 511 11 l 1
 458 -9 395 -32 381 -32 c 3
 374 -32 365 -30 363 -15 c 0
 361 8 361 49 361 53 c 1
228 359 m 3
 206 359 175 345 155 333 c 0
 123 312 98 278 98 226 c 3
 98 136 154 44 256 44 c 3
 297 44 333 60 358 80 c 1
 359 154 362 231 362 306 c 0
 362 337 336 340 310 346 c 0
 284 352 238 359 228 359 c 3
EndSplineSet
Substitution2: "case-1" D
Substitution2: "pcap-1" d.pcap
Substitution2: "smcp-1" d.smcp
EndChar
StartChar: e
Encoding: 101 101 4
GlifName: e
Width: 409
Flags: HMW
HStem: 425 168
VStem: 53 185
AnchorPoint: "Bottom" 213 -15 basechar 0
AnchorPoint: "Ogonek" 306.65 23 basechar 0
AnchorPoint: "Top" 217 465 basechar 0
LayerCount: 2
Fore
SplineSet
213 415 m 3
 271 415 331.644432889 369.853361067 352 321 c 0
 357 309 372 301 383 300 c 1
 383 276 l 1
 298 261 194 239 112 219 c 1
 112 213 111 206 111 200 c 3
 111 86 181 40 240 40 c 3
 287 40 326 62 354 85 c 1
 375 58 l 1
 333 25 273 -10 204 -10 c 3
 97 -10 36 73 36 180 c 3
 36 355 179 415 213 415 c 3
199 368 m 3
 145 368 118 300.796610169 114 246 c 1
 285 282 l 0
 293 283 l 1
 283 322.87654321 241 368 199 368 c 3
EndSplineSet
Substitution2: "case-1" E
Substitution2: "pcap-1" e.pcap
Substitution2: "smcp-1" e.smcp
EndChar
StartChar: f
Encoding: 102 102 5
GlifName: f
Width: 357
VWidth: 1159
Flags: HMW
HStem: -6 37<34 97 191 283> 355 47<39 113 187 338> 701 55<268 384>
VStem: 114 70<42 369 405 614>
AnchorPoint: "Bottom" 156 -15 basechar 0
AnchorPoint: "Top" 262 748 basechar 0
LayerCount: 2
Fore
SplineSet
359 756 m 7
 391 756 441 745 466 723 c 5
 465 696 466 696 417 659 c 5
 378 677 347 701 309 701 c 7
 206 701 201 609 191 498 c 4
 190 488 188 435 187 397 c 5
 239 399 286 399 338 401 c 5
 338 355 l 5
 286 357 238 358 186 360 c 5
 185 330 185 305 185 293 c 7
 185 211 186 134 191 54 c 4
 192 39 198 34 214 33 c 4
 239 32 262 32 287 31 c 5
 284 -6 l 5
 242 -1 182 1 140 1 c 7
 110 1 64 -2 34 -6 c 5
 33 30 l 5
 44 31 58 31 69 33 c 4
 100 40 104 53 106 81 c 4
 111 133 114 201 114 266 c 7
 114 286 113 323 113 360 c 5
 88 359 64 356 39 355 c 5
 39 401 l 5
 64 400 88 398 113 397 c 5
 113 436 113 481 113 493 c 7
 113 601 156 657 224 704 c 4
 263 731 300 756 359 756 c 7
EndSplineSet
Validated: 1
Substitution2: "salt-1" f.alt
Substitution2: "case-1" F
Substitution2: "pcap-1" f.pcap
Substitution2: "smcp-1" f.smcp
EndChar
StartChar: g
Encoding: 103 103 6
GlifName: g
Width: 475
Flags: HMW
HStem: -335 65<94 297> -106 69<153 388> 362 42<153 268>
VStem: 45 68<155 306> 321 73<144 309> 404 48<-213 -122>
AnchorPoint: "Bottom" 225 -318 basechar 0
AnchorPoint: "Top" 224 465 basechar 0
LayerCount: 2
Fore
SplineSet
149 -1 m 3
 149 -23 186 -31 219 -31 c 3
 250 -31 277 -25 308 -25 c 3
 408 -25 450 -88 450 -143 c 3
 450 -271 268 -335 173 -335 c 3
 62 -335 20 -267 20 -218 c 3
 20 -135.514705882 103 -85.3970588235 117 -76 c 1
 80 -48 67 -25 62 6 c 1
 93 28.4 147 50.8 181 62 c 1
 105 77 45 138 45 227 c 3
 45 351 160 415 233 415 c 3
 272 415 310 402 341 377 c 1
 367 383 390 387 420 387 c 3
 435 387 454 384 460 380 c 1
 442 321 l 1
 422 330 403 335 383 335 c 0
 378 335 374 335 368 334 c 1
 383 306 395 279 395 240 c 3
 395 139 307 92 238 62 c 0
 156 24.4210526316 149 18.8947368421 149 -1 c 3
204 374 m 3
 142 374 112 323 112 258 c 3
 112 163 170 118 241 93 c 1
 288 114 321 152 321 217 c 3
 321 288 290 374 204 374 c 3
66 -191 m 3
 66 -259 155 -269 208 -269 c 3
 242 -269 404 -238.206185567 404 -166 c 3
 404 -117 361 -95 309 -95 c 3
 281 -95 252 -100 224 -100 c 3
 197 -100 169 -98 153 -94 c 1
 88 -121.714285714 66 -156.89010989 66 -191 c 3
EndSplineSet
Substitution2: "case-1" G
Substitution2: "pcap-1" g.pcap
Substitution2: "smcp-1" g.smcp
EndChar
StartChar: h
Encoding: 104 104 7
GlifName: h
Width: 531
Flags: HMW
HStem: -7 33<21 68 169 229 322 368 450 517> 353 50<219 349>
VStem: 92 70<42 333 352 611> 379 68<33 322>
AnchorPoint: "Bottom" 275 -15 basechar 0
AnchorPoint: "Top" 120 733 basechar 0
LayerCount: 2
Fore
SplineSet
161 330 m 1
 159 290.477272727 157 239.204545455 157 189 c 3
 157 130 159.174662365 75.1900322616 162 54 c 0
 164 39 183.085896873 34.4253562504 194 32 c 0
 203 30 222 28 232 27 c 1
 228 -7 l 1
 189 -1 159 4 117 4 c 3
 87 4 51 -1 21 -5 c 1
 18 28 l 1
 29 30 35.1817100136 30.1778373948 46 33 c 0
 69 39 81.3132247115 48.0575369992 84 76 c 0
 89 128 92 209 92 274 c 3
 92 511 90.315871388 604.946057792 89 626 c 0
 88 642 82 656 65 656 c 3
 59 656 33 650 23 649 c 1
 15 681 l 1
 67 692 127 720 170 754 c 1
 189 738 l 1
 183 724 176.623969079 696.925324912 175 686 c 0
 165 617.886227545 162 471.928143713 161 361 c 1
 214 394.48 288 415 330 415 c 3
 403 415 440.73192969 367.108393691 444 301 c 0
 445 280.771428571 446 234.695238095 446 183 c 3
 446 126 445 71 445 54 c 0
 445 39 463.085896873 34.4253562504 474 32 c 0
 483 30 510 29 520 27 c 1
 515 -7 l 1
 476 2 450 4 408 4 c 3
 378 4 349 -1 323 -7 c 1
 320 26 l 1
 331 28 336.181710014 28.1778373948 347 31 c 0
 370 37 372.518179079 48.1454326353 376 76 c 0
 378 92 379 128 379 143 c 3
 379 191.46875 377.600156558 264.399147626 374 284 c 0
 365 333 343 366 288 366 c 3
 240 366 194 350.25 161 330 c 1
EndSplineSet
Substitution2: "case-1" H
Substitution2: "pcap-1" h.pcap
Substitution2: "smcp-1" h.smcp
EndChar
StartChar: k
Encoding: 107 107 10
GlifName: k
Width: 486
UnlinkRmOvrlpSave: 1
Flags: HMW
HStem: -6 33<17 67 297 341 441 484> 371 32<251 284 383 449>
VStem: 88 63<55 214 237 488>
DStem2: 215 255 161 220 0.728431 -0.685119<0 239.996>
AnchorPoint: "Bottom" 242 -15 basechar 0
AnchorPoint: "Top" 123 739 basechar 0
LayerCount: 2
Fore
SplineSet
150 237 m 1
 184 263.373626374 235.495901915 300.819852569 266 333 c 0
 273 340 284 353 284 360 c 3
 284 378 260 377 250 379 c 1
 252 406 l 1
 278 404 313 404 340 404 c 3
 373 404 416 404 448 408 c 1
 450 376 l 1
 387 369 349.4171831 346.829560732 316 324 c 2
 215 255 l 1
 286 185.660098522 356 118.359605911 429 48 c 1
 445 34.25 473 26.9166666667 487 26 c 1
 484 -8 l 1
 450 -3.2 432 0 390 0 c 3
 360 0 328 -5.44444444444 298 -7 c 1
 295 26 l 1
 331 30 331 33.2 342 34 c 1
 290 89.1868131868 215 166.857142857 161 220 c 1
 152 214 l 1
 152 144.3 154.263646381 76.6882401374 158 50 c 0
 160 35.7142857143 168.216496592 32.8756009088 179 30 c 0
 189 27.3333333333 199 26.6666666667 213 26 c 1
 208 -8 l 1
 174 -3.63636363636 155 0 113 0 c 3
 83 0 47 -5.44444444444 17 -7 c 1
 15 26 l 1
 26 27 37.0062667276 28.968917707 47 31 c 0
 70 35.6744186047 76.4878317809 45.3456414408 79 72 c 0
 84 125.050505051 88 207.686868687 88 274 c 3
 88 534 86 594 84 626 c 0
 83 642 77 656 60 656 c 3
 54 656 29 650 19 649 c 1
 11 681 l 1
 63 692 122 720 165 754 c 1
 185 738 l 1
 179 724 172.459796002 696.948470013 171 686 c 0
 161 611 150 361 150 237 c 1
EndSplineSet
Substitution2: "pcap-1" k.pcap
Substitution2: "smcp-1" k.smcp
EndChar
StartChar: l
Encoding: 108 108 11
GlifName: l
Width: 248
Flags: HMW
HStem: -7 33<9 67 174 243>
VStem: 91 70<57 558>
AnchorPoint: "Bottom" 119 -15 basechar 0
AnchorPoint: "TopRight" 242 581 basechar 0
AnchorPoint: "Top" 121 734 basechar 0
LayerCount: 2
Fore
SplineSet
160 300 m 7
 160 218 160 91 166 54 c 4
 168 39 187 35 198 33 c 4
 214 29 232 28 246 27 c 5
 241 -7 l 5
 202 -1 158 4 116 4 c 7
 86 4 40 -1 10 -5 c 5
 8 28 l 5
 19 29 34 31 45 33 c 4
 68 39 81 48 83 76 c 4
 88 128 91 209 91 274 c 7
 91 527 90 603 88 626 c 4
 87 642 81 656 64 656 c 7
 58 656 32 650 22 649 c 5
 14 681 l 5
 66 692 126 720 169 754 c 5
 188 738 l 5
 182 724 176 697 175 686 c 4
 165 611 160 424 160 300 c 7
EndSplineSet
Substitution2: "case-1" L
Substitution2: "pcap-1" l.pcap
Substitution2: "smcp-1" l.smcp
EndChar
StartChar: m
Encoding: 109 109 12
GlifName: m
Width: 791
Flags: HMW
HStem: -7 33<21 68 170 229 296 348 440 492 572 619 711 776> 348 37<290 599>
VStem: 95 66<44 317 330 333> 367 68<36 321> 637 68<36 306>
AnchorPoint: "Bottom" 390 -15 basechar 0
AnchorPoint: "Top" 407 465 basechar 0
LayerCount: 2
Fore
SplineSet
704 161 m 3
 704 112.102803738 707 67.2803738318 707 52 c 0
 707 37 720.085896873 32.4253562504 731 30 c 0
 740 28 770 27 780 25 c 1
 775 -9 l 1
 736 -1.63636363636 709 0 667 0 c 3
 637 0 599 -3.63636363636 573 -8 c 1
 569 25 l 1
 580 27 589.770914699 26.6973278527 601 30 c 0
 618 35 626.491767923 46.9341433822 630 75 c 0
 632 91.2388059701 637 127.776119403 637 143 c 3
 637 193.458715596 634.975527698 247.327255972 631 268 c 0
 621 320 603 353 539 353 c 3
 506 353 466 341.576923077 434 326 c 1
 435 319 435 312 435 303 c 3
 435 274.428571429 434 224.142857143 434 183 c 3
 434 128 437 71 437 54 c 0
 437 39 450.085896873 34.4253562504 461 32 c 0
 470 30 486 29 496 27 c 1
 491 -7 l 1
 452 -1.27272727273 438 0 396 0 c 3
 366 0 324 -3.18181818182 298 -7 c 1
 294 26 l 1
 305 28 319.770914699 27.6973278527 331 31 c 0
 348 36 355.491767923 47.9341433822 359 76 c 0
 361 92 367 128 367 143 c 3
 367 192.15625 362.568812844 265.963259816 360 286 c 0
 355 325 339 363 290 363 c 3
 242 363 203 339 170 319 c 1
 168 228.150214592 161 105.935622318 161 67 c 3
 161 37.7692307692 173.726915786 32.6041038603 194 29 c 0
 203 27.4 222 25.8 232 25 c 1
 228 -9 l 1
 189 -4.09090909091 159 0 117 0 c 3
 87 0 51 -3.88888888889 21 -7 c 1
 18 26 l 1
 29 27.6 34.9533430397 28.6495775839 46 30 c 0
 69 32.8116846285 81.2219470871 45.5793329638 87 72 c 0
 94 104.008130081 95 165.959349593 95 199 c 3
 95 219 91.2402437197 287.787631367 86 308 c 0
 79 335 72 336 54 336 c 3
 44 336 41 335 32 335 c 1
 30 364 l 1
 67 371 104 375 154 416 c 1
 175 401 l 1
 170 386.802816901 167 366.295774648 167 345 c 1
 215 376 275 415 335 415 c 3
 388 415 414 381 428 348 c 1
 467 370.423076923 524 401 599 401 c 3
 675 401 706 356 706 285 c 3
 706 247.111111111 704 203.481481481 704 161 c 3
EndSplineSet
Substitution2: "smcp-1" m.smcp
Substitution2: "pcap-1" m.pcap
EndChar
StartChar: n
Encoding: 110 110 13
GlifName: n
Width: 526
Flags: HMW
HStem: -7 33<21 68 170 229 308 360 454 512> 338 60<237 357>
VStem: 95 66<44 316 330 333> 379 68<36 316>
AnchorPoint: "Bottom" 269 -15 basechar 0
AnchorPoint: "Top" 272 465 basechar 0
LayerCount: 2
Fore
SplineSet
86 308 m 0
 77 334 72 336 54 336 c 3
 44 336 41 335 32 335 c 1
 30 364 l 1
 67 371 104 375 154 416 c 1
 175 401 l 1
 170 387.056338028 167 366.915492958 167 346 c 1
 215 377 267 415 330 415 c 3
 403 415 448 375 448 304 c 3
 448 265.971428571 446 224.485714286 446 183 c 3
 446 126 446.737721518 70.967088615 449 54 c 0
 451 39 463.085896873 34.4253562504 474 32 c 0
 483 30 505 29 515 27 c 1
 510 -7 l 1
 471 2 450 4 408 4 c 3
 378 4 335 -1 309 -7 c 1
 305 26 l 1
 316 28 331.770914699 27.6973278528 343 31 c 0
 360 36 369.491767923 47.9341433822 373 76 c 0
 375 92 379 128 379 143 c 3
 379 192.5 376.161935969 266.771303188 374 287 c 0
 369 328.910447761 348 359 293 359 c 3
 245 359 203 345 170 324 c 1
 168 234.329113924 161 109.430379747 161 71 c 3
 161 41 173.875388203 36.472135955 194 32 c 0
 203 30 222 28 232 27 c 1
 228 -7 l 1
 189 -1 159 4 117 4 c 3
 87 4 51 -1 21 -5 c 1
 18 28 l 1
 29 30 35.1817100136 30.1778373948 46 33 c 0
 69 39 80.9078853108 49.0206349479 87 76 c 0
 94 107 95 167 95 199 c 3
 95 219 92.9313485795 287.976104104 86 308 c 0
EndSplineSet
Substitution2: "case-1" N
Substitution2: "pcap-1" n.pcap
Substitution2: "smcp-1" n.smcp
EndChar
StartChar: o
Encoding: 111 111 14
GlifName: o
Width: 505
Flags: HW
HStem: -11 39<199.926 327.747> 374 45<168.903 305.133>
VStem: 32 76<130.211 291.037> 395 78<107.641 276.826>
AnchorPoint: "Middle" 256 206 basechar 0
AnchorPoint: "Bottom" 250 -15 basechar 0
AnchorPoint: "Ogonek" 342 19.6582 basechar 0
AnchorPoint: "Horn" 421.5 341.8 basechar 0
AnchorPoint: "Top" 252 465 basechar 0
LayerCount: 2
Fore
SplineSet
257 419 m 3
 392 419 473 311 473 205 c 3
 473 78 379 -11 256 -11 c 3
 131 -11 32 71 32 194 c 3
 32 351 167 419 257 419 c 3
236 374 m 3
 156 374 108 304 108 227 c 3
 108 124 178 28 265 28 c 3
 347 28 395 102 395 181 c 3
 395 302 309 374 236 374 c 3
EndSplineSet
Substitution2: "case-1" O
Substitution2: "pcap-1" o.pcap
Substitution2: "smcp-1" o.smcp
EndChar
StartChar: p
Encoding: 112 112 15
GlifName: p
Width: 513
Flags: HMW
HStem: -342 34<164.753 242> -10 41<180.88 340.791> 355 47<211.583 333.731>
VStem: 89 73<-208.562 7 49.7914 263.889> 415 66<116.734 264.787>
AnchorPoint: "Bottom" 286 -15 basechar 0
AnchorPoint: "Top" 251 465 basechar 0
LayerCount: 2
Fore
SplineSet
89 31 m 3
 89 153 85 273 81 293 c 0
 76 320 62 331 48 331 c 3
 38 331 15 322 6 322 c 1
 0 353 l 1
 37 360 94 385 136 424 c 1
 148 419.652173913 153 418.782608696 155 364 c 1
 198 385 258 411 308 411 c 3
 405 411 481 308.474226804 481 216 c 3
 481 78.119266055 361 -10 244 -10 c 3
 213 -10 183 -2 157 7 c 1
 157 -75 157 -247 162 -284 c 0
 164 -299 183 -303 194 -304 c 0
 210 -305 229 -307 243 -308 c 1
 242 -342 l 1
 203 -341 172 -339 130 -339 c 3
 100 -339 52 -344 22 -348 c 1
 19 -316 l 1
 30 -315 38 -313 49 -311 c 0
 72 -305 78 -294 80 -266 c 0
 85 -214 89 -122 89 31 c 3
264 364 m 3
 212 364 181 345 153 330 c 1
 155 64 l 1
 188 46 225 31 274 31 c 3
 358 31 415 88.1079136691 415 178 c 3
 415 270.497297297 355 364 264 364 c 3
EndSplineSet
Substitution2: "case-1" P
Substitution2: "pcap-1" p.pcap
Substitution2: "smcp-1" p.smcp
EndChar
StartChar: q
Encoding: 113 113 16
GlifName: q
Width: 491
Flags: HMW
HStem: -337 34<473 508> -9 43<185 329> 375 44<186 331>
VStem: 32 74<114 280> 367 66<-164 26 53 347> 438 18<411 417>
AnchorPoint: "Bottom" 218 -15 basechar 0
AnchorPoint: "Top" 272 465 basechar 0
LayerCount: 2
Fore
SplineSet
362 68 m 1
 364 157.65106383 367 208.323404255 367 297 c 3
 367 303 362.813776741 318.844582472 357 326 c 0
 331 358 284 369 243 369 c 3
 166 369 106 295.85 106 215 c 3
 106 125 159 34 260 34 c 3
 323 34 352 58 362 68 c 1
361 26 m 1
 328 12 277 -9 217 -9 c 3
 112 -9 32 89 32 181 c 3
 32 306.74789916 151 413 292 413 c 3
 369 413 369 389 400 389 c 3
 423 389 431 410 438 417 c 1
 457 406 l 1
 455 400 451.1144823 383.343446901 448 374 c 0
 442 356 438.028943398 335.998090294 433 260 c 0
 431.357498639 235.899852856 432 133.543352601 432 93 c 3
 432 -131 436.383974403 -216.071795228 441 -253 c 0
 445 -285 460.009455009 -296.900945501 471 -298 c 0
 481 -299 503 -301 510 -301 c 1
 508 -337 l 1
 485 -336 451 -335 409 -335 c 3
 379 -335 312 -340 282 -344 c 1
 280 -312 l 1
 291 -311 298.181710014 -310.822162605 309 -308 c 0
 332 -302 353.380423975 -288.051714197 357 -260 c 0
 361 -229 361 -90 361 26 c 1
EndSplineSet
Substitution2: "smcp-1" q.smcp
Substitution2: "pcap-1" q.pcap
EndChar
StartChar: r
Encoding: 114 114 17
GlifName: r
Width: 358
Flags: HMW
HStem: -5 32<30 59 177 273> 316 108<269 335>
VStem: 91 69<53 321>
AnchorPoint: "Bottom" 145 -15 basechar 0
AnchorPoint: "Top" 165.5 465 basechar 0
LayerCount: 2
Fore
SplineSet
160 196 m 0
 160 157 162 62 169 52 c 0
 179 37.3333333333 189 32.4444444444 226 30 c 0
 242 29 260 29 274 28 c 1
 273 -4 l 1
 234 -3 162 0 120 0 c 7
 90 0 60 -2.77777777778 30 -5 c 1
 28 28 l 1
 39 29 50 29 60 33 c 0
 70 37 85 48 87 76 c 0
 89 101 91 192 91 218 c 3
 91 238 89 279 87 301 c 0
 85 318 76 338 62 338 c 3
 52 338 36 331 27 331 c 1
 21 360 l 1
 58 367 111 398 153 437 c 1
 163 431 168 431 168 417 c 3
 168 406 166 374 166 336 c 1
 168 342 283 422 294 423 c 1
 315 423 349 395 349 368 c 3
 349 337 320 316 281 316 c 1
 275 343 262 348 247 348 c 3
 229 348 167 320 165 293 c 0
 161 256 160 213 160 196 c 0
EndSplineSet
Substitution2: "smcp-1" r.smcp
Substitution2: "pcap-1" r.pcap
EndChar
StartChar: s
Encoding: 115 115 18
GlifName: s
Width: 352
Flags: HMW
HStem: -9 38<111 233> 370 38<130 232>
VStem: 49 68<274 353> 250 68<46 140>
AnchorPoint: "Bottom" 164 -15 basechar 0
AnchorPoint: "Top" 182.5 465 basechar 0
LayerCount: 2
Fore
SplineSet
54 125 m 1
 77 61 123 31 178 31 c 0
 214 31 250 50 250 86 c 0
 250 135 202 161 169 176 c 0
 120 198 49 217 49 288 c 0
 49 348 114 408 193 408 c 0
 226 408 256 402 287 396 c 1
 287 396 295 340 300 303 c 1
 285 298 l 1
 265 330 222 370 175 370 c 0
 143 370 115 347 115 315 c 0
 115 292 134 267 196 246 c 0
 275 219 318 163 318 108 c 0
 318 27 217 -9 153 -9 c 0
 106 -9 69 2 33 16 c 1
 37 30 39 44 39 59 c 0
 39 71 37 106 32 118 c 1
 54 125 l 1
EndSplineSet
Substitution2: "case-1" S
Substitution2: "pcap-1" s.pcap
Substitution2: "smcp-1" s.smcp
EndChar
StartChar: t
Encoding: 116 116 19
GlifName: t
Width: 341
Flags: HMW
HStem: -10 49<154 261> 360 36<148 304>
VStem: 68 74<52 357>
AnchorPoint: "Bottom" 183 -15 basechar 0
AnchorPoint: "TopRight" 313 531 basechar 0
AnchorPoint: "Top" 143.5 508 basechar 0
LayerCount: 2
Fore
SplineSet
14 370 m 5
 66 400 109 431 140 478 c 5
 155 475 l 5
 151 449 151 427 149 399 c 5
 199 401 258 400 308 402 c 5
 304 355 l 5
 254 355 196 357 146 358 c 5
 142 296 141 229 141 107 c 7
 141 73 155 38 207 38 c 7
 249 38 279 55 309 69 c 5
 309 69 315 56 320 46 c 5
 282 21 218 -10 160 -10 c 7
 140 -10 68 0 68 97 c 7
 68 197 72 259 74 357 c 5
 74 357 39 354 17 354 c 5
 14 370 l 5
EndSplineSet
Substitution2: "case-1" T
Substitution2: "pcap-1" t.pcap
Substitution2: "smcp-1" t.smcp
EndChar
StartChar: u
Encoding: 117 117 20
GlifName: u
Width: 506
VWidth: 1159
Flags: HMW
HStem: -11 55<171 272> 338 31<291 350>
VStem: 69 76<71 327> 358 65<36 52 75 331>
AnchorPoint: "Bottom" 255 -15 basechar 0
AnchorPoint: "Ogonek" 391.65 -3 basechar 0
AnchorPoint: "Horn" 434.5 333 basechar 0
AnchorPoint: "Top" 264 465 basechar 0
LayerCount: 2
Fore
SplineSet
284 369 m 1
 337 379 392 392 433 403 c 1
 444 387 l 1
 430 343 422 175 422 137 c 3
 422 107 425.284077022 81.1592297825 428 54 c 0
 429 44 432 36 442 36 c 3
 446 36 472 43 492 48 c 1
 498 17 l 1
 463.592920354 8.51428571429 418.680818252 -1.65959087386 390 -16 c 0
 384.468273326 -18.7658633372 382.5 -22 375 -22 c 3
 358 -22 358 0 353 52 c 1
 312 34 235 -11 177 -11 c 3
 139 -11 101.934188969 5.51320688901 85 44 c 0
 74 69 69 95 69 143 c 3
 69 198 72 255 72 312 c 0
 72 322 68 331 58 331 c 3
 48 331 27 319 21 317 c 1
 11 348 l 1
 52 359 106 394 148 422 c 1
 166 406 l 1
 151 336 145 254 145 177 c 3
 145 106 160 44 231 44 c 3
 268 44 321 69 352 85 c 1
 353 154 358 291 358 298 c 3
 358 337 328 337 291 338 c 1
 284 369 l 1
EndSplineSet
Validated: 1
Substitution2: "case-1" U
Substitution2: "pcap-1" u.pcap
Substitution2: "smcp-1" u.smcp
EndChar
StartChar: v
Encoding: 118 118 21
GlifName: v
Width: 418
Flags: HMW
HStem: 371 30<6 43 144 203 270 316>
DStem2: 224 95 55 339 0.322551 -0.946552<-271.079 -13.8948> 224 95 273 128 0.393919 0.919145<1.32074 223.239>
AnchorPoint: "Bottom" 193 -15 basechar 0
AnchorPoint: "Top" 210 465 basechar 0
LayerCount: 2
Fore
SplineSet
419 382 m 5
 380 361.65625 380.655877163 361.354787404 360 320 c 0
 330 258 304 195 273 133 c 0
 251 89 224 38 210 -20 c 1
 179 -20 l 1
 151 110.417582418 98 246.901098901 55 348 c 0
 50.5834554826 358.271033761 44.9141031266 368.57464375 34 371 c 0
 25 373 13 378 3 380 c 1
 6 409 l 1
 29 405 65 404 88 404 c 3
 122 404 171 407.181818182 203 411 c 1
 208 379 l 1
 192 376.222222222 153 374 153 374 c 0
 146 373 142 372 142 363 c 3
 142 362 144.15024537 352.027714895 145 347 c 0
 157 274.83127572 199 170.135802469 224 100 c 1
 260 169 294.236241979 240.326846926 317 320 c 0
 319 327 322 333 322 342 c 3
 322 363.435897436 313 370.256410256 264 380 c 1
 272 411 l 1
 303 404.875 317 404 335 404 c 3
 360 404 390 408.090909091 411 413 c 5
 419 382 l 5
EndSplineSet
Substitution2: "smcp-1" v.smcp
Substitution2: "pcap-1" v.pcap
EndChar
StartChar: w
Encoding: 119 119 22
GlifName: w
Width: 657
Flags: HMW
HStem: 371 30<5 41 152 191 245 282 383 442 510 554>
DStem2: 208 109 254 128 0.453531 0.891241<1.73782 195.326> 447 95 321 271 0.269208 -0.963082<-202.488 0> 447 95 497 128 0.445318 0.895373<0.637142 266.408>
AnchorPoint: "Bottom" 294 -15 basechar 0
AnchorPoint: "Top" 323 465 basechar 0
LayerCount: 2
Fore
SplineSet
659 384 m 1
 620 363 619.655877163 362.688812804 599 320 c 0
 569 258 528 195 497 133 c 0
 475 89 449 38 435 -20 c 1
 404 -20 l 1
 383 81 353 187 321 276 c 1
 299 228 277.803361107 180.606722214 254 133 c 0
 232 89 205 38 191 -20 c 1
 155 -20 l 1
 146 99.2967032967 96 246.901098901 53 348 c 0
 48.5834554826 358.271033761 42.9141031266 368.57464375 32 371 c 0
 23 373 12 378 2 380 c 1
 5 409 l 1
 28 405 64 404 87 404 c 3
 121 404 159 406 191 412 c 1
 195 380 l 1
 179 375 152 374 152 374 c 0
 145 373 141 372 141 363 c 3
 141 362 142.15024537 352.027714895 143 347 c 0
 155 274.759825328 183 184.205240175 208 114 c 1
 242 180 270 236 308 310 c 1
 303 324.294117647 298 337.823529412 294 348 c 0
 289.910021367 358.405386816 284.914103127 368.57464375 274 371 c 0
 265 373 252 378 242 380 c 1
 245 409 l 1
 268 405 303 404 326 404 c 3
 360 404 409 407.636363636 441 412 c 1
 446 380 l 1
 430 376.666666667 393 374 393 374 c 0
 386 373 381 372 381 363 c 3
 381 362 382.15024537 352.027714895 383 347 c 0
 395 274.83127572 422 170.135802469 447 100 c 1
 483 169 522 241 556 320 c 0
 559.187188766 327.405526839 561 333 561 342 c 3
 561 364 551 371 502 381 c 1
 510 412 l 1
 541 405 557 404 575 404 c 3
 600 404 628 409 649 415 c 1
 659 384 l 1
EndSplineSet
Substitution2: "smcp-1" w.smcp
Substitution2: "pcap-1" w.pcap
EndChar
StartChar: x
Encoding: 120 120 23
GlifName: x
Width: 435
Flags: HW
HStem: -6 29<10.2759 49.706 116.703 163.933 229.222 267.152 356.707 423.966> 371 33<19 96.6319 177.005 205.552> 379 26<263 307.763 387.82 420>
AnchorPoint: "Bottom" 211 -15 basechar 0
AnchorPoint: "Top" 220 465 basechar 0
LayerCount: 2
Fore
SplineSet
8 24 m 17xc0
 38 31 49 35 60 47 c 2
 190 200 l 1
 120 323 l 2
 94 369.75 82 374 19 374 c 9
 19 407 l 1xc0
 36 406 69 404 86 404 c 0
 124 404 169 406 205 410 c 1
 209 378 l 17
 184 377 177 374 177 369 c 3
 177 367 178 363 179 361 c 2
 233 247 l 1
 295 325 l 2
 301 332 313 344 313 355 c 3
 313 377 277 372 259 379 c 9
 263 405 l 1xa0
 279 404 306 404 322 404 c 0
 352 404 399 406 420 407 c 1
 423 382 l 1
 387 372 368 352 353 336 c 0
 319 297.666666667 285 259.333333333 251 221 c 1
 281 165 308 109 338 53 c 0
 353 27 379 30 427 21 c 9
 423 -7 l 1
 396 -3 346 0 318 0 c 7
 291 0 261 -3 230 -7 c 1
 227 19 l 17
 263 25 268 23 268 33 c 3
 268 35 268 38 267 40 c 2
 206 172 l 1
 121 63 l 2
 117 58 114 53 114 48 c 3
 114 33 125 31 167 25 c 1
 163 -5 l 1
 141 -3 111 0 88 0 c 3
 63 0 34 -3 11 -5 c 1
 8 24 l 17xc0
EndSplineSet
Substitution2: "smcp-1" x.smcp
Substitution2: "pcap-1" x.pcap
EndChar
StartChar: y
Encoding: 121 121 24
GlifName: y
Width: 446
Flags: HMW
HStem: -330 30<404 432 256 271 102 164 -3 31>
DStem2: 265 97 58 -243 0.447214 0.894427<-14.7689 152.969>
AnchorPoint: "Bottom" 291 -15 basechar 0
AnchorPoint: "Top" 232.5 465 basechar 0
LayerCount: 2
Fore
SplineSet
113 -346 m 1
 109 -346 90 -343 52 -343 c 3
 22 -343 15 -345 -6 -346 c 9
 -6 -346 -5 -330 -7 -319 c 1
 85 -283 73 -255 176 -32 c 1
 148 102.243902439 85 314.536585366 58 352 c 0
 51 362 47 369 37 374 c 0
 28 376 16 379 6 380 c 1
 10 410 l 1
 33 406 68 404 91 404 c 3
 125 404 153 405 185 411 c 1
 189 383 l 1
 156 374 l 0
 149 373 145 372 145 363 c 3
 145 362 147 355 148 350 c 0
 160 275.055555555 192 154.722222222 226 65 c 1
 273 139.320987654 317 239.12345679 342 323 c 0
 344 330 347 339 347 348 c 3
 347 367.621621622 340 372.513513514 271 381 c 9
 277 411 l 1
 308 406.545454545 351 404 369 404 c 3
 394 404 422 406 443 412 c 1
 448 382 l 1
 410 372 401 367 383 323 c 0
 368 287.40625 294 134.5625 223 -12 c 0
 179 -98 113 -281 113 -346 c 1
EndSplineSet
Substitution2: "smcp-1" y.smcp
Substitution2: "pcap-1" y.pcap
EndChar
StartChar: z
Encoding: 122 122 25
GlifName: z
Width: 453
Flags: HMW
HStem: 0 31<137 361> 362 32<77 314>
DStem2: 314 360 137 31 0.646621 0.762811<-366.184 0>
AnchorPoint: "Bottom" 226 -15 basechar 0
AnchorPoint: "Top" 232.5 465 basechar 0
LayerCount: 2
Fore
SplineSet
355 0 m 2
 170 0 l 2
 143 0 49 -4 29 -10 c 1
 22 20 l 1
 125 125.726470588 227 246.85 314 369 c 1
 292 370 271 371 249 371 c 3
 201 371 158 370 111 366 c 0
 74 361.62962963 50 340.87037037 40 307 c 1
 14 315 l 1
 50 421 l 1
 72 409 101 404 233 404 c 3
 325 404 400 403 423 410 c 1
 433 390 l 1
 336 274.094285715 224 157.162857143 137 31 c 1
 283 32 l 2
 314 32 341 37 363 48 c 0
 380 57 394 68 404 91 c 0
 408 101 411 112 415 127 c 1
 439 119 l 1
 404 -10 l 1
 404 -10 386 0 355 0 c 2
EndSplineSet
Substitution2: "smcp-1" z.smcp
Substitution2: "pcap-1" z.pcap
EndChar
StartChar: section
Encoding: 167 167 952
GlifName: section
Width: 428
Flags: W
HStem: -93.7754 33<84.7519 176.482> 658.225 40<245.024 351.452>
VStem: 75.5938 57<316.327 494.034> 198.593 77.001<33.2246 81.1509> 305.594 54.999<103.702 250.216>
LayerCount: 2
Fore
SplineSet
153.59375 538.224609375 m 1
 139.59375 499.224609375 132.59375 473.132609375 132.59375 430.224609375 c 3
 132.59375 265.699775143 272.48475 147.98229375 275.59375 33.224609375 c 1
 292.29275 69.004709375 305.59375 93.759309375 305.59375 135.224609375 c 3
 305.59375 303.187842662 175.30775 408.023738607 153.59375 538.224609375 c 1
75.59375 353.224609375 m 3
 75.59375 521.235609375 165.581214022 698.224609375 333.592773438 698.224609375 c 3
 369.311773437 698.224609375 393.592773437 679.099609375 411.592773438 647.224609375 c 1
 396.642101451 631.985143761 368.851196854 614.084501452 341 603 c 1
 320.975897177 626.667857588 307.778193044 658.224609375 277.59375 658.224609375 c 3
 242.424764211 658.224609375 219.592773438 618.970609375 219.592773438 578.224609375 c 3
 219.592773438 502.270609375 360.592773438 389.252609375 360.592773438 227.224609375 c 3
 360.592773438 86.096809375 265.476773437 -93.775390625 105.592773438 -93.775390625 c 3
 63.9109988537 -93.775390625 35.4914912216 -79.8969618059 10 -37 c 1
 9.6711831547 -28.1078093104 48.4274322329 4.9718726723 80 11 c 1
 101.556936892 -16.3429517 109.594900998 -60.775390625 141.592773438 -60.775390625 c 3
 179.269773438 -60.775390625 198.592773438 -20.4524872329 198.592773438 17.224609375 c 3
 198.592773438 101.438559248 75.59375 155.133627286 75.59375 353.224609375 c 3
EndSplineSet
Validated: 33
Position2: "'case' vertical ajustments for all-caps-1" dx=0 dy=60 dh=0 dv=0
Position2: "cpsp-1" dx=0 dy=0 dh=50 dv=100
EndChar
StartChar: ordfeminine
Encoding: 170 170 1208
GlifName: ordfeminine
Width: 306
VWidth: 1159
Flags: HW
HStem: 304 32<36 273> 379 37<59.5 152.146 215 275.486> 519 28<114.437 186> 652 42<96.5633 172.394>
VStem: 29 49<418.419 501.984> 38 58<614 650.668> 184 50<433.003 519 544.43 591.98 592 623.672>
LayerCount: 2
Fore
SplineSet
186 519 m 5xfa
 183 519 181 519 177 519 c 5
 153 519 123 514 114 510 c 4
 90 498 78 487 78 460 c 7
 78 436 90 416 111 416 c 7
 129 416 160 430 184 445 c 5
 184 455 184 466 184 479 c 5
 184 494 186 509 186 519 c 5xfa
160 694 m 7
 177 694 223 661 231 648 c 4
 237 638 238 621 238 611 c 5
 238 564 234 512 234 467 c 5
 234 454 235 442 238 433 c 4
 241 423 247 421 249 421 c 7
 256 421 277 429 284 433 c 5
 296 406 l 5
 282 400 230 378 220 378 c 7
 210 378 194 389 187 417 c 5
 151 395 122 379 83 379 c 7
 36 379 29 411 29 444 c 5xfa
 29 463 30 487 35 498 c 5
 39 508 44 512 51 515 c 5
 97 535 132 541 186 547 c 5
 186 564 187 592 187 592 c 5
 187 610 184 617 180 624 c 5
 175 631 148 652 130 652 c 7
 104 652 96 642 96 634 c 7
 96 628 101 616 101 614 c 5
 45 592 l 5
 44 597 38 612 38 621 c 7xf6
 38 633 44 645 59 655 c 4
 88 675 142 694 160 694 c 7
EndSplineSet
Refer: 1967 58113 N 0.237 0 0 1 36 320 2
Validated: 1
Position2: "cpsp-1" dx=0 dy=0 dh=7 dv=14
EndChar
StartChar: registered
Encoding: 174 174 876
GlifName: registered
Width: 322
Flags: HW
HStem: 436.027 19.664<114.861 203.378> 487.43 10.617<226.396 236.186> 491.865 12.635<95.8277 110.356 140.883 155.167> 557.075 15.1847<136.812 158.537> 625 13.797<94.248 109.49 131.012 172.675> 666.746 19.664<118.426 204.315>
VStem: 33.3066 19.9532<514.336 603.032> 113.164 23.6485<515.169 558.24 573.061 622.555> 184.873 26.871<575.527 619.237> 268.543 19.957<519.406 606.227>
LayerCount: 2
Fore
SplineSet
136.812 573.061 m 1x9fc0
 144.483 572.853 148.341 572.26 155.922 572.26 c 3
 174.942 572.26 184.873 582.532 184.873 596.451 c 3
 184.873 610.982554975 172.50442668 625 150.135 625 c 3
 145.312477838 625 140.642 623.733 138.609 613.199 c 0
 135.957 602.245 136.326 585.514 136.812 573.061 c 1x9fc0
94.248 634.855 m 1
 103.803 634.649 110.574 634.441 121.293 634.441 c 3
 136.729 634.441 143.624 638.797 161.182 638.797 c 3
 188.529 638.797 211.744 622.057 211.744 600.965 c 3
 211.744 581.917 198.013 568.822 182.004 562.094 c 1
 204.589 528.938 216.88 502.074 237.242 498.047 c 1
 234.143 487.43 l 1xdfc0
 200.43 489.5 175.242 518.991 154.674 557.123 c 1
 153.843389999 557.090117934 153.065089002 557.075306251 152.327517342 557.075306251 c 3
 146.515289991 557.075306251 143.232267983 557.995080309 136.812 558.24 c 1
 137.69 541.253 138.236 528.624 139.896 514.508 c 0
 140.762 506.823 145.13 505.878 156.072 504.412 c 1
 154.24 491.215 l 1
 144.229540319 493.18549523 133.77006719 494.216671651 123.324871914 494.216671651 c 3
 114.332044462 494.216671651 105.349800339 493.452321479 96.6738 491.865 c 1
 94.9902 504.5 l 1xbfc0
 106.3 505.109 110.084 506.588 111.186 514.037 c 1
 112.475606281 538.799373876 113.163520126 554.258632131 113.163520126 570.018993968 c 3
 113.163520126 581.97600693 112.767563986 594.10633202 111.938 610.604 c 1
 110.111 620.523 107.277 622.811 94.248 623.168 c 1
 94.248 634.855 l 1
160.9 666.746 m 3
 105.022 666.746 53.2598 621.182 53.2598 559.102 c 3
 53.2598 497.068 102.777 455.691 160.9 455.691 c 3
 216.781 455.691 268.543 501.256 268.543 563.336 c 3
 268.543 621.148 218.936 666.746 160.9 666.746 c 3
160.902 686.41 m 3
 229.535 686.41 288.5 632.481 288.5 563.625 c 3
 288.5 489.99 227.167 436.027 160.902 436.027 c 3
 92.36 436.027 33.3066 485.127 33.3066 558.812 c 3
 33.3066 632.447 94.6389 686.41 160.902 686.41 c 3
EndSplineSet
EndChar
StartChar: paragraph
Encoding: 182 182 76
GlifName: paragraph
Width: 591
VWidth: 1159
UnlinkRmOvrlpSave: 1
Flags: W
HStem: -8 21G<360.141 462.704> 661 20G<323 362.686> 686 55<409.014 555>
VStem: 60 171<219 436.912> 315 38<57 490.2> 323 40<235.8 673>
LayerCount: 2
Fore
SplineSet
323 673 m 25xf4
 363 681 l 25xf4
 353 45 l 25
 315 57 l 25xf8
 323 673 l 25xf4
555 741 m 1
 557 686 l 1
 515 683 367 681 299 638 c 0
 248.677734375 606.178710938 231 581.006835938 231 289 c 3
 231 149 256.18359375 116.392578125 287 89 c 0
 305.614257812 72.619140625 400.75 53.1669921875 469 46 c 1
 459 -8 l 1
 261.282226562 35.3046875 223.544921875 69.775390625 169 131 c 0
 111 197 82.71875 279.143554688 66 343 c 0
 62.84375 355.05859375 60 365 60 375 c 3
 60 382 61.6796875 390.366210938 65 399 c 0
 95 477 146.142578125 586.794921875 247 657 c 0
 349 728 555 741 555 741 c 1
EndSplineSet
Position2: "cpsp-1" dx=0 dy=0 dh=50 dv=100
EndChar
StartChar: AE
Encoding: 198 198 319
GlifName: A_E_
Width: 1067
VWidth: 1159
Flags: W
HStem: -9 35<449 500.854> -5 39<22.5469 80.8864> 3.06988 37.3024<636.857 887.73> 247 42<296.875 529.631> 334 36<608 868.393> 648.077 36.4959<626.1 856.2> 661 31<394.871 460.439>
VStem: 525 93<373.564 639.016> 529.631 78.3691<90.5 243.369 285.991 334 370 605.156> 892 36<248.75 306.348 394.846 442.094> 933 30<539 620.59> 993 28<152.034 171.75>
AnchorPoint: "Top" 580.585 699 basechar 0
AnchorPoint: "Bottom" 569.957 -15 basechar 0
LayerCount: 2
Fore
SplineSet
396 692 m 1x5af0
 459.272012394 686.532048312 556.561190777 684.572593564 653.192821453 684.572593564 c 0
 803.974281922 684.572593564 953.154767421 689.343407866 969 693 c 1
 980.145145837 683.247997393 984.133414459 677.741599913 984.133414459 669.087387512 c 0
 984.133414459 652.893580795 970.168856119 625.677987617 963 539 c 1
 933 536 l 1
 922 572 941 619 905 630 c 0
 863.488636507 641.860389569 801.137444756 648.076658986 740.260246011 648.076658986 c 3
 708.746754637 648.076658986 677.628246937 646.410894684 650 643 c 0
 632 641 619 627 618 609 c 0x1d70
 614 526.970338983 609 445.953389831 608 370 c 1
 672 372 824 372 838 373 c 0
 875 378 880 404 896 448 c 1
 930 441 l 1
 921.800908316 410.132831309 918.486685813 379.498275435 918.486685813 348.871954284 c 0
 918.486685813 315.997648821 922.305294619 283.132831309 928 250 c 1
 892 241 l 1
 872 312 879 325 838 329 c 0
 794 334 701 333 608 334 c 1
 607 236.227091633 611 147.525896414 623 81 c 0
 627 64 636 50 653 49 c 0
 698.831179232 44.5647245905 737.376555516 40.3723092792 773.782518979 40.3723092792 c 0
 811.251037011 40.3723092792 846.453436792 44.8130178498 885 58 c 0
 944 78 954 101 993 177 c 1
 1021 170 l 1
 1005 104 994 62 982 0 c 1
 877.083081066 1.45355771389 767.073393242 3.06987648348 667.598205869 3.06987648348 c 0x3cf0
 584.624915197 3.06987648348 509.225266505 0.552582785989 451 -9 c 1
 441 26 l 1x98f0
 494 36 527 49 527 77 c 1
 528.380926187 103.914026086 529.284877868 166.790357996 529.630859375 241.087890625 c 1
 467.278003094 249.660049211 355.177385742 253.494120142 272.916992188 247 c 1
 235.500997091 184.6 209.014082931 147.759493671 176.979 87 c 0
 158.157 51 172.988 29 244.937 34 c 1
 239.599 -10 l 1
 207.9511992 -3.42116167511 156.803289353 0.296115413079 108.669988834 0.296115413079 c 0
 76.3230769561 0.296115413079 45.3376267038 -1.38268590218 22.5469 -5 c 1
 22.5469 -5 18.2832 20 19.9365 34 c 1
 71.5889 48 102.294 57 117.652 80 c 0
 245.893953454 285.468704307 363.399910804 480.400810666 462.046875 648.923828125 c 1
 441.407911312 652.540879605 417.029954203 656.00792895 391 661 c 1
 396 692 l 1x5af0
499.977539062 640.265625 m 1
 473.026905511 593.239042544 345.505326951 370.882231497 296.875 289 c 1
 347.043311173 284.20133642 475.957582399 285.850220822 529.76953125 285.991210938 c 1
 529.972511301 417.75573903 528.516654383 568.318110715 525 618 c 0
 524.612992871 628.452823952 515.381822824 635.158711011 499.977539062 640.265625 c 1
EndSplineSet
Validated: 33
Position2: "cpsp-1" dx=0 dy=0 dh=50 dv=100
Substitution2: "c2pc-1" ae.pcap
Substitution2: "c2sc-1" ae.smcp
EndChar
StartChar: ae
Encoding: 230 230 322
GlifName: ae
Width: 578
Flags: HW
HStem: -9 43<55.5195 159.444> -8 50<352.222 471.185> 370 52<125.933 201.869 343.725 424.068>
VStem: 20.5195 62<43.6209 136.135> 33.5195 77<309.417 362.65> 232.563 66.1328<101.524 187.689>
AnchorPoint: "Top" 283.52 465 basechar 0
AnchorPoint: "Bottom" 280.52 -15 basechar 0
LayerCount: 2
Fore
SplineSet
377.0390625 370 m 3x24
 326.278719064 370 302.810560282 297.663 298.51953125 235 c 1
 356.476257858 252.570999965 401.330482443 265.925481235 456 281.466990756 c 4
 457.789025928 281.97557698 459.588562904 282.486505259 461.399414062 283 c 1
 452.000374893 327 416.520227033 370 377.0390625 370 c 3x24
298.696289062 208 m 1
 292.974298242 114.19 340.927221317 42 415.579101562 42 c 3
 459.760156319 42 496.420201755 64 522.740234375 87 c 1
 542.48046875 60 l 1
 503.000416941 27 446.600342928 -8 381.739257812 -8 c 3x6c
 322.890360859 -8 279.251437273 23.5508112068 256.813476562 66.7822265625 c 1
 205.228345517 35.8105157066 137.177172641 -9 81.51953125 -9 c 3
 29.51953125 -9 20.51953125 27 20.51953125 71 c 3xb4
 20.51953125 94 21.51953125 118 27.51953125 130 c 0
 33.51953125 144 37.51953125 146 47.51953125 151 c 0
 109.414158207 181.947854681 161.344264726 193.958798282 234.149414062 215.887695312 c 1
 236.215325925 236.80876966 240.159157669 255.819837221 245.502929688 273.045898438 c 1
 247.775975008 296.66094289 231.973659935 317.780982646 225.51953125 327 c 0
 215.51953125 342 174.51953125 370 146.51953125 370 c 3
 116.51953125 370 110.51953125 360 110.51953125 342 c 3
 110.51953125 333 116.51953125 320 117.51953125 315 c 1
 42.51953125 285 l 1
 38.51953125 295 33.51953125 315 33.51953125 325 c 3xac
 33.51953125 339 40.51953125 354 60.51953125 366 c 1
 115.519831974 403 183.519585598 422 198.51953125 422 c 3
 217.891557867 422 278.109640607 380.30223605 295.180664062 361.27734375 c 1
 331.300874921 400.960098949 373.675122288 417 390.19921875 417 c 3
 444.720283949 417 502.060352519 372 520.859375 323 c 0
 525.561314492 311 539.66013306 303 550 302 c 1
 550 278 l 1
 470.100091905 257 380.696194742 232 298.696289062 208 c 1
232.563476562 187.689453125 m 1
 195.776106783 176.736291403 155.916706123 165.698128427 138.51953125 157 c 0
 107.519808033 142 82.51953125 125.461 82.51953125 92 c 3
 82.51953125 62.1348 100.519851247 34 132.51953125 34 c 3xb4
 156.685686189 34 214.544057141 66.8281059285 248.280273438 85.912109375 c 1
 237.057418482 115.432138083 231.974484175 149.746287693 232.563476562 187.689453125 c 1
EndSplineSet
Substitution2: "pcap-1" ae.pcap
Substitution2: "case-1" AE
Substitution2: "smcp-1" ae.smcp
EndChar
StartChar: Aogonek
Encoding: 260 260 255
GlifName: A_ogonek
Width: 705
Flags: HW
HStem: -346.802 72.7783<509.644 579.002> 245 42<247 437.657> 692 20G<358 405.73>
VStem: 360 43<632.023 712> 417.273 71.958<-253.556 -112.611>
LayerCount: 2
Back
SplineSet
477 -10 m 13
 477 -10 471 12 467 27 c 1
 509 37 535 48 525 76 c 0
 502 139 488 173 465 236 c 1
 405 246 308 252 221 245 c 13
 195 183 175 147 154 87 c 0
 142 51 166 29 237 34 c 13
 235 -10 l 1
 202.105808376 -3.42116167511 150.253773558 0.296115413079 102.120365612 0.296115413079 c 3
 69.7733815408 0.296115413079 39.1058083756 -1.38268590218 17 -5 c 13
 17 -5 13 20 12 34 c 1
 61 48 85 57 96 80 c 0
 188 289 266 470 334 640 c 0
 349 678 346 679 350 712 c 13
 393 712 l 13
 398 685 393 681 407 642 c 0
 481 417 525 281 627 62 c 28
 639 36 664 34 692 32 c 13
 692 32 691 8 690 -4 c 1
 660.361639756 0.0415945787923 626.488412579 2.46990651666 592.727141386 2.46990651666 c 3
 551.307333723 2.46990651666 510.056036141 -1.18505702896 477 -10 c 13
EndSplineSet
Fore
SplineSet
237 287 m 1
 290 282 400 283 449 283 c 1
 410 383 384 443 342 545 c 1
 301 444 274 378 237 287 c 1
505.106445312 9.3037109375 m 0
 516.32084969 22.5255365727 526.28515625 40.5437191436 526.28515625 62.3583984375 c 0
 526.28515625 66.7541743462 526.638581464 71.5120040143 525 76 c 0
 502 139 488 173 465 236 c 1
 405 246 308 252 221 245 c 1
 194.87 183.38 174.102238681 147.306716044 154 87 c 0
 142 51 166 29 237 34 c 1
 235 -10 l 1
 202.059916664 -3.52930902503 150.109077766 0.0791015625 101.918945312 0.0791015625 c 3
 69.6460971546 0.0791015625 39.0599146067 -1.53923141794 17 -5 c 1
 17 -5 13 20 12 34 c 1
 61 48 85.7283983171 56.6656005248 96 80 c 0
 188 289 266.773421759 469.692668455 334 640 c 0
 349 678 346 679 350 712 c 1
 393 712 l 1
 398.46 684.7 393.99168642 681.341883252 407 642 c 0
 479.318 423.284016366 522.925591165 291.262696164 622 78.1982421875 c 0
 630 60.9938264767 661.846 35.0799028125 692 32 c 1
 692 32 691 8 690 -4 c 1
 665.831424255 4.17930807831 638.869227035 8.486328125 612.900390625 8.486328125 c 3
 573.31454429 8.486328125 540.722021946 -3.50827569913 523.860351562 -28 c 0
 490.810715224 -76.0055439258 479.231445312 -147.937616877 479.231445312 -196.747070312 c 3
 479.231445312 -237.611373161 508.631004142 -274.0234375 540.14453125 -274.0234375 c 3
 559.969724697 -274.0234375 583.77495698 -267.592408263 608.200195312 -253.40234375 c 1
 608.200195312 -253.40234375 619.310038072 -263.730014861 622 -271.801757812 c 1
 595.823 -315.298757813 545.232 -346.801757812 505 -346.801757812 c 3
 455.302222486 -346.801757812 407.2734375 -298.236689929 407.2734375 -235.232421875 c 3
 407.2734375 -105.156513021 468.973437955 -33.2965410067 505.106445312 9.3037109375 c 0
EndSplineSet
Position2: "cpsp-1" dx=0 dy=0 dh=50 dv=100 [ddx={} ddy={} ddh={} ddv={}]
Substitution2: "c2sc-1" aogonek.smcp
Substitution2: "c2pc-1" aogonek.pcap
EndChar
StartChar: eogonek
Encoding: 281 281 253
GlifName: eogonek
Width: 409
UnlinkRmOvrlpSave: 1
Flags: HW
HStem: -303.658 60.1279<275.366 346.494> 425 168
VStem: 53 185 190.912 69.209<-230.259 -111.139>
AnchorPoint: "Top" 209 465 basechar 0
LayerCount: 2
Back
SplineSet
366.630859375 52.54296875 m 1xd0
 276.377929688 -47.1502175719 262.771484375 -94.5674013864 262.771484375 -186 c 3
 262.771484375 -236.143554688 288.107421875 -265.872070312 320.166015625 -265.872070312 c 3
 339.918945312 -265.872070312 363.635742188 -255.18359375 387.97265625 -231.599609375 c 13
 387.97265625 -231.599609375 399.081054688 -241.926757812 401.771484375 -250 c 1
 374.767578125 -302.788085938 329.271484375 -326 287.771484375 -326 c 3
 237.798828125 -326 193.561523438 -284.413085938 193.561523438 -214.834960938 c 3
 193.561523438 -150.617750838 236.666992188 -26.3930451996 359.931640625 73.76171875 c 1
 366.630859375 52.54296875 l 1xd0
EndSplineSet
Fore
SplineSet
363.98046875 49.884765625 m 1xd0
 273.727539062 -43.5393374647 260.12109375 -87.9747324245 260.12109375 -173.658203125 c 3
 260.12109375 -217.5234375 285.45703125 -243.530273438 317.515625 -243.530273438 c 3
 330.34375 -243.530273438 345.74609375 -239.079101562 361.55078125 -229.2578125 c 1
 361.55078125 -229.2578125 372.66015625 -239.584960938 375.349609375 -247.658203125 c 1
 353.9765625 -286.5546875 317.967773438 -303.658203125 285.12109375 -303.658203125 c 3
 235.149414062 -303.658203125 190.912109375 -265.8125 190.912109375 -202.493164062 c 3
 190.912109375 -141.613760624 234.016601562 -23.8457629693 357.282226562 71.103515625 c 1
 363.98046875 49.884765625 l 1xd0
EndSplineSet
Refer: 4 101 N 1 0 0 1 0 0 3
Substitution2: "pcap-1" eogonek.pcap
Substitution2: "smcp-1" eogonek.smcp
EndChar
StartChar: Iogonek
Encoding: 302 302 259
GlifName: I_ogonek
Width: 341
UnlinkRmOvrlpSave: 1
Flags: HW
HStem: -346.889 73.7197<164.804 231.852> -10 40<16.125 119.789> 652 43<21.3488 120.801>
VStem: 73.7656 71.875<-253.641 -109.865> 131 90<41.0295 293.416> 137.915 75.6029<80.3904 534.592>
LayerCount: 2
Fore
SplineSet
207.177734375 3.734375 m 1xf0
 167.264648438 -46.17578125 145.640625 -131.358398438 145.640625 -195.689453125 c 3
 145.640625 -237.126953125 173.827148438 -273.168945312 204.834960938 -273.168945312 c 3
 225.810546875 -273.168945312 250.994140625 -264.435546875 276.834960938 -245.168945312 c 9
 276.834960938 -245.168945312 287.944335938 -255.497070312 290.633789062 -263.569335938 c 1
 263.579101562 -311.305664062 211.14453125 -346.888671875 169.564453125 -346.888671875 c 3
 120.384765625 -346.888671875 73.765625 -298.078125 73.765625 -236.513671875 c 3
 73.765625 -152.803710938 98.1953125 -47.5556640625 200.478515625 36.453125 c 1
 207.177734375 3.734375 l 1xf0
EndSplineSet
Refer: 34 73 N 1 0 0 1 0 0 3
Position2: "cpsp-1" dx=0 dy=0 dh=50 dv=100
Substitution2: "c2pc-1" iogonek.pcap
Substitution2: "c2sc-1" iogonek.smcp
EndChar
StartChar: iogonek
Encoding: 303 303 260
GlifName: iogonek
Width: 263
UnlinkRmOvrlpSave: 1
Flags: HW
HStem: -326 60.1279<121.017 198.674> -7 33<33 87 184 254> 572 102<98.589 183.411>
VStem: 36.5625 69.209<-252.6 -120.517> 89 104<581.438 664.599> 97 71<57 330>
LayerCount: 2
Fore
SplineSet
168 12.9248046875 m 1xe4
 113.924804688 -74.3896484375 105.771484375 -115.919921875 105.771484375 -196 c 3
 105.771484375 -239.865234375 131.106445312 -265.872070312 163.166015625 -265.872070312 c 3
 182.918945312 -265.872070312 206.635742188 -255.18359375 230.97265625 -231.599609375 c 1
 230.97265625 -231.599609375 242.081054688 -241.926757812 244.771484375 -250 c 1
 217.768554688 -302.788085938 172.271484375 -326 130.771484375 -326 c 3
 80.798828125 -326 36.5625 -288.154296875 36.5625 -224.834960938 c 3xf0
 36.5625 -167.208984375 66.80859375 -55.732421875 153.30078125 34.1435546875 c 1
 168 12.9248046875 l 1xe4
EndSplineSet
Refer: 8 105 N 1 0 0 1 0 0 3
Substitution2: "smcp-1" iogonek.smcp
Substitution2: "case-1" Iogonek
Substitution2: "pcap-1" iogonek.pcap
EndChar
StartChar: dotlessi
Encoding: 305 305 50
GlifName: dotlessi
Width: 263
VWidth: 1159
Flags: HMW
HStem: -7 33<33 87 184 254>
VStem: 97 71<57 330>
AnchorPoint: "Top" 136 465 basechar 0
LayerCount: 2
Fore
SplineSet
168 196 m 3
 168 157 171 91 177 54 c 0
 179 39 199 35 210 33 c 0
 226 29 244 28 258 27 c 1
 254 -7 l 1
 215 -1 171 4 129 4 c 3
 99 4 63 -3 33 -7 c 1
 30 26 l 1
 41 27 57 29 68 31 c 0
 91 37 92 48 94 76 c 0
 96 101 97 150 97 176 c 3
 97 196 98 238 93 301 c 0
 92 317 87 330 70 330 c 3
 64 330 49 326 40 325 c 1
 33 357 l 1
 85 369 122 383 175 431 c 1
 195 415 l 1
 189 401 184 374 182 363 c 0
 172 319 168 213 168 196 c 3
EndSplineSet
Validated: 33
Substitution2: "case-1" I
Substitution2: "pcap-1" i.pcap
Substitution2: "smcp-1" i.smcp
EndChar
StartChar: eng
Encoding: 331 331 467
GlifName: eng
Width: 499
VWidth: 1159
Flags: W
HStem: -319 60<162.258 279.828> -5 33<20.3636 69> 335 29<32 79.6511> 338 61<245.574 353.747> 396 20G<129 175>
VStem: 95 75<72.7464 318.176 330 331.265> 379 69<-89.8607 313.154>
LayerCount: 2
Fore
SplineSet
329 -267 m 4xd6
 284.360294118 -296 253 -319 194 -319 c 7
 162 -319 112 -308 87 -286 c 5
 88 -259 87 -259 136 -222 c 5
 165.972222222 -237.857142857 189.796296296 -259 219 -259 c 7
 247.822033898 -259 296.27809609 -258.437912348 316 -237 c 4
 342.595265849 -208.090672547 360.595200234 -175.050461911 367 -146 c 4
 373.749647059 -115.385402827 379 -41.9109823322 379 143 c 7
 379 192.5 376.549026451 266.820841347 374 287 c 4
 369 328.328358209 348 358 293 358 c 7xd6
 245 358 203 344.4 170 324 c 5
 168 234.329113924 161 109.430379747 161 71 c 7
 161 27.80589946 195.795590225 30.6204409775 232 27 c 5
 228 -7 l 5
 189 -1 159 4 117 4 c 7
 87 4 51 -1 21 -5 c 5
 18 28 l 5
 55.449092135 34.8089258427 78.318284601 37.5524032329 87 76 c 4
 94 107 95 167 95 199 c 7
 95 219 92.9313485794 287.976104104 86 308 c 4
 77 334 72 336 54 336 c 7
 44 336 41 335 32 335 c 5
 30 364 l 5
 67 371 104 375 154 416 c 5xee
 175 401 l 5
 170 387.056338028 167 366.915492958 167 346 c 5
 215 377 267 415 330 415 c 7
 403 415 448 375 448 304 c 7
 448 213.433607383 445 119.425469455 445 -84 c 7
 445 -134 432.819094368 -164.880515375 419 -186 c 4
 396.752808989 -220 368.44138087 -241.377070309 329 -267 c 4xd6
EndSplineSet
Validated: 1
Substitution2: "smcp-1" eng.smcp
Substitution2: "case-1" Eng
Substitution2: "pcap-1" eng.pcap
EndChar
StartChar: OE
Encoding: 338 338 346
GlifName: O_E_
Width: 1081
Flags: HW
HStem: -7 49<336.528 518.419> 3.06988 37.3024<639.125 901.73> 334 36<614 882.393> 650 44<298.396 500.529>
VStem: 37 93<266.365 448.041> 531 93<373.564 620.777> 534.995 79.0053<90.5 334 370 605.156> 906 36<248.75 306.348 394.846 442.094> 947 30<539 620.59> 1007 28<152.034 171.75>
AnchorPoint: "Bottom" 572.957 -15 basechar 0
AnchorPoint: "Top" 583.585 699 basechar 0
LayerCount: 2
Fore
SplineSet
385 650 m 3xbdc0
 244 650 130 535.515933333 130 377 c 3
 130 202.722537538 273 42 443 42 c 3
 495.7 42 533 62.631 533 92 c 1
 534.422110588 116.770777747 534.994687396 175.604459673 534.994687396 244.572312164 c 0xbbc0
 534.994687396 369.591771373 533.113224845 527.911675418 531 577 c 0
 528.17 641.262 448.642 650 385 650 c 3xbdc0
424 -7 m 3
 210 -7 37 145.659140762 37 336 c 3
 37 527.127628169 212 694 422 694 c 3
 507.490017004 694 461.789007914 684.96875 696.956054688 684.96875 c 3
 838.863027557 684.96875 966.475003159 689.186881304 983 693 c 1
 994.145145837 683.247997393 998.133414459 677.741599913 998.133414459 669.087387512 c 0
 998.133414459 652.893580795 984.168856119 625.677987617 977 539 c 1
 947 536 l 1
 936 572 955 619 919 630 c 0
 856 648 737 653 656 643 c 0
 638 641 625 627 624 609 c 0xbdc0
 620 526.970338983 615 445.953389831 614 370 c 1
 678 372 838 372 852 373 c 0
 889 378 894 404 910 448 c 1
 944 441 l 1
 935.800908316 410.132831309 932.486685813 379.498275435 932.486685813 348.871954284 c 0
 932.486685813 315.997648821 936.305294619 283.132831309 942 250 c 1
 906 241 l 1
 886 312 893 325 852 329 c 0
 808 334 707 333 614 334 c 1
 613 236.227091633 617 147.525896414 629 81 c 0
 633 64 642 50 659 49 c 0
 704.831179232 44.5647245905 745.319436302 40.3723092792 783.696225476 40.3723092792 c 0
 823.193090286 40.3723092792 860.453436792 44.8130178498 899 58 c 0
 958 78 968 101 1007 177 c 1
 1035 170 l 1
 1019 104 1008 62 996 0 c 1
 886.301 -0.545565 771.508 3.06988 667.928 3.06988 c 3x7bc0
 487.932 3.06988 491.022 -7.00001 424 -7 c 3
EndSplineSet
Position2: "cpsp-1" dx=0 dy=0 dh=50 dv=100
Substitution2: "c2pc-1" oe.pcap
Substitution2: "c2sc-1" oe.smcp
EndChar
StartChar: oe
Encoding: 339 339 871
GlifName: oe
Width: 735
VWidth: 1159
UnlinkRmOvrlpSave: 1
Flags: W
HStem: -14 39<190.397 302.402> 371 45<159.168 278.592> 425 168
VStem: 32 76<120.631 292.302> 359 78<100.689 280.313> 379 185
AnchorPoint: "Top" 395 465 basechar 0
AnchorPoint: "Bottom" 393 -15 basechar 0
LayerCount: 2
Fore
SplineSet
239 416 m 3xf8
 362.75 416 437 308 437 202 c 3
 437 75 350.796875 -14 238 -14 c 3
 123.044921875 -14 32 68 32 191 c 3
 32 348 156.200195312 416 239 416 c 3xf8
218 371 m 3
 149.25 371 108 301 108 224 c 3
 108 121 169.973632812 25 247 25 c 3
 317.646484375 25 359 99 359 178 c 3
 359 299 282.736328125 371 218 371 c 3
EndSplineSet
Refer: 4 101 N 1 0 0 1 326 0 2
Substitution2: "smcp-1" oe.smcp
Substitution2: "case-1" OE
Substitution2: "pcap-1" oe.pcap
EndChar
StartChar: uogonek
Encoding: 371 371 262
GlifName: uogonek
Width: 506
VWidth: 0
UnlinkRmOvrlpSave: 1
Flags: W
HStem: -324.658 60.1279<313.017 390.674> -18.7812 20G<319.052 378.615> -11 55<171 272> 338 31<291 350>
VStem: 69 76<71 327> 228.562 69.21<-251.259 -142.76> 358 65<36 52 75 331>
LayerCount: 2
Fore
SplineSet
379 -20 m 1xde
 308.413085938 -92.994140625 297.771484375 -127.711914062 297.771484375 -194.658203125 c 3
 297.771484375 -238.5234375 323.107421875 -264.530273438 355.166015625 -264.530273438 c 3
 374.918945312 -264.530273438 398.635742188 -253.841796875 422.97265625 -230.2578125 c 1
 422.97265625 -230.2578125 434.081054688 -240.584960938 436.771484375 -248.658203125 c 1
 409.767578125 -301.446289062 364.271484375 -324.658203125 322.771484375 -324.658203125 c 3
 272.798828125 -324.658203125 228.561523438 -286.8125 228.561523438 -223.493164062 c 3
 228.561523438 -173.491210938 265.803710938 -76.765625 372.30078125 1.21875 c 1
 379 -20 l 1xde
EndSplineSet
Refer: 20 117 N 1 0 0 1 0 0 3
Substitution2: "smcp-1" uogonek.smcp
Substitution2: "case-1" Uogonek
Substitution2: "pcap-1" uogonek.pcap
EndChar
StartChar: uni0193
Encoding: 403 403 2724
Width: 803
Flags: HW
HStem: -22 37<374.664 577.792> 310 32<497.562 613.119 730.522 761> 667 38<338.234 547.363> 785 73.7002<747.906 828.85>
VStem: 43 99<241.93 465.081> 638 87<51.334 298.464> 675 31<528.645 549.71>
LayerCount: 2
Fore
SplineSet
43 348 m 0xfc
 43 601.579101562 302 705 466 705 c 4
 522 705 564.28515625 687.428710938 604 677 c 4
 628.230078508 670.637429714 632.547025645 675.597423016 635.556968939 690.698367772 c 0
 643.603766138 731.069307729 665.591362738 763.380081078 694.950195312 792.549804688 c 0
 729.646328998 827.022450265 810.397957833 858.700195312 817.299804688 858.700195312 c 0
 840.400390625 858.700195312 877.799804688 827.899414062 877.799804688 798.200195312 c 0
 877.799804688 764.099609375 845.900390625 741 803 741 c 5
 794.0703125 778.125 774.723632812 785 752.400390625 785 c 4
 743.411027793 785 723.190950198 775.056327847 711.450195312 761.75 c 4
 696.603122798 744.92314207 690.055910627 683.813568065 694.977465962 636.335034246 c 2
 706 530 l 5
 675 524 l 5xfa
 631 620 549 667 443 667 c 4
 252 667 142 511.012695312 142 359 c 0
 142 169.799804688 296 15 483 15 c 0
 538 15 570.151367188 27.7373046875 620 51 c 0
 635 58 636 73 636 90 c 0
 636 128.721679688 638 192.916992188 638 251 c 0
 638 282 632.067363814 302.933289762 583 306 c 0
 551 308 528 309 496 310 c 1
 498 342 l 1
 600 332 712 333 761 339 c 1
 764 315 l 1
 736 308 725.566939206 301.016613534 725 280 c 0
 723 205.859375 722.445890383 138.809588436 720 85 c 0
 719 63 725 56 748 41 c 1
 745 20 l 1
 666 8 502 -22 448 -22 c 0
 220 -22 43 132.671875 43 348 c 0xfc
EndSplineSet
EndChar
StartChar: uni019C
Encoding: 412 412 2749
Width: 959
VWidth: 1159
Flags: HW
AnchorPoint: "Top" 475.75 790.5 basechar 0
AnchorPoint: "Bottom" 477.5 -25.5 basechar 0
LayerCount: 2
Fore
SplineSet
117.5 397.599609375 m 3
 117.5 492.658203125 113.75 582.793945312 113.75 612.5 c 0
 113.75 638 97.7373046875 647.1640625 83.75 649.899414062 c 0
 72.5 652.099609375 35 653.19921875 22.5 655.399414062 c 1
 28.75 692.200195312 l 1
 73.888671875 682.626953125 105.138671875 680.5 153.75 680.5 c 3
 191.25 680.5 238.75 686.272460938 271.25 693.200195312 c 1
 276.25 658.099609375 l 1
 262.5 655.5 249.87890625 657.05078125 236.25 651.599609375 c 0
 215 643.099609375 203.4765625 622.88671875 200 575.099609375 c 0
 197.5 540.735351562 191.25 460.416015625 191.25 428.200195312 c 3
 191.25 342.419921875 194.125976562 250.890625 198.75 215.700195312 c 0
 211.25 120.5703125 233.75 60.2001953125 313.75 60.2001953125 c 3
 355 60.2001953125 405 85.96484375 445 121.099609375 c 1
 443.75 135.434570312 443.75 149.76953125 443.75 168.200195312 c 3
 443.75 216.771484375 445 302.2578125 445 372.200195312 c 3
 445 473.375 443.25 582.227539062 441.25 613.5 c 0
 439.622070312 638.947265625 425.237304688 648.1640625 411.25 650.899414062 c 0
 400 653.099609375 380 654.19921875 367.5 656.399414062 c 1
 373.75 692.200195312 l 1
 422.5 682.626953125 440 680.5 492.5 680.5 c 3
 526.938476562 680.5 575.153320312 686.272460938 605 693.200195312 c 1
 610 659.099609375 l 1
 596.25 656.5 577.430664062 657.919921875 563.75 652.599609375 c 0
 541.892578125 644.099609375 535.62890625 623.369140625 527.75 576.099609375 c 0
 522.5 544.6015625 518.75 469.729492188 518.75 440.200195312 c 3
 518.75 356.634765625 524.536132812 231.184570312 527.5 197.099609375 c 0
 533.75 125.228515625 553.75 55.2001953125 615 55.2001953125 c 3
 675 55.2001953125 723.75 97.63671875 765 133 c 1
 767.5 294.366210938 776.25 517.442382812 776.25 586.599609375 c 3
 776.25 639.137695312 761.166015625 649.704101562 736 654.899414062 c 0
 724.75 657.099609375 701 659.299804688 688.5 660.399414062 c 1
 692.5 692.200195312 l 1
 737.736328125 685.818359375 772.534179688 680.5 821.25 680.5 c 3
 858.75 680.5 903.75 685.666992188 941.25 689.799804688 c 1
 945 659.700195312 l 1
 931.25 657.100585938 923.205078125 657.884765625 910 653.200195312 c 0
 881.25 642.720703125 865.776367188 625.31640625 858.75 578.099609375 c 0
 850 520.86328125 848.75 404.083007812 848.75 345 c 3
 848.75 308.064453125 854.956054688 181.299804688 860 143.700195312 c 0
 868.75 97.7998046875 877.5 96.099609375 900 96.099609375 c 3
 912.5 96.099609375 916.25 97.7998046875 927.5 97.7998046875 c 1
 930 64.5 l 1
 886.733398438 52.599609375 843.467773438 45.7998046875 785 -23.900390625 c 1
 758.75 1.599609375 l 1
 765 25.7353515625 768.75 60.5966796875 768.75 96.7998046875 c 1
 708.75 45.4287109375 633.75 -19.2001953125 558.75 -19.2001953125 c 3
 498.19921875 -19.2001953125 468.494140625 37.0771484375 452.5 91.7001953125 c 1
 403.75 48.50390625 332.5 -10.400390625 238.75 -10.400390625 c 3
 150.852539062 -10.400390625 115 66.099609375 115 186.799804688 c 3
 115 251.2109375 117.5 325.380859375 117.5 397.599609375 c 3
EndSplineSet
EndChar
StartChar: ohorn
Encoding: 417 417 448
GlifName: ohorn
Width: 505
UnlinkRmOvrlpSave: 1
Flags: HW
HStem: -11 39<199.926 327.747> 365.36 24.3843<349.604 421.731> 374 45<168.903 305.133> 382.741 20G<338.441 342.053>
VStem: 32 76<130.211 291.037> 395 78<107.641 276.826> 442.501 86.0273<403.736 481.559>
AnchorPoint: "Top" 251 465 basechar 0
AnchorPoint: "Bottom" 249 -15 basechar 0
AnchorPoint: "Middle" 255 206 basechar 0
LayerCount: 2
Fore
SplineSet
334.482421875 402.741210938 m 1x9a
 349.62424831 396.926343349 372.471667174 389.744140625 386.686523438 389.744140625 c 3
 411.796269819 389.744140625 442.501138157 408.271731058 442.501138157 441.560602678 c 3
 442.501138157 449.63955766 438.983530489 459.025418514 428.6640625 470.818359375 c 1
 444.576416165 489.781030223 464.379979468 500.219391987 482.796821553 500.219391987 c 3
 512.365850716 500.219391987 528.528388939 475.09191665 528.528388939 445.9790134 c 3
 528.528388939 396.089685559 450.426516037 365.359813167 388.72825766 365.359813167 c 3xca
 373.695621083 365.359813167 362.480285829 368.132123753 354 373.745753404 c 0
 344.65639898 379.930865178 338.633063123 389.565250163 334.482421875 402.741210938 c 1x9a
EndSplineSet
Refer: 14 111 N 1 0 0 1 0 0 2
Substitution2: "smcp-1" ohorn.smcp
Substitution2: "case-1" Ohorn
Substitution2: "pcap-1" ohorn.pcap
EndChar
StartChar: uni01A2
Encoding: 418 418 1512
GlifName: uni01A_2
Width: 863
UnlinkRmOvrlpSave: 1
Flags: HW
HStem: -164 40<565.125 668.789> -7 50<336.523 526.604> 665 41<309.595 516.315> 675 20G<661.5 786.692>
VStem: 37 93<267.4 455.858> 546.001 60.9629<134.616 584.297> 680 90<-112.969 162.979> 686.915 75.6025<91.454 569.742>
LayerCount: 2
Fore
SplineSet
556 668 m 1xdd
 815 712 l 1
 825 686 l 1
 810.512695312 649.621899264 798.517578125 485.450905591 798.517578125 327.6484375 c 3xdd
 798.517578125 203.588867188 798.138522029 65.2988204406 806 -88 c 0
 808 -127 860 -122 914 -124 c 1
 913 -163 l 1
 861.492702414 -157.390203162 804.263817434 -154.12109375 749.005859375 -154.12109375 c 0
 695.909203837 -154.12109375 644.632321015 -157.13949683 602 -164 c 1
 597 -124 l 1
 657 -124 713.939769904 -126.997083367 716 -77 c 0xde
 720.643554688 35.6884765625 722.915039062 184.162109375 722.915039062 329.857421875 c 3
 722.915039062 445.723219526 719.204077467 598.086642195 714 629 c 0
 712.200101007 639.691793489 700.270507812 653.02734375 683.625 653.02734375 c 3
 652.468119464 653.02734375 622.557872246 637.189514532 603 620 c 1
 556 668 l 1xdd
426 665 m 3xec
 262.329101562 665 130 563 130 384 c 3
 130 206.6015625 273 43 443 43 c 3
 479.974609375 43 508.85546875 48.2373046875 526 57 c 1
 538.351711978 73 546.000976562 263.72265625 546.000976562 360.349609375 c 3
 546.000976562 452.9939078 541.2890625 598.36404094 531 635 c 1
 500.9609375 652.814670139 460.143554688 665 426 665 c 3xec
422 706 m 3
 483.547626023 706 545.837368642 685.89827073 612 652.66796875 c 1
 608.607306469 554.847330717 606.963867188 457.026692701 606.963867188 359.206054688 c 3
 606.963867188 257.264648444 609.369119683 155.323242202 614 53.3818359375 c 1
 563.844532022 15.6906138771 498.210996857 -7 424 -7 c 3
 210 -7 37 148.774414062 37 343 c 3
 37 536.796875 212 706 422 706 c 3
EndSplineSet
Substitution2: "c2sc-1" gha.smcp
Substitution2: "c2pc-1" gha.pcap
EndChar
StartChar: uni01A5
Encoding: 421 421 2748
Width: 485
Flags: HW
HStem: -348 32<-6.65625 40.6963> -342 34<136.751 214> -10 41<152.88 312.791> 364 47<183.583 305.731> 660 107<246.336 306.412>
VStem: 61 66<-201.151 7 53.5032 342.369 364 626.602> 387 66<121.515 273.189>
AnchorPoint: "Bottom" 258 -15 basechar 0
LayerCount: 2
Fore
SplineSet
127 364 m 1xbe
 170 385 230 411 280 411 c 3
 377 411 453 308.474609375 453 216 c 3
 453 78.119140625 333 -10 216 -10 c 3
 185 -10 155 -2 129 7 c 1
 129 -75 129.065429688 -246.991210938 134 -284 c 0
 136 -299 154.9765625 -303.310546875 166 -304 c 0
 182 -305 201 -307 215 -308 c 1
 214 -342 l 1x7e
 175 -341 144 -339 102 -339 c 3
 72 -339 24 -344 -6 -348 c 1
 -9 -316 l 1
 2 -315 10.181640625 -313.822265625 21 -311 c 0
 44 -305 49.3134765625 -293.942382812 52 -266 c 0
 57 -214 61 -122 61 31 c 3
 61 165.400390625 64 402.515625 64 511 c 3
 64 605.576171875 84.666015625 648.938476562 133 696 c 0
 171 733 259.484375 766.18359375 267 767 c 1
 288 767 322 739 322 712 c 3
 322 681 293 660 254 660 c 1
 245.8828125 693.75 228.293945312 700 208 700 c 3
 194.829101562 700 164.484375 686.682617188 148 668 c 0
 133 651 134.110351562 589.998046875 133 540 c 0
 132.231445312 505.391601562 129.129882812 447.569335938 127 364 c 1xbe
236 364 m 3
 184 364 153 345 125 330 c 1
 127 64 l 1
 160 46 197 31 246 31 c 3
 330 31 387 88.1083984375 387 178 c 3
 387 270.497070312 327 364 236 364 c 3
EndSplineSet
EndChar
StartChar: uni01AA
Encoding: 426 426 2747
Width: 355
VWidth: 1159
Flags: W
HStem: -264.507 70<259.356 354.521> 573 37<47.6294 107.833> 691 48<62.2819 194.614>
VStem: 0.456055 44<613.054 674.114> 114.456 45<613.289 688.183> 201.474 76.9824<-171.409 99.7095> 211.456 76<391.061 674.209> 212.456 66<-36.0379 486.678>
AnchorPoint: "Bottom" 133.456 -15 basechar 0
LayerCount: 2
Fore
SplineSet
212.456054688 194 m 7xf9
 212.456054688 71.6015038881 201.473632812 -33.4860505391 201.473632812 -143.58984375 c 7xfc
 201.473632812 -212.013681575 220.827909651 -264.506835938 297.883789062 -264.506835938 c 7
 335.411463382 -264.506835938 371.476559169 -228.337705925 430 -193 c 5
 415.508789062 -162.614257812 l 5
 398.871174504 -171.894281546 373.927508313 -194.506835938 354 -194.506835938 c 7
 319.57265625 -194.506835938 282.633753682 -170.074204527 280 -122.506835938 c 4
 272.174804688 18.8214713456 278.456054688 145.327972165 278.456054688 260 c 7xf9
 278.456054688 337.412109375 287.456054688 507.83984375 287.456054688 632 c 3
 287.456054688 729 202.934570312 739 179.456054688 739 c 3
 114.568359375 739 0.4560546875 719.662109375 0.4560546875 636 c 3
 0.4560546875 609.255859375 21.2373046875 573 70.4560546875 573 c 3
 116.190429688 573 159.456054688 612.427734375 159.456054688 662 c 3
 159.456054688 719.541015625 106.456054688 818 106.456054688 818 c 1
 57.4560546875 798 l 1
 57.4560546875 798 114.456054688 714.2421875 114.456054688 651 c 3
 114.456054688 627.487304688 96.8095703125 610 82.4560546875 610 c 3
 60.7421875 610 44.4560546875 620.66796875 44.4560546875 644 c 3
 44.4560546875 677.663085938 99.162109375 691 137.456054688 691 c 3
 195.758789062 691 210.364070511 653.38767093 211.456054688 622 c 0xfa
 218.576914672 417.320101948 212.456054688 482.9296875 212.456054688 194 c 7xf9
EndSplineSet
Validated: 37
EndChar
StartChar: uni01EA
Encoding: 490 490 308
GlifName: uni01E_A_
Width: 845
UnlinkRmOvrlpSave: 1
Flags: HW
HStem: -346.889 73.7197<406.804 473.852> -13 50<350.825 545.448> 660 49<304.396 495.712>
VStem: 43 93<264.284 455.257> 315.766 71.875<-253.641 -127.154> 701 101<219.4 441.786>
AnchorPoint: "Middle" 417.697 364.853 basechar 0
AnchorPoint: "Top" 420 699 basechar 0
LayerCount: 2
Fore
SplineSet
499.177734375 3.734375 m 1
 426.834960938 -46.17578125 387.640625 -131.358398438 387.640625 -195.689453125 c 3
 387.640625 -237.126953125 415.827148438 -273.168945312 446.834960938 -273.168945312 c 3
 467.810546875 -273.168945312 492.994140625 -264.435546875 518.834960938 -245.168945312 c 9
 518.834960938 -245.168945312 529.944335938 -255.497070312 532.633789062 -263.569335938 c 1
 505.579101562 -311.305664062 453.14453125 -346.888671875 411.564453125 -346.888671875 c 3
 362.384765625 -346.888671875 315.765625 -298.078125 315.765625 -236.513671875 c 3
 315.765625 -152.803710938 349.834960938 -47.5556640625 492.478515625 36.453125 c 1
 499.177734375 3.734375 l 1
EndSplineSet
Refer: 40 79 N 1 0 0 1 0 0 3
Position2: "cpsp-1" dx=0 dy=0 dh=50 dv=100
EndChar
StartChar: uni01F6
Encoding: 502 502 1748
GlifName: uni01F_6
Width: 1078
VWidth: 1159
Flags: W
HStem: -41 60<722.472 835.814> -11 37<196.865 267.58> -9 42<19 85.0033> 326 40<186 596> 379 34<847.176 905.685 1007 1055.6> 654 38<19.4474 87.576 199.445 277.341> 662 37<697.958 748.135>
VStem: 89 97<42.9826 322.955> 101.317 84.6831<222.969 326 366 617.068> 594 80.0273<76.3025 166 166.029 326 366 439.69> 916 65<96.713 359.588>
LayerCount: 2
Fore
SplineSet
674.02734375 198.342773438 m 3x1ae0
 674.02734375 112.025733634 695.946445643 19 780 19 c 3
 884.172105614 19 916 83.9926474563 916 152 c 3
 916 222.85717266 915 285.835820896 915 335 c 3
 915 378.19410054 880.204409775 375.379559022 844 379 c 1
 848 413 l 1
 887 407 917 402 959 402 c 3
 989 402 1025 407 1055 411 c 1
 1058 378 l 1
 1021.87933082 371.432605604 994.804248313 368.689289932 989 330 c 0
 982 283.340206186 981 256.263099674 981 184 c 3
 981 45.6150442478 836.579844967 -41 749 -41 c 3x9ae0
 639.146377859 -41 594 50.7808469408 594 166 c 3
 594 166 595 205.201642336 596 326 c 1
 185 326 l 1
 184 237.358398438 182.16566652 134.018002642 186 65 c 0
 188 29 240 33 272 26 c 1
 272 26 268 3 267 -11 c 1x5960
 215.392393862 -2.39873231031 170.431590595 2.44564680006 127.612272285 2.44564680006 c 0
 90.7794837565 2.44564680006 55.5312407821 -1.1388469203 19 -9 c 1
 19 -9 14 15 12 33 c 1
 48 39 87.3366943002 39.0339950291 89 65 c 0x3960
 96.2525285306 178.21983199 101.316868541 344.932732317 101.316868541 468.148915494 c 0
 101.316868541 548.805656344 99.1468237866 610.824268099 94 627 c 0
 87 649 55 649 17 654 c 1
 20 692 l 1
 70.0298483717 685.600833348 114.306484551 681.909060669 162.673695598 681.909060669 c 0
 197.448454503 681.909060669 234.337727139 683.817424229 277 688 c 1
 279 651 l 1
 252 647 200.484398292 646.927416559 198 632 c 0
 192 595.94921875 188 469.282226562 186 366 c 1
 596 366 l 1
 596 433.891601562 593.688305698 511.532689182 591 611 c 0
 590 648 551 646 510 658 c 1
 515 692 l 1x3ce0
 556.052737713 685.86568287 589.312311919 681.957983886 622.76385661 681.957983886 c 0
 660.203671429 681.957983886 697.883961003 686.853022614 747 699 c 1
 753 662 l 1
 704 650 692.806142836 652.01317276 691 624 c 0
 683.799122875 512.314804924 674.02734375 329.207531575 674.02734375 198.342773438 c 3x1ae0
EndSplineSet
Validated: 33
Substitution2: "c2pc-1" uni0195.pcap
Substitution2: "c2sc-1" uni0195.smcp
EndChar
StartChar: uni0221
Encoding: 545 545 2726
Width: 624
VWidth: 1159
UnlinkRmOvrlpSave: 1
Flags: HW
AnchorPoint: "TopRight" 503.5 581 basechar 0
AnchorPoint: "Top" 390 734 basechar 0
AnchorPoint: "Bottom" 224 -15 basechar 0
LayerCount: 2
Back
SplineSet
488 38 m 7
 526.294117647 38 581 51.3364723992 581 85 c 7
 581 108.331882292 564.714285714 119 543 119 c 7
 528.64666382 119 511 101.512523661 511 78 c 7
 511 14.7574629778 568 -69 568 -69 c 5
 519 -89 l 5
 519 -89 466 9.45901639344 466 67 c 7
 466 116.572200037 509.265715784 156 555 156 c 7
 604.21875 156 625 119.74431275 625 93 c 7
 625 9.3377687285 510.8875 -10 446 -10 c 1031
228 359 m 3
 206 359 174.4998206 345.796757268 155 333 c 0
 123 312 98 278 98 226 c 3
 98 136 154 44 256 44 c 3
 297 44 333 60 358 80 c 1
 359 154 362 231 362 306 c 0
 362 337 336 340 310 346 c 0
 284 352 238 359 228 359 c 3
EndSplineSet
Fore
SplineSet
361 53 m 1
 317 23 260 -5 197 -5 c 3
 97 -5 34 79 34 172 c 3
 34 252 79.5630586283 321.640322119 135 359 c 0
 181 390 237 405 267 405 c 3
 292 405 349 388 363 386 c 1
 363 504 361 562.992063992 361 626 c 0
 361 642 354 656 337 656 c 3
 331 656 306 650 296 649 c 1
 288 681 l 1
 340 692 399 720 442 754 c 1
 462 738 l 1
 456 724 449.413489624 696.954544586 448 686 c 0
 428 531 427 380.576072156 427 185 c 3
 427 110.480769231 413.720072356 30 497 30 c 3
 531.588235294 30 581 45.8902649863 581 86 c 3
 581 108.64565046 565.142857143 119 544 119 c 3
 529.198122065 119 511 101.085999848 511 77 c 3
 511 14.1876843181 568 -69 568 -69 c 1
 519 -88 l 1
 519 -88 466 11.7213114754 466 70 c 3
 466 117.344235991 508.293452508 155 553 155 c 3
 602.921875 155 624 120.470774048 624 95 c 3
 624 2.40296733057 513.075 -19 450 -19 c 3
 432.84867063 -19 378.442569201 -12.0942250748 361 53 c 1
228 359 m 3
 206 359 174.4998206 345.796757269 155 333 c 0
 123 312 98 278 98 226 c 3
 98 136 154 44 256 44 c 3
 296.196078431 44 331.490196078 59.1111111111 356 78 c 1
 353 113 362 142 362 306 c 0
 362 337 336 340 310 346 c 0
 284 352 238 359 228 359 c 3
EndSplineSet
EndChar
StartChar: uni0234
Encoding: 564 564 2731
Width: 328
VWidth: 1159
UnlinkRmOvrlpSave: 1
Flags: HW
AnchorPoint: "Top" 121 734 basechar 0
AnchorPoint: "TopRight" 242 581 basechar 0
AnchorPoint: "Bottom" 119 -15 basechar 0
LayerCount: 2
Fore
SplineSet
91 274 m 3
 91 527 89.4401145653 602.958166956 88 626 c 0
 87 642 81 656 64 656 c 3
 58 656 32 650 22 649 c 1
 14 681 l 1
 66 692 126 720 169 754 c 1
 188 738 l 1
 182 724 176.459796002 696.948470013 175 686 c 0
 165 611 160 424 160 300 c 3
 160 169.711538462 146.530359104 29 231 29 c 3
 254.882352941 29 289 43.1877365949 289 79 c 3
 289 92.0384048104 280 98 268 98 c 3
 252.749580309 98 234 82.2186189137 234 61 c 3
 234 9.80366050584 283 -58 283 -58 c 1
 239 -73 l 1
 239 -73 194 7.7868852459 194 55 c 3
 194 97.8883078976 233.37666268 132 275 132 c 3
 312.265625 132 328 104.376619238 328 84 c 3
 328 0.337768728497 236.2 -19 184 -19 c 3
 166.84867063 -19 112.442569201 -12.0942250748 95 53 c 1
 75 102.111111111 91 237.166666667 91 274 c 3
EndSplineSet
EndChar
StartChar: uni0235
Encoding: 565 565 2730
Width: 613
VWidth: 1159
UnlinkRmOvrlpSave: 1
Flags: HW
AnchorPoint: "Top" 272 465 basechar 0
AnchorPoint: "Bottom" 269 -15 basechar 0
LayerCount: 2
Back
SplineSet
446 185 m 7
 446 110 432.720072356 29 516 29 c 7
 539.882352941 29 574 43.1877365949 574 79 c 7
 574 92.0384048104 565 98 553 98 c 7
 537.749580309 98 519 82.2186189137 519 61 c 7
 519 9.80366050584 568 -58 568 -58 c 5
 524 -73 l 5
 524 -73 479 7.7868852459 479 55 c 7
 479 97.8883078976 518.37666268 132 560 132 c 7
 597.265625 132 613 104.376619238 613 84 c 7
 613 0.337768728497 521.2 -19 469 -19 c 7
 451.84867063 -19 397.442569201 -12.0942250748 380 53 c 1029
EndSplineSet
Fore
SplineSet
379 143 m 7
 379 192.5 376.409977506 266.799352727 374 287 c 0
 369 328.910447761 348 359 293 359 c 3
 245 359 203 345 170 324 c 1
 168 234.329113924 161 109.430379747 161 71 c 3
 161 41 173.875388203 36.4721359549 194 32 c 0
 203 30 222 28 232 27 c 1
 228 -7 l 1
 189 -1 159 4 117 4 c 3
 87 4 51 -1 21 -5 c 1
 18 28 l 1
 29 30 35.1817100136 30.1778373948 46 33 c 0
 69 39 80.9078853108 49.0206349479 87 76 c 0
 94 107 95 167 95 199 c 3
 95 219 92.9313485794 287.976104104 86 308 c 0
 77 334 72 336 54 336 c 3
 44 336 41 335 32 335 c 1
 30 364 l 1
 67 371 104 375 154 416 c 1
 175 401 l 1
 170 387.056338028 167 366.915492958 167 346 c 1
 215 377 267 415 330 415 c 3
 403 415 448 375 448 304 c 3
 448 265.971428571 446 224.485714286 446 183 c 7
 446 108.961538462 432.720072356 29 516 29 c 7
 539.882352941 29 574 43.1877365949 574 79 c 7
 574 92.0384048104 565 98 553 98 c 7
 537.749580309 98 519 82.2186189137 519 61 c 7
 519 9.80366050584 568 -58 568 -58 c 5
 524 -73 l 5
 524 -73 479 7.7868852459 479 55 c 7
 479 97.8883078976 518.37666268 132 560 132 c 7
 597.265625 132 613 104.376619238 613 84 c 7
 613 0.337768728497 521.2 -19 469 -19 c 7
 451.84867063 -19 397.442569201 -12.0942250748 380 53 c 5
 375 73 379 128 379 143 c 7
EndSplineSet
EndChar
StartChar: uni0236
Encoding: 566 566 2728
Width: 341
VWidth: 1159
UnlinkRmOvrlpSave: 1
Flags: HW
AnchorPoint: "Top" 143.5 508 basechar 0
AnchorPoint: "TopRight" 313 531 basechar 0
AnchorPoint: "Bottom" 183 -15 basechar 0
LayerCount: 2
Fore
SplineSet
320 84 m 7
 320 7.64806078135 228.2 -10 176 -10 c 7
 152.52173913 -10 68 0 68 97 c 7
 68 197 72 259 74 357 c 1
 74 357 39 354 17 354 c 1
 14 370 l 1
 66 400 109 431 140 478 c 1
 155 475 l 1
 151 449 151 427 149 399 c 1
 199 401 258 400 308 402 c 1
 304 355 l 1
 254 355 196 357 146 358 c 1
 142 296 141 229 141 107 c 7
 141 73 158.393939394 38 223 38 c 7
 246.882352941 38 281 49.6339440078 281 79 c 7
 281 92.0384048104 272 98 260 98 c 7
 244.749580309 98 226 82.2186189137 226 61 c 7
 226 9.80366050584 275 -58 275 -58 c 5
 231 -73 l 5
 231 -73 186 7.7868852459 186 55 c 7
 186 97.8883078976 225.37666268 132 267 132 c 7
 304.265625 132 320 104.376619238 320 84 c 7
EndSplineSet
EndChar
StartChar: uni0237
Encoding: 567 567 52
GlifName: uni0237
Width: 265
Flags: HMW
VStem: -27 27<-331 -293> 82 68<-160 327>
AnchorPoint: "Top" 120 465 basechar 0
LayerCount: 2
Fore
SplineSet
-27 -330 m 1
 -22 -276 -15 -252 15 -220 c 0
 35 -198 57 -166 66 -140 c 0
 75 -115 82 -55 82 96 c 3
 82 221 78 253 76 301 c 0
 75 317 69 330 52 330 c 3
 46 330 31 326 22 325 c 1
 15 357 l 1
 67 369 104 383 157 431 c 1
 177 415 l 1
 171 401 166 374 164 363 c 0
 154 319 150 217 150 196 c 3
 150 88 149 -32 149 -84 c 3
 149 -134 137 -165 123 -186 c 0
 101 -220 66 -245 34 -267 c 0
 20 -277 1 -308 0 -335 c 5
 -27 -330 l 1
EndSplineSet
EndChar
StartChar: uni0238
Encoding: 568 568 2703
Width: 717
VWidth: 1159
Flags: W
HStem: -10 41<414.89 559.174> -5 49<165.359 265.907> 359 46<156.342 306.351 452.715 545.853> 649 32<259.25 301.705> 734 20G<385.5 427>
VStem: 29 64<129.107 267.489> 313 24<-5.75 7.445> 327 65<66.7512 334.815 386 586.338> 622 66<112.646 268.802>
LayerCount: 2
Back
SplineSet
466 -9 m 3
 404 -9 397 15 364 15 c 3
 350.200195312 15 341.200195312 -3 337 -10 c 5
 313 -4 l 1
 320.500976562 45.0244140625 323.362304688 39.4501953125 324 145 c 1025
EndSplineSet
Fore
SplineSet
209 359 m 3x7d80
 154.83203125 359 93 299.83984375 93 226 c 3
 93 136 142.974609375 44 234 44 c 3
 269.774414062 44 301.186523438 60 323 80 c 1
 324 154 327 231 327 306 c 0
 327 337 301.780273438 339.104492188 277 346 c 0
 255.439453125 352 217.29296875 359 209 359 c 3x7d80
392 355 m 1
 431.627929688 376 486.921875 402 533 402 c 3
 619.907226562 402 688 300 688 208 c 3
 688 75 577.114257812 -10 469 -10 c 3
 442.275390625 -10 421.526367188 -4.9287109375 394 7 c 0
 364 20 352 19 337 -10 c 1
 313 -4 l 1xbe80
 314 5.279296875 320 34 321 49 c 1
 281.829101562 21.0693359375 231.084960938 -5 175 -5 c 3
 85.4296875 -5 29 79 29 172 c 3
 29 296.686523438 134.291015625 405 238 405 c 3
 261.4375 405 314.875 388 328 386 c 1
 328 504 326 562.9921875 326 626 c 0
 326 642 319 656 302 656 c 3
 296 656 271 650 261 649 c 1
 253 681 l 1
 305 692 364 720 407 754 c 1
 427 738 l 1
 421 724 414.456054688 696.94921875 413 686 c 0
 399.221679688 582.413085938 393.979492188 469.237304688 392 355 c 1
489 355 m 3
 442.622070312 355 414.97265625 336 390 321 c 1
 392 64 l 1xbd80
 421.671875 46 454.94140625 31 499 31 c 3
 572.276367188 31 622 85 622 170 c 3
 622 262 569.15234375 355 489 355 c 3
EndSplineSet
Validated: 33
EndChar
StartChar: uni024A
Encoding: 586 586 2721
Width: 717
VWidth: 1159
Flags: W
HStem: -7 50<336.523 583.668> 665 41<309.595 553.224>
VStem: 37 93<267.4 455.858> 588.001 76.5166<-203.226 9.94531 51.0381 567.606>
LayerCount: 2
Fore
SplineSet
585.13671875 9.9453125 m 1
 537.3943428 -0.903991217266 482.910485664 -7 424 -7 c 0
 210 -7 37 148.774414062 37 343 c 0
 37 536.796875 212 706 422 706 c 0
 528.166325518 706 583.782965456 663.562606089 670 705 c 1
 688 682 l 1
 675.153856165 646.027959731 664.517578125 483.689479275 664.517578125 327.6484375 c 3
 664.517578125 167.363185227 661.319382952 -9.36498807149 665.547851562 -207.0078125 c 1
 699.704212887 -187.746508669 747.827659854 -137.514013906 804.559570312 -101.375976562 c 1
 826 -126 l 1
 732.048405308 -202.522383456 640.48425521 -290.483436485 619.721679688 -320.849609375 c 1
 579.16796875 -303.8984375 l 1
 588.129862726 -280.364045803 585.13671875 -103.843354299 585.13671875 9.9453125 c 1
426 665 m 0
 262.329101562 665 130 563 130 384 c 0
 130 206.6015625 273 43 443 43 c 0
 504.78099045 43 554.14106919 47.4178673777 585.946128444 54.9273099482 c 1
 587.322463816 140.092841211 588.000976562 234.291462012 588.000976562 327.349609375 c 0
 588.000976562 432.137326696 583.2890625 596.561955921 573 638 c 1
 530.9453125 654.033203125 485.000976563 665 426 665 c 0
EndSplineSet
Validated: 33
EndChar
StartChar: uni024B
Encoding: 587 587 2720
Width: 491
VWidth: 1159
Flags: HW
AnchorPoint: "Top" 272 465 basechar 0
AnchorPoint: "Bottom" 218 -15 basechar 0
LayerCount: 2
Fore
SplineSet
432 93 m 7
 432 -6.98242297344 427.207254437 -117.22157925 433.543945312 -240.506835938 c 5
 457.860448928 -227.21533076 492.120362068 -192.551765402 532.508789062 -167.614257812 c 5
 552 -190 l 5
 479.073415515 -250.479705811 408 -320 391.883789062 -344 c 5
 355.017578125 -328.58984375 l 5
 364 -302 361 -102.56176228 361 26 c 5
 328 12 277 -9 217 -9 c 3
 112 -9 32 89 32 181 c 3
 32 306.74789916 151 413 292 413 c 3
 369 413 369 389 400 389 c 3
 423 389 431 410 438 417 c 1
 457 406 l 1
 455 400 451.1144823 383.343446901 448 374 c 0
 442 356 438.178824508 335.988023903 433 260 c 0
 431.357498639 235.899852856 432 133.543352601 432 93 c 7
362 68 m 1
 364 157.65106383 367 208.323404255 367 297 c 3
 367 303 362.813776741 318.844582472 357 326 c 0
 331 358 284 369 243 369 c 3
 166 369 106 295.85 106 215 c 3
 106 125 159 34 260 34 c 3
 323 34 352 58 362 68 c 1
EndSplineSet
EndChar
StartChar: uni0251
Encoding: 593 593 1118
GlifName: uni0251
Width: 498
VWidth: 1159
Flags: W
HStem: -6 49<164.02 278.457> 11 27<461.401 490.333> 367 44<190.051 323.309>
VStem: 23 74<112.241 254.162> 348 65<68.5746 343.222> 419 19<418.755 424.053>
LayerCount: 2
Fore
SplineSet
421 32 m 0xbc
 424.682539696 18.3457368785 434.038476052 21.7252788721 435 22 c 0
 449 26 476 34 488 38 c 1
 497 11 l 1x7c
 444 -9 381 -32 367 -32 c 3
 360 -32 349.65732448 -30.1184630346 349 -15 c 0
 348 8 348 49 348 53 c 1
 309.958333333 29.4 251.166666667 -6 182 -6 c 3
 91.7567567568 -6 23 78.0736842105 23 157 c 3
 23 294.672268908 148.407692308 411 297 411 c 3
 356.888888889 411 356.888888889 403 381 403 c 3
 404 403 412 424 419 431 c 1
 438 420 l 1
 436 414 432.1144823 397.343446901 429 388 c 0
 423 368.736842105 417.044137507 347.444029799 414 266 c 0
 413 241 413 135 413 93 c 3
 413 72.7768968193 416.139970846 50.0202040812 421 32 c 0xbc
343 84 m 1
 345 169.736170213 348 218.195744681 348 303 c 3
 348 309 343.813776741 324.844582472 338 332 c 0
 317.473684211 358.046511628 280.368421053 367 248 367 c 3
 163.131386861 367 97 283.4 97 191 c 3
 97 117.408839779 146.558441558 43 241 43 c 3xbc
 304 43 333 71.9411764706 343 84 c 1
EndSplineSet
Validated: 1
EndChar
StartChar: uni0255
Encoding: 597 597 2745
Width: 446
Flags: HW
HStem: -11 51<192.173 352.464> 119 37<312.64 371.533> 353 60<173.351 298.847>
VStem: 34 72<128.38 275.205> 260 45<42.8186 115.223> 375 44<57.6237 116.408>
AnchorPoint: "Top" 231 465 basechar 0
AnchorPoint: "Bottom" 228 -15 basechar 0
LayerCount: 2
Back
SplineSet
282 38 m 7
 320.294117647 38 375 51.3364723992 375 85 c 7
 375 108.331882292 358.714285714 119 337 119 c 7
 322.64666382 119 305 101.512523661 305 78 c 7
 305 14.7574629778 362 -69 362 -69 c 5
 313 -89 l 5
 313 -89 260 9.45901639344 260 67 c 7
 260 116.572200037 303.265715784 156 349 156 c 7
 398.21875 156 419 119.74431275 419 93 c 7
 419 9.3377687285 304.8875 -10 240 -10 c 1031
EndSplineSet
Fore
SplineSet
232 -11 m 3
 183 -11 34 7 34 182 c 3
 34 307.648535565 145 413 267 413 c 3
 315 413 364 393 395 370 c 1
 394 343 393 345 338 313 c 1
 300 333 248 353 214 353 c 3
 144 353 106 300.154929577 106 219 c 3
 106 113 178 40 274 40 c 3
 315.588235294 40 375 52.7689629354 375 85 c 3
 375 108.331882292 359.142857143 119 338 119 c 3
 323.198122065 119 305 100.659476035 305 76 c 3
 305 13.6179056584 362 -69 362 -69 c 1
 313 -88 l 1
 313 -88 260 9.19672131147 260 66 c 3
 260 116.129191049 302.779584146 156 348 156 c 3
 397.921875 156 419 120.319799849 419 94 c 3
 419 8.71325938342 299.7875 -11 232 -11 c 3
EndSplineSet
EndChar
StartChar: uni0256
Encoding: 598 598 2719
Width: 511
Flags: HW
HStem: -264.507 70<396.493 485.731> -5 49<178.135 295.239> 359 46<179.815 341.536> 649 32<294.25 336.705> 734 20G<420.5 462>
VStem: 34 64<133.032 265.894> 350.018 76.9824<-179.879 49.4797> 361 66<-127.997 53 67.5748 336.846>
AnchorPoint: "TopRight" 503.5 581 basechar 0
AnchorPoint: "Top" 390 734 basechar 0
AnchorPoint: "Bottom" 224 -15 basechar 0
LayerCount: 2
Back
SplineSet
426 55 m 3xe8
 426 -1.51269531285 424.820861155 -64.3292355529 428.543945312 -133.506835938 c 0
 430.712113361 -173.79296875 457.955616231 -194.506835938 483.543945312 -194.506835938 c 3
 501.851562501 -194.506835938 524.767578125 -177.216796875 540.052734375 -170.12109375 c 1
 554.543945312 -200.506835938 l 1
 498.235351563 -232.134765625 463.535156251 -264.506835938 427.427734375 -264.506835938 c 3
 365.557488974 -264.506835938 350.017578125 -216.7890625 350.017578125 -154.58984375 c 3xf0
 350.017578125 -86.5590221972 362 -21.6273152742 362 54 c 1031
EndSplineSet
Fore
SplineSet
427 185 m 7xfd
 427 89.5144454052 422.207254437 -15.7665296108 428.543945312 -133.506835938 c 4
 430.712113361 -173.79296875 457.955616231 -194.506835938 483.543945312 -194.506835938 c 7
 501.851562501 -194.506835938 524.767578125 -177.216796875 540.052734375 -170.12109375 c 5
 554.543945312 -200.506835938 l 5
 498.235351563 -232.134765625 463.535156251 -264.506835938 427.427734375 -264.506835938 c 7
 365.557488974 -264.506835938 350.017578125 -216.7890625 350.017578125 -154.58984375 c 7xfe
 350.017578125 -86.8851685729 361 -22.2647505687 361 53 c 5
 316.272727273 23 259.618181818 -5 197 -5 c 3
 97 -5 34 79 34 172 c 3
 34 252 79.5630586284 321.640322119 135 359 c 0
 181 390 237 405 267 405 c 3
 292 405 349 388 363 386 c 1
 363 504 361 562.992063992 361 626 c 0
 361 642 354 656 337 656 c 3
 331 656 306 650 296 649 c 1
 288 681 l 1
 340 692 399 720 442 754 c 1
 462 738 l 1
 456 724 449.413489624 696.954544586 448 686 c 0
 428 531 427 354 427 185 c 7xfd
228 359 m 3
 206 359 174.4998206 345.796757268 155 333 c 0
 123 312 98 278 98 226 c 3
 98 136 154 44 256 44 c 3
 297 44 333 60 358 80 c 1
 359 154 362 231 362 306 c 0
 362 337 336 340 310 346 c 0
 284 352 238 359 228 359 c 3
EndSplineSet
EndChar
StartChar: uni025A
Encoding: 602 602 2755
Width: 562
UnlinkRmOvrlpSave: 1
Flags: HW
HStem: -8 47<151.396 249.472> 95.5635 52.5<451.248 526.714> 367 50<103.846 228.806>
VStem: 292 75<121.285 301.589> 412.039 57.4753<159.337 277.443>
LayerCount: 2
Fore
SplineSet
414.276367188 277.443359375 m 1
 414.276367188 243.9713234 412.0390625 215.783897853 412.0390625 186.250976562 c 3
 412.0390625 134.933236347 425.149524633 95.5634765625 477.346679688 95.5634765625 c 3
 501.392496717 95.5634765625 524.501168121 118.040074393 562 140 c 5
 551.130859375 162.7890625 l 1
 542.557277479 158.504247818 529.703477788 148.063476562 519.434570312 148.063476562 c 3
 496.870703125 148.063476562 475.141289294 166.614738798 470.934570312 202.063476562 c 0
 466.297944032 241.134912003 468.616295143 286.18931991 469.514322862 315.999998854 c 1
 448 327.576171875 l 5
 314.639931757 257.455829682 153.467639438 182.967579318 20 131 c 5
 20 107 l 1
 31 106 46 98 51 86 c 0
 71.3556074335 37.1465421596 132 -8 190 -8 c 3
 224 -8 367 52 367 227 c 3
 367 334 306 417 199 417 c 3
 130 417 70 382 28 349 c 1
 49 322 l 1
 77 345 116 367 163 367 c 3
 222 367 292 321 292 207 c 3
 292 130.837433832 268.704814097 39 204 39 c 3
 158.425531915 39 112.85106383 89.9625 102 135 c 1
 110 139 l 4
 414.276367188 277.443359375 l 1
EndSplineSet
EndChar
StartChar: uni025B
Encoding: 603 603 1189
GlifName: uni025B_
Width: 358
Flags: HW
HStem: -15 51<144.569 275.805> 189 29<188.267 275.734> 367 50<126.125 237.259>
VStem: 28 81<68.003 143.972> 47 66<264.248 348.557>
LayerCount: 2
Fore
SplineSet
288 317 m 1xe8
 250 342 199 367 165 367 c 3
 129 367 113 351 113 327 c 3xe8
 113 278 137 224 277 218 c 1
 277 208 276 198 275 189 c 1
 117 189 109 157 109 111 c 3
 109 71 159 36 224 36 c 3
 263 36 296 52 319 68 c 1
 335 42 l 1
 301 15 242 -15 182 -15 c 3
 90 -15 28 29 28 86 c 3xf0
 28 121 63 190 145 199 c 1
 75 221 47 258 47 284 c 3
 47 360 128 417 217 417 c 3
 265 417 314 397 345 374 c 1
 344 347 343 349 288 317 c 1xe8
EndSplineSet
Substitution2: "case-1" uni0190
EndChar
StartChar: uni025D
Encoding: 605 605 2756
Width: 525
VWidth: 1159
Flags: W
HStem: -9 49<123.741 242.237> 95.5635 52.5<411.248 486.714> 209 27<85.2219 174.884> 236 20<220.95 261.61> 372 51<93.3303 216.373>
VStem: 235 73<274.501 351.833> 260 70<66.5074 161.157> 372.039 57.4756<159.337 277.443>
LayerCount: 2
Back
SplineSet
200 226 m 5
 264.862778045 252.853039808 343.189499545 291.343113399 408 327.576171875 c 5
 429.514648438 316 l 5
 428.616826581 286.189320756 426.299006926 241.134912396 430.934570312 202.063476562 c 4
 435.140338298 166.614625956 456.870703125 148.063476562 479.434570312 148.063476562 c 7
 489.703477788 148.063476562 502.557277479 158.504247818 511.130859375 162.7890625 c 5
 522 140 l 5
 484.501168121 118.040074393 461.392496717 95.5634765625 437.346679688 95.5634765625 c 7
 385.149524633 95.5634765625 372.0390625 134.933236347 372.0390625 186.250976562 c 7
 372.0390625 215.783897853 374.276367188 243.9713234 374.276367188 277.443359375 c 5
 224 210 l 5
 200 226 l 5
EndSplineSet
Fore
SplineSet
219 256 m 5xd9
 269.580548175 265.132966956 333.893341197 284.220902907 408 327.576171875 c 1
 429.514648438 316 l 1
 428.616826581 286.189320756 426.299006926 241.134912396 430.934570312 202.063476562 c 0
 435.140338298 166.614625956 456.870703125 148.063476562 479.434570312 148.063476562 c 3
 489.703477788 148.063476562 502.557277479 158.504247818 511.130859375 162.7890625 c 1
 522 140 l 1
 484.501168121 118.040074393 461.392496717 95.5634765625 437.346679688 95.5634765625 c 3
 385.149524633 95.5634765625 372.0390625 134.933236347 372.0390625 186.250976562 c 3
 372.0390625 215.783897853 374.276367188 243.9713234 374.276367188 277.443359375 c 1
 320.221242471 253.512037477 261.438907362 243.015705075 222 236 c 5
 219 256 l 5xd9
EndSplineSet
Refer: 1769 604 N 1 0 0 1 0 0 2
Validated: 37
EndChar
StartChar: uni0261
Encoding: 609 609 1727
GlifName: uni0261
Width: 463
VWidth: 1159
UnlinkRmOvrlpSave: 1
Flags: W
HStem: -319 60<136.702 255.206> -9 43<175.235 298.553> 375 44<175.783 305.372>
VStem: 32 74<114.071 277.274> 338 65<-87.6784 344.282> 410 19<410.755 416.053>
AnchorPoint: "Top" 252 465 basechar 0
AnchorPoint: "Bottom" 198 -15 basechar 0
LayerCount: 2
Fore
SplineSet
344 32 m 1
 310.083053234 15.6001291583 257.666946766 -9 196 -9 c 3
 102.91900059 -9 32 89.5152715203 32 182 c 3
 32 310.45761565 143.218817718 419 275 419 c 3
 344.157156808 419 344.157156808 395 372 395 c 3
 395 395 403 416 410 423 c 1
 429 412 l 1
 427 406 423.114234804 389.343131783 420 380 c 0
 414.000418527 362.000432249 408.04432932 342.108232993 405 266 c 0
 404 241 404 208.443359375 404 183 c 3
 404 75.7718062383 403 -43.371196161 403 -95 c 3
 403 -145 390.818956684 -175.880611215 377 -197 c 0
 354.752929688 -231 326.441437189 -252.377000749 287 -278 c 0
 249.55308107 -302.327267059 221.696296296 -319 171 -319 c 3
 132.719626168 -319 72.906542056 -304 43 -274 c 1
 44 -247 43 -247 92 -210 c 1
 129.556099398 -231.00036951 159.406908886 -259 196 -259 c 3
 219.176667204 -259 258.80566161 -259.641451465 274 -248 c 0
 302.595703125 -226.090820312 318.08871751 -185.934534561 325 -157 c 0
 332.3125 -125.220493621 338 -48.9492728157 338 143 c 3
 338 197.415039062 338 260.661132812 338 303 c 3
 338 309 333.484375679 324.52903977 328 332 c 0
 304.508713108 364.000446429 262.043565538 375 225 375 c 3
 158.117142229 375 106 299.475352894 106 216 c 3
 106 125.503180427 152.11702474 34 240 34 c 3
 302.38256392 34 331.098162287 62.9410351562 341 75 c 1
 344 32 l 1
EndSplineSet
EndChar
StartChar: uni026D
Encoding: 621 621 2815
Width: 248
Flags: HW
AnchorPoint: "Top" 121 734 basechar 0
AnchorPoint: "TopRight" 242 581 basechar 0
LayerCount: 2
Fore
SplineSet
91 228 m 3
 91 514.0625 89.6269800709 599.968318866 88 626 c 0
 87 642 81 656 64 656 c 3
 58 656 32 650 22 649 c 1
 14 681 l 1
 66 692 126 720 169 754 c 1
 188 738 l 1
 182 724 176.306657702 696.967800402 175 686 c 0
 165 602.062176166 160 392.777202073 160 254 c 3
 160 137.828850863 154.568887355 14.6755174678 162.543945312 -133.506835938 c 0
 164.712113361 -173.79296875 191.955616232 -194.506835938 217.543945312 -194.506835938 c 3
 235.851562501 -194.506835938 258.767578125 -177.216796875 274.052734375 -170.12109375 c 1
 288.543945312 -200.506835938 l 1
 232.235351563 -232.134765625 197.535156251 -264.506835938 161.427734375 -264.506835938 c 3
 97.9589843747 -264.506835938 82.017578125 -216.7890625 82.017578125 -154.58984375 c 3
 82.017578125 -75.8095528204 91 -2.71357403515 91 228 c 3
EndSplineSet
EndChar
StartChar: uni026E
Encoding: 622 622 2817
Width: 594
Flags: HW
AnchorPoint: "Top" 366.5 465 basechar 0
LayerCount: 2
Fore
SplineSet
158 300 m 3
 158 218 159.046063715 91.1545221377 164 54 c 0
 166.125 39 186.836089483 36.8208035995 198 33 c 0
 205.333333333 30.3333333333 213.583333333 29.6666666667 220 29 c 1
 215 -5 l 1
 184.112 -0.0909090909091 149.264 4 116 4 c 3
 86 4 40 -1 10 -5 c 1
 8 28 l 1
 19 29 34.1817100136 30.1778373948 45 33 c 0
 68 39 80.3132247115 48.0575369992 83 76 c 0
 88 128 91 209 91 274 c 3
 91 527 89.4401145653 602.958166956 88 626 c 0
 87 642 81 656 64 656 c 3
 58 656 32 650 22 649 c 1
 14 681 l 1
 66 692 126 720 169 754 c 1
 186 738 l 1
 180 724 174.459796002 696.948470013 173 686 c 0
 163 611 158 424 158 300 c 3
588 -113 m 3xec
 588 -180.474609375 547.492048151 -256.133914148 485 -301 c 0
 446 -329 409 -353 350 -353 c 3
 303.64453125 -353 231.21484375 -335 195 -299 c 1
 196 -272 195 -272 244 -235 c 1
 300.333007812 -262 345.111328125 -298 400 -298 c 3
 493.27734375 -298 531 -186.76953125 531 -117 c 3
 531 -4.322265625 426.768554688 68.4931640625 335.169921875 68.4931640625 c 3
 314.450796437 68.4931640625 293.403412739 65.1585354873 274 58 c 1
 252 90 l 1
 331.013976793 171.793840681 409.260021097 265.5 476 360 c 1
 445.876953125 361 417.123046875 362 387 362 c 3xec
 291.383299002 362 169.066965837 359.75631301 146 360 c 1
 147 397 l 1xdc
 173.929638365 395.588235294 209.42629717 395 371 395 c 3
 466.874023438 395 545.03125 394 569 401 c 1
 579 381 l 1
 507.888671875 298.025390625 425.780273438 214.317382812 362 124 c 1
 371.612304688 125.752929688 381.33984375 126.625976562 391.081054688 126.625976562 c 3
 488.807617188 126.625976562 588 44.8710937503 588 -113 c 3xec
EndSplineSet
EndChar
StartChar: uni027F
Encoding: 639 639 2816
Width: 358
Flags: HW
AnchorPoint: "Bottom" 230 -15 basechar 0
LayerCount: 2
Fore
SplineSet
220 246 m 3
 220 303.416666667 203.466491632 332.729040584 180 352 c 0
 173.724813371 357.153257195 147.721518987 370 130 370 c 3
 109.166666667 370 105 360.357142857 105 343 c 3
 105 334 111 321 112 316 c 1
 37 286 l 1
 33 296 28 316 28 326 c 3x03b0
 28 340 36.0533912764 353.397443175 55 367 c 0
 105.615942029 403.339285714 168.195652174 422 182 422 c 3
 196.721649485 422 241.190862372 393.201735018 250 384 c 0
 275.333333333 357.537634409 288 307.571428571 288 277 c 3
 288 240.197183099 290.277593954 111.479138616 292 76 c 0
 293.361176397 47.9616833812 309 37 319 33 c 0
 329 29 340 29 351 28 c 1
 349 -5 l 1
 319 -1 289 4 259 4 c 3
 217 4 145 1 106 0 c 1
 105 32 l 1
 119 33 137 33 153 34 c 0
 189.981854842 36.3113659276 199.094834723 40.8162005438 210 52 c 0
 220.858670786 63.136117 220 193.458333333 220 246 c 3
EndSplineSet
EndChar
StartChar: uni0281
Encoding: 641 641 2820
Width: 496
Flags: HW
LayerCount: 2
Fore
SplineSet
178 185.194335938 m 1x2e
 177 143.568359375 176.141870544 88.7710263708 183 52.1943359375 c 0
 189 20.1943359375 202 18.1943359375 215 16.1943359375 c 1
 276.354166667 16.8693949382 309 45 310 81 c 1
 310 141.985885417 253 186 202 187 c 1
 192.490566038 187 187.509433962 186.097167969 178 185.194335938 c 1x2e
60 -0.8056640625 m 1x76
 60 23.1943359375 l 1
 96 24.1943359375 104 31.1943359375 109 63.1943359375 c 1
 111.161132812 111.770507812 112.201171875 147.366210938 112.201171875 182.44140625 c 3
 112.201171875 228.513671875 110.40625 273.686523438 107 346.194335938 c 1
 104 371.194335938 93 376.194335938 62 378.194335938 c 1
 66 405.194335938 l 1
 89.42578125 400.689453125 113.663085938 398.620117188 137.98046875 398.620117188 c 0
 167.643554688 398.620117188 197.42578125 401.69921875 226 407.194335938 c 1
 231 378.194335938 l 1
 201 373.194335938 190.01189389 371.096623389 187 345.194335938 c 0
 182 302.194335938 180 264.194335938 178 212.194335938 c 1
 198.641329451 213.190425312 207.518728562 215 229 215 c 1
 294.011235955 342.574821921 383.421457667 425.007783778 492 415.194335938 c 1xae
 498 386 l 1
 378 386 299.040609137 239.6 297 203 c 1
 339.683673469 191.283538696 386 151.078288824 386 100.194335938 c 1
 386 40.1943359375 322 -7.8056640625 246 -7.8056640625 c 1
 197 -7.8056640625 178 0.1943359375 135 0.1943359375 c 1
 105 0.1943359375 87 0.1943359375 60 -0.8056640625 c 1x76
EndSplineSet
EndChar
StartChar: uni0285
Encoding: 645 645 2819
Width: 358
Flags: HW
LayerCount: 2
Fore
SplineSet
288 277 m 3
 288 307.571289062 275.333007812 357.538085938 250 384 c 0
 241.190429575 393.202148329 196.721679688 422 182 422 c 3
 168.1953125 422 105.616210937 403.338867188 55 367 c 0
 36.0535021732 353.397751719 28 340 28 326 c 3x03b0
 28 316 33 296 37 286 c 1
 112 316 l 1
 111 321 105 334 105 343 c 3
 105 360.357421875 109.166992188 370 130 370 c 3
 147.721679688 370 173.724609375 357.153320312 180 352 c 0
 203.466643931 332.729305941 220 303.416992188 220 246 c 3
 220 -15.2316979235 212.017578125 -23.9389180573 212.017578125 -154.58984375 c 3
 212.017578125 -216.7890625 227.557488974 -264.506835938 289.427734375 -264.506835938 c 3
 325.535156251 -264.506835938 360.235351563 -232.134765625 416.543945312 -200.506835938 c 1
 402.052734375 -170.12109375 l 1
 386.767578125 -177.216796875 363.851562501 -194.506835938 345.543945312 -194.506835938 c 3
 319.955616232 -194.506835938 292.681157537 -173.79462284 290.543945312 -133.506835938 c 0
 285 -29 288 60.9791676713 288 277 c 3
EndSplineSet
EndChar
StartChar: uni0287
Encoding: 647 647 2818
Width: 341
Flags: HW
AnchorPoint: "Top" 168 465 basechar 0
AnchorPoint: "Bottom" 191 -62 basechar 0
LayerCount: 2
Fore
SplineSet
327 35 m 1
 275 5 232 -26 201 -73 c 1
 186 -70 l 1
 190 -44 190 -22 192 6 c 1
 142 4 83 5 33 3 c 1
 37 50 l 1
 87 50 145 48 195 47 c 1
 199 109 200 176 200 298 c 3
 200 332 186 367 134 367 c 3
 92 367 62 350 32 336 c 1
 32 336 26 349 21 359 c 1
 59 384 123 415 181 415 c 3
 201 415 273 405 273 308 c 3
 273 208 269 146 267 48 c 1
 267 48 302 51 324 51 c 1
 327 35 l 1
EndSplineSet
EndChar
StartChar: uni0288
Encoding: 648 648 2821
Width: 341
Flags: HW
AnchorPoint: "Top" 143.5 508 basechar 0
AnchorPoint: "TopRight" 313 531 basechar 0
LayerCount: 2
Fore
SplineSet
14 370 m 1
 66 400 109 431 140 478 c 1
 155 475 l 1
 151 449 151 427 149 399 c 1
 199 401 258 400 308 402 c 1
 304 355 l 1
 254 355 196 357 146 358 c 1
 142 233.505976096 141 98.9721115538 141 -146 c 7
 141 -180 155 -215 207 -215 c 7
 249 -215 279 -198 309 -184 c 5
 309 -184 315 -197 320 -207 c 5
 282 -232 218 -263 160 -263 c 7
 140 -263 68 -253 68 -156 c 7
 68 41.3076923077 72 163.638461538 74 357 c 1
 74 357 39 354 17 354 c 1
 14 370 l 1
EndSplineSet
EndChar
StartChar: uni028A
Encoding: 650 650 2733
Width: 475
Flags: HW
HStem: -3.6 17.64<108.296 175.971> 223.161 27.1269<48.2066 88.9579 180.183 218.421> 246.6 7.56<32.4888 34.209 233.274 234.998>
VStem: 13.6398 36.36<71.1032 134.012> 26.9598 15.48<181.566 217.368> 217.4 33.48<64.3986 129.986> 224.24 14.4<179.685 217.451>
AnchorPoint: "Top" 244 465 basechar 0
AnchorPoint: "Horn" 438 333 basechar 0
AnchorPoint: "Ogonek" 395 -3 basechar 0
AnchorPoint: "Bottom" 237 -15 basechar 0
LayerCount: 2
Back
SplineSet
287.599609375 369 m 5
 340.599609375 379 395.599609375 392 436.599609375 403 c 5
 447.599609375 387 l 5
 433.599609375 343 425.599609375 175 425.599609375 137 c 7
 425.599609375 107 428.8828125 81.1591796875 431.599609375 54 c 4
 432.599609375 44 435.599609375 36 445.599609375 36 c 7
 449.599609375 36 475.599609375 43 495.599609375 48 c 5
 501.599609375 17 l 5
 467.192382812 8.5146484375 422.280273438 -1.6591796875 393.599609375 -16 c 4
 388.067382812 -18.765625 386.099609375 -22 378.599609375 -22 c 7
 361.599609375 -22 361.599609375 0 356.599609375 52 c 5
 315.599609375 34 238.599609375 -11 180.599609375 -11 c 7
 142.599609375 -11 105.533203125 5.513671875 88.599609375 44 c 4
 77.599609375 69 72.599609375 95 72.599609375 143 c 7
 72.599609375 198 75.599609375 255 75.599609375 312 c 4
 75.599609375 322 71.599609375 331 61.599609375 331 c 7
 51.599609375 331 30.599609375 319 24.599609375 317 c 5
 14.599609375 348 l 5
 55.599609375 359 109.599609375 394 151.599609375 422 c 5
 169.599609375 406 l 5
 154.599609375 336 148.599609375 254 148.599609375 177 c 7
 148.599609375 106 163.599609375 44 234.599609375 44 c 7
 271.599609375 44 324.599609375 69 355.599609375 85 c 5
 356.599609375 154 361.599609375 291 361.599609375 298 c 7
 361.599609375 337 331.599609375 337 294.599609375 338 c 5
 287.599609375 369 l 5
EndSplineSet
Fore
SplineSet
306 404 m 1x74
 366 404 421 407 429 411 c 1
 427 389 429 367 435 350 c 1
 401 353 l 1xa8
 395 354 389 354 382 355 c 1
 375 356 360 358 347 359 c 1
 349 289 435 273 435 165 c 3
 435 74 345 -6 237 -6 c 3
 128 -6 40 71 40 165 c 3x74
 40 272 130 295 135 359 c 1
 120 358 105.948869282 356.42126704 96 355 c 0
 89 354 82 354 80 354 c 1
 45 353 l 1
 50 376 52 392 50 411 c 1xa2
 58 407 115 404 175 404 c 1
 168.254545455 266 122 297 122 177 c 7
 122 101 184.09352518 33 259 33 c 3
 312.9 33 357 78 357 140 c 3
 357 263 312.735849057 260 306 404 c 1x74
EndSplineSet
EndChar
StartChar: uni029E
Encoding: 670 670 2822
Width: 486
Flags: HW
LayerCount: 2
Fore
SplineSet
336 170 m 1
 302 145 251 109 220 79 c 0
 213 72 202 59 202 52 c 3
 202 34 226 35 236 33 c 1
 234 6 l 1
 208 8 173 8 146 8 c 3
 113 8 70 8 38 4 c 1
 36 36 l 1
 99 43 136 66 170 88 c 2
 271 152 l 17
 200 220 130 286 57 355 c 1
 41 370 13 378 -1 379 c 1
 2 413 l 1
 36 407 54 403 96 403 c 3
 126 403 158 410 188 412 c 1
 191 379 l 1
 155 374 155 370 144 369 c 1
 196 315 271 239 325 187 c 1
 334 193 l 1
 334 261 332 327 328 353 c 0
 326 368 317 369 307 374 c 0
 297 378 287 379 273 380 c 1
 278 414 l 1
 312 408 331 403 373 403 c 3
 403 403 439 410 469 412 c 1
 471 379 l 1
 460 378 449 376 439 374 c 0
 416 367 409 359 407 331 c 0
 402 279 398 198 398 133 c 3
 398 -118.136363636 400 -176.090909091 402 -207 c 0
 403 -223 409 -237 426 -237 c 3
 432 -237 457 -231 467 -230 c 1
 475 -262 l 1
 423 -273 364 -301 321 -335 c 1
 301 -319 l 1
 307 -305 314 -278 315 -267 c 0
 325 -194.004454343 336 49.3140311804 336 170 c 1
EndSplineSet
EndChar
StartChar: uni02BB
Encoding: 699 699 2576
GlifName: uni02B_B_
Width: 157
Flags: HW
HStem: 449 232
VStem: 27 87<479.027 530.218>
LayerCount: 2
Back
SplineSet
105 681 m 5
 125 666 l 5
 103 641 72.4833984375 590.860351562 83 553 c 4
 88 535 96.3720703125 519.813476562 108 514 c 4
 112 512 114 507 114 502 c 7
 114 497 111.8828125 493.21875 108 491 c 4
 94 483 83.6416015625 471.284179688 76 456 c 4
 74 452 69 449 64 449 c 7
 59 449 55.201171875 452.107421875 53 456 c 4
 45.04296875 470.071289062 27 493.31640625 27 530 c 7
 27 566.139648438 44.2734375 615.150390625 105 681 c 5
EndSplineSet
Fore
SplineSet
120 687 m 5
 144 669 l 5
 118 639 81 579 94 534 c 4
 100 512 110 494 124 487 c 4
 129 485 131 479 131 473 c 7
 131 467 129 462 124 459 c 4
 107 449 94 435 85 417 c 4
 83 412 77 409 71 409 c 7
 65 409 61 412 58 417 c 4
 48 434 27 462 27 506 c 7
 27 549 47 608 120 687 c 5
EndSplineSet
EndChar
StartChar: gravecomb
Encoding: 768 768 94
GlifName: gravecomb
Width: 0
VWidth: 1159
Flags: W
HStem: 430.175 225.516
VStem: -337.486 169.82
AnchorPoint: "TopMark" -195 625 basemark 0
AnchorPoint: "Top" -198.5 409 mark 0
AnchorPoint: "TopMark" -196 410 mark 0
LayerCount: 2
Fore
SplineSet
-167.666 450.849 m 9
 -195.335 430.175 l 17
 -241.617 511.682 -292.827 580.192 -337.486 620.844 c 1
 -316.02871574 639.102548633 -281.637923868 654.548346758 -279.433 655.691 c 1
 -242.068 604.168 -192.677 511.339 -167.666 450.849 c 9
EndSplineSet
Validated: 1
EndChar
StartChar: acutecomb
Encoding: 769 769 92
GlifName: acutecomb
Width: 0
Flags: W
HStem: 427.951 225.517
VStem: -234.611 169.822
AnchorPoint: "TopMark" -216 403 mark 0
AnchorPoint: "Top" -198.5 402 mark 0
AnchorPoint: "TopMark" -191 616 basemark 0
LayerCount: 2
Fore
SplineSet
-234.611 448.625 m 17
 -209.601 509.115 -160.208 601.944 -122.844 653.468 c 5
 -119.172164621 652.712528139 -86.5326572598 637.00817921 -64.7891 618.62 c 1
 -109.449 577.968 -160.659 509.459 -206.941 427.951 c 9
 -234.611 448.625 l 17
EndSplineSet
EndChar
StartChar: uni0302
Encoding: 770 770 93
GlifName: uni0302
Width: 0
VWidth: 1159
Flags: W
HStem: 422.6 184.8
VStem: -310.25 225.5
AnchorPoint: "TopMark" -198.5 587 basemark 0
AnchorPoint: "TopMark" -200.5 384 mark 0
AnchorPoint: "Top" -198.5 401 mark 0
LayerCount: 2
Fore
SplineSet
-84.75 435.8 m 1
 -104.55 422.6 l 1
 -197.5 528.581 l 1
 -290.45 422.6 l 1
 -310.25 435.8 l 1
 -213.45 607.4 l 1
 -181.55 607.4 l 1
 -84.75 435.8 l 1
EndSplineSet
Validated: 1
EndChar
StartChar: tildecomb
Encoding: 771 771 100
GlifName: tildecomb
Width: 0
Flags: HW
HStem: 421.645 21G<-344.926 -307.255> 434.053 60<-213.463 -120.137> 471.391 59.446<-293.306 -199.999>
VStem: -344.926 273.107
AnchorPoint: "TopMark" -214 389 mark 0
AnchorPoint: "TopMark" -198.5 538 basemark 0
AnchorPoint: "Top" -210 382 mark 0
LayerCount: 2
Fore
SplineSet
-344.926 435.354 m 1xb0
 -317.125 489.608 -275.136 530.837 -268.111 530.837 c 3xb0
 -228.384 530.837 -182.993 494.053 -144.325 494.053 c 3
 -134.725 494.053 -114.299 518.275 -103.104 547.824 c 1
 -71.8193 534.539 l 1
 -91.5257 483.781 -129.232 434.053 -140.992 434.053 c 3x50
 -178.933 434.053 -234.885 471.391 -270.774 471.391 c 3
 -282.6 471.391 -301 440.771 -313.51 421.645 c 1
 -344.926 435.354 l 1xb0
EndSplineSet
EndChar
StartChar: uni0306
Encoding: 774 774 105
GlifName: uni0306
Width: 0
Flags: HW
HStem: 436.274 54.719<-267.503 -128.241>
VStem: -330.178 28.08<532.771 549.079> -92.9023 28.081<535.635 549.079>
AnchorPoint: "TopMark" -200.5 396 mark 0
AnchorPoint: "TopMark" -202 541 basemark 0
AnchorPoint: "Top" -198.5 393 mark 0
LayerCount: 2
Fore
SplineSet
-330.178 545.649 m 1
 -302.098 559.41 l 1
 -287.169 513.847 -242.601 490.993 -197.887 490.993 c 0
 -153.266 490.993 -108.501 513.751 -92.9023 559.41 c 1
 -64.8213 545.649 l 1
 -84.1265 472.732 -141.164 436.274 -198.026 436.274 c 0
 -254.888 436.274 -311.575 472.732 -330.178 545.649 c 1
EndSplineSet
EndChar
StartChar: uni030A
Encoding: 778 778 98
GlifName: uni030A_
Width: 0
VWidth: 1159
Flags: W
HStem: 425.265 31.606<-232.945 -164.224> 545.129 31.606<-231.776 -163.399>
VStem: -275.22 32.227<467.081 533.825> -153.007 32.227<468.175 534.808>
AnchorPoint: "TopMark" -200.5 382 mark 0
AnchorPoint: "TopMark" -198.5 562 basemark 0
AnchorPoint: "Top" -198.5 395 mark 0
LayerCount: 2
Fore
SplineSet
-198 545.129 m 0
 -221.362 545.129 -242.993 526.093 -242.993 500.135 c 0
 -242.993 474.176 -222.227 456.871 -198 456.871 c 0
 -174.638 456.871 -153.007 475.907 -153.007 501.865 c 0
 -153.007 526.093 -173.773 545.129 -198 545.129 c 0
-198 576.735 m 0
 -156.42 576.735 -120.78 544.064 -120.78 502.485 c 0
 -120.78 457.935 -157.905 425.265 -198 425.265 c 0
 -239.58 425.265 -275.22 454.965 -275.22 499.515 c 0
 -275.22 544.064 -238.095 576.735 -198 576.735 c 0
EndSplineSet
Validated: 1
EndChar
StartChar: uni030F
Encoding: 783 783 104
GlifName: uni030F_
Width: 0
Flags: HW
AnchorPoint: "TopMark" -200.5 410 mark 0
AnchorPoint: "TopMark" -221 648 basemark 0
AnchorPoint: "Top" -198.5 405 mark 0
LayerCount: 2
Back
SplineSet
-251.142578125 455.537109375 m 5
 -274.026367188 510.142578125 -320.149414062 594.283203125 -355.692382812 641.293945312 c 5
 -359.388671875 640.735351562 -392.555664062 627.774414062 -414.927734375 612.087890625 c 5
 -371.713867188 574.524414062 -322.92578125 511.969726562 -279.516601562 438 c 5
 -251.142578125 455.537109375 l 5
-108.872070312 453.794921875 m 5
 -127.2109375 510.442382812 -166.106445312 597.9375 -197.411132812 647.010742188 c 5
 -201.073242188 646.5078125 -234.52734375 633.803710938 -257.611328125 618.086914062 c 5
 -218.088867188 578.590820312 -174.970703125 513.262695312 -137.973632812 436.288085938 c 5
 -108.872070312 453.794921875 l 5
EndSplineSet
Fore
Refer: 94 768 N 0.999391 -0.0311829 0.0348993 0.892966 -90.557 47.7769 2
Refer: 94 768 N 0.979321 -0.0477666 0.0988162 0.917822 20.145 31.8447 2
EndChar
StartChar: uni0313
Encoding: 787 787 111
GlifName: uni0313
Width: 0
Flags: HW
HStem: 438.94 204.119
VStem: -218.13 116.64
AnchorPoint: "TopMark" -178 410 mark 0
AnchorPoint: "TopMark" -167 631 basemark 0
AnchorPoint: "Top" -179 414 mark 0
LayerCount: 2
Fore
SplineSet
-205.169921875 438.940429688 m 1
 -218.129882812 459.190429688 l 1
 -190.58984375 476.200195312 -155.759765625 510.219726562 -167.099609375 535.330078125 c 0
 -175.200195312 553.150390625 -193.01953125 565.299804688 -210.030273438 574.209960938 c 0
 -214.080078125 575.830078125 -215.700195312 581.5 -215.700195312 586.360351562 c 3
 -215.700195312 591.219726562 -214.080078125 595.26953125 -210.030273438 596.889648438 c 0
 -193.01953125 605.799804688 -180.059570312 618.759765625 -171.150390625 635.76953125 c 0
 -169.530273438 639.8203125 -164.669921875 643.059570312 -159.809570312 643.059570312 c 3
 -154.950195312 643.059570312 -150.08984375 639.8203125 -148.469726562 635.76953125 c 0
 -139.559570312 618.759765625 -124.98046875 605.799804688 -107.969726562 596.889648438 c 0
 -103.919921875 595.26953125 -101.490234375 591.219726562 -101.490234375 586.360351562 c 3
 -101.490234375 581.5 -109.58984375 491.58984375 -205.169921875 438.940429688 c 1
EndSplineSet
EndChar
StartChar: uni0315
Encoding: 789 789 113
GlifName: uni0315
Width: 0
VWidth: 1159
Flags: W
HStem: 450.494 206.751
VStem: -59.75 61<571.847 641.311>
AnchorPoint: "TopRight" -110.5 531 mark 0
LayerCount: 2
Fore
SplineSet
-59.75 657.245 m 9
 1.25 639.245 l 1
 -12.9151 577.095 -43.2689 501.134 -106 450.494 c 9
 -126 464.494 l 1
 -87.0294 521.86 -68.2984 587.855 -59.75 657.245 c 9
EndSplineSet
Validated: 1
EndChar
StartChar: uni031B
Encoding: 795 795 99
GlifName: uni031B_
Width: 0
Flags: HW
HStem: 330 18<-84.5 -47.4434>
VStem: 12.8818 62.7432<400.38 466.056>
AnchorPoint: "Horn" -73.5 341.8 mark 0
LayerCount: 2
Fore
SplineSet
12.8818359375 414.884765625 m 3
 12.8818359375 428.595703125 2.005859375 439.401367188 -15.744140625 450.72265625 c 1
 -6.4501953125 476.256835938 12.16015625 492.322265625 32.20703125 492.322265625 c 3
 58.421875 492.322265625 75.625 468.857421875 75.625 444.775390625 c 3
 75.625 402.114303653 -4.00677187081 339.114926656 -70.9999983448 330.893838355 c 0
 -75.568527149 330.333210353 -80.0782815755 330.027323678 -84.5 330 c 1
 -85 348 l 1
 -79.7821426104 348.175154425 -74.4117470059 348.825028394 -69.0000010854 349.886255352 c 0
 -29.1785420472 357.695122668 12.8818359375 387.776758207 12.8818359375 414.884765625 c 3
EndSplineSet
EndChar
StartChar: uni0327
Encoding: 807 807 268
GlifName: uni0327
Width: 0
UnlinkRmOvrlpSave: 1
Flags: HW
VStem: -195 62.4277<-164.273 -94.0566>
AnchorPoint: "Bottom" -193 -15 mark 0
LayerCount: 2
Fore
SplineSet
-289.175 -200.003 m 1
 -285.141 -177.812 l 1
 -239 -188 -195 -161.724 -195 -125 c 0
 -195 -109.445 -206 -85 -236.636 -95.1289 c 1
 -241.123 -72.4629 l 1
 -238.075 -70.4492 -234.859 -68.6517 -231.521 -67.0766 c 0
 -200.37 -47.1057 -206.753 -43.6231 -186.624 5.43262 c 1
 -151.624 13.4326 l 1
 -151.624 13.4326 -168.925 -41.8597 -175.072 -51.9287 c 1
 -151.745 -56.868 -132.572 -75.8807 -132.572 -111.429 c 0
 -132.572 -180.25 -220.06 -229.425 -289.175 -200.003 c 1
EndSplineSet
EndChar
StartChar: uni0328
Encoding: 808 808 254
GlifName: uni0328
Width: 0
VWidth: 1159
Flags: W
HStem: -300 60.128<-182.984 -111.856>
VStem: -267.438 69.209<-226.6 -119.119>
AnchorPoint: "Ogonek" -104.35 21.6582 mark 0
LayerCount: 2
Back
SplineSet
-94.3691 15.543 m 1
 -195.162388974 -70.3584937184 -226.228515625 -111.215514218 -226.228515625 -190 c 3
 -226.228515625 -221.309227792 -201.775586907 -239.872070312 -170.833984375 -239.872070312 c 3
 -154.801506148 -239.872070312 -135.55173736 -232.614365408 -115.798828125 -216.599609375 c 1
 -115.798828125 -216.599609375 -104.690305483 -226.926828613 -102 -235 c 1
 -125.978710258 -280.147631579 -166.377945685 -300 -203.228515625 -300 c 3
 -253.201025342 -300 -297.438476562 -268.513714542 -297.438476562 -215.834960938 c 3
 -297.438476562 -159.628200176 -233.56061762 -50.8996824072 -101.068 36.7617 c 1
 -94.3691 15.543 l 1
EndSplineSet
Fore
SplineSet
-94.3691 15.543 m 1
 -184.622 -62 -198.229 -98.8815 -198.229 -170 c 3
 -198.229 -213.865 -172.893 -239.872 -140.834 -239.872 c 3
 -128.005964569 -239.872 -112.603684738 -235.421039712 -96.798828125 -225.599609375 c 1
 -96.798828125 -225.599609375 -85.6903054834 -235.926828613 -83 -244 c 1
 -104.373177652 -282.896421053 -140.382622133 -300 -173.229 -300 c 3
 -223.201 -300 -267.438 -262.154 -267.438 -198.835 c 3
 -267.438 -146.411 -224.333 -45 -101.068 36.7617 c 1
 -94.3691 15.543 l 1
EndSplineSet
Validated: 1
EndChar
StartChar: uni032B
Encoding: 811 811 696
GlifName: uni032B_
Width: 0
Flags: W
HStem: -191.727 58.72<-299.158 -221.723 -168.478 -90.3256>
VStem: -341 29.258<-113.904 -85.4508> -210.079 30.337<-115.385 -85.5898> -78.0791 29.2578<-113.904 -85.4508>
AnchorPoint: "Bottom" -193 -15 mark 0
LayerCount: 2
Fore
SplineSet
-341 -86.3506 m 1
 -311.742 -82.5898 l 1
 -304.49 -116.166 -282.841 -133.007 -261.121 -133.007 c 0
 -239.427 -133.007 -217.662 -117.234 -210.079 -85.5898 c 1
 -179.742 -85.5898 l 1
 -172.49 -117.168 -150.842 -133.007 -129.121 -133.007 c 0
 -107.427 -133.007 -85.6623 -116.236 -78.0791 -82.5898 c 1
 -48.8213 -86.3506 l 1
 -60.47 -156.601 -94.8857 -191.727 -129.196 -191.727 c 0
 -154.025 -191.727 -178.798 -173.119 -195.055 -135.903 c 1
 -211.52 -173.119 -236.385 -191.727 -261.196 -191.727 c 0
 -295.534 -191.727 -329.765 -156.601 -341 -86.3506 c 1
EndSplineSet
EndChar
StartChar: uni0373
Encoding: 883 883 956
GlifName: uni0373
Width: 377
UnlinkRmOvrlpSave: 1
Flags: HW
HStem: -4 21G<192.354 202.733> 612 69<63.4017 344.052> 670.8 20G<377.419 416>
VStem: 2.60059 58<488.378 607.898> 194.601 41<414.965 620.859>
LayerCount: 2
Fore
SplineSet
235.600585938 619 m 1x98
 215.180664062 344 203.334960938 130.0078125 203.334960938 94 c 7
 203.334960938 62.9892578125 202.865234375 30.3515625 202.600585938 -4 c 5
 182.106445312 -3.3271484375 124.528320312 -0.8056640625 121.600585938 9 c 5
 129.908203125 27.181640625 135.895507812 41.44140625 148.600585938 109 c 4
 168.124023438 307.599609375 184.146484375 488.258789062 194.600585938 621 c 1
 194.600585938 623 235.600585938 622 235.600585938 619 c 1x98
250.600585938 681 m 3xd8
 371.6171875 681 367.638671875 684.041015625 387.200195312 690.799804688 c 1xb8
 416 671.599609375 l 1
 389.166992188 606.448242188 355.178710938 534.05859375 351.600585938 449 c 1
 311.600585938 455.400390625 l 1
 319.600585938 506.184570312 329.600585938 555.015625 345.600585938 605.799804688 c 1
 252.436523438 605.799804688 138.200195312 612 101.600585938 612 c 3
 71.23046875 612 60.6005859375 591.396484375 60.6005859375 584 c 3
 60.6005859375 531.665039062 67.283203125 483.35546875 74.80078125 459.200195312 c 1
 50.80078125 439.200195312 l 1
 22.447265625 470.084960938 2.6005859375 553.236328125 2.6005859375 596 c 3
 2.6005859375 657.745117188 52.3837890625 681 250.600585938 681 c 3xd8
EndSplineSet
EndChar
StartChar: Theta
Encoding: 920 920 983
GlifName: T_heta
Width: 845
Flags: HW
HStem: -13 50<350.825 545.448> 338.5 61<269.644 572> 456.5 20G<220.5 253.556 581.5 612.5> 660 49<304.396 495.712>
VStem: 43 93<264.284 455.257> 220.5 32<262.5 322.557 424.211 474.5> 588.5 29<261.017 313.193 419.193 470.5> 701 101<219.4 441.786>
AnchorPoint: "Top" 426 699 basechar 0
AnchorPoint: "Bottom" 422 -15 basechar 0
LayerCount: 2
Fore
SplineSet
612.5 470.5 m 1
 610.443359375 415.1640625 610.918945312 320.51171875 617.5 261.5 c 9
 588.5 259.5 l 1
 577.654296875 325.9609375 569.518554688 324.853515625 541.5 331.5 c 0
 532.924804688 332.5 467.184570312 338.5 420.5 338.5 c 27
 367.82421875 338.5 294.077148438 333.5 284.5 331.5 c 0
 256.62890625 325.5 254.565429688 297.5 252.5 261.5 c 9
 220.5 262.5 l 1
 226.977539062 334.940429688 227.790039062 401.831054688 220.5 474.5 c 9
 251.5 476.5 l 1
 255.611328125 446.211914062 257.666992188 420.513671875 288.5 409.5 c 0
 297.108398438 405.5 319.108398438 399.5 420.5 399.5 c 3
 513.795898438 399.5 533.788085938 403.5 539.5 404.5 c 0
 571.5 410.5 579.5 406.5 583.5 471.5 c 9
 612.5 470.5 l 1
EndSplineSet
Refer: 990 927 N 1 0 0 1 0 0 2
Position2: "cpsp-1" dx=0 dy=0 dh=50 dv=100
Substitution2: "c2pc-1" theta.pcap
Substitution2: "c2sc-1" theta.smcp
EndChar
StartChar: Xi
Encoding: 926 926 989
GlifName: X_i
Width: 644
Flags: HW
HStem: -12 21G<38.1167 44.7158 593.339 600.642> 0.76101 74.3239<87.6715 545.261> 325.5 61<166.644 480.38> 485 21G<568 608> 610.915 74.3239<93.9293 552.632> 678 20G<42.042 50.5274 591.399 597.883>
VStem: 28 40<93.8399 209.875> 36 43<494.349 598.256> 123.5 26<242.5 304.54 413.595 461.5> 497.5 23<240.891 291.777 412.72 457.5> 568 40<489.125 595.04>
AnchorPoint: "Top" 332 699 basechar 0
AnchorPoint: "Bottom" 330 -15 basechar 0
LayerCount: 2
Fore
SplineSet
36 493 m 1x39e0
 41.6767578125 572.702148438 42.8955078125 628.799804688 41.1884765625 696 c 1x35e0
 59.8662827041 687.765486438 198.456864171 683.239257812 333.069335938 683.239257812 c 3x39e0
 460.009176459 683.239257812 583.411477358 687.264206089 599.385742188 696 c 1x35e0
 596.380859374 622.162109375 598.531249999 546.845703125 608 488 c 1
 568 483 l 1
 568 543 570.489257812 600 529 602 c 0
 472.707072664 606.643399303 398.538949941 608.915039062 325.758789062 608.915039062 c 3
 241.802156305 608.915039062 159.692501624 605.892129108 109 600 c 0
 80.5791015625 596 82.947265625 542 79 489 c 9
 36 493 l 1x39e0
616 204 m 1
 601.571289062 119.194335938 598.471679688 59.50390625 602.811523438 -12 c 1xb2e0
 583.865813418 -3.76531335831 443.288853306 0.761010403635 306.747072738 0.761010403635 c 3x72e0
 177.988109738 0.761010403635 52.8174296741 -3.26402247191 36.6142578125 -12 c 1
 39.619140625 66.453125 37.4697265625 146.475585938 28 209 c 1
 68 214 l 1xb2e0
 68 147.4453125 65 84.21875 115 82 c 0
 171.292913204 77.3565375285 245.461017308 75.0848668667 318.241159916 75.0848668667 c 3
 402.197812436 75.0848668667 484.307486444 78.1078087186 535 84 c 0
 571 88.46875 568 148.79296875 573 208 c 9
 616 204 l 1
515.5 455.5 m 1
 513.443359375 398.310546875 513.918945312 300.48828125 520.5 239.5 c 9
 497.5 237.5 l 1
 486.654296875 310.422851562 478.518554688 309.208007812 450.5 316.5 c 0
 441.5 317.5 372.5 323.5 323.5 323.5 c 27
 268.5 323.5 191.5 318.5 181.5 316.5 c 0
 153.62890625 309.900390625 151.565429688 279.099609375 149.5 239.5 c 9
 123.5 240.5 l 1
 129.977539062 315.33203125 130.790039062 384.431640625 123.5 459.5 c 9
 148.5 461.5 l 1
 152.611328125 431.211914062 154.666992188 405.513671875 185.5 394.5 c 0
 194.5 390.5 217.5 384.5 323.5 384.5 c 3
 421.5 384.5 442.5 388.5 448.5 389.5 c 0
 480.5 395.5 488.5 391.5 492.5 456.5 c 9
 515.5 455.5 l 1
EndSplineSet
Position2: "cpsp-1" dx=0 dy=0 dh=50 dv=100
Substitution2: "c2pc-1" xi.pcap
Substitution2: "c2sc-1" xi.smcp
EndChar
StartChar: Pi
Encoding: 928 928 991
GlifName: P_i
Width: 776
Flags: HW
HStem: -14 37<210.688 281.502 513 573.92> -12 42<33 99.0032> 643.531 38.1836<212.09 581.987> 654 38<33.4474 103.486> 662 37<695.143 745.135>
VStem: 103 94.3604<39.9736 319.261> 583 88.0273<34.1018 313.689 369.492 445.826>
AnchorPoint: "Top" 396 699 basechar 0
AnchorPoint: "Bottom" 400 -15 basechar 0
LayerCount: 2
Fore
SplineSet
200 62 m 0x66
 201.587890625 25.9794921875 254 30 286 23 c 1
 286 23 282 0 281 -14 c 1xa6
 229.392578125 -5.3984375 184.431640625 -0.5546875 141.612304688 -0.5546875 c 0
 104.779296875 -0.5546875 69.53125 -4.138671875 33 -12 c 1
 33 -12 28 12 26 30 c 1
 62 36 101.34544837 36.0334357509 103 62 c 0
 110.200195312 175 114.879882812 340.890625 114.879882812 464.46875 c 0
 114.879882812 547.361383892 113.258977373 611.471785401 108 628 c 4
 101 650 69 650 31 655 c 5
 34 693 l 5x56
 69.91796875 688.40625 102 682.999999999 136.5 683.159179688 c 5
 278.306640625 682.954101562 495.950195312 683.123046875 643.5 682.71484375 c 5x26
 667 683 705.204101562 690.405273438 744 700 c 5
 750 663 l 5x0e
 701 651 689.792635159 653.014040394 688 625 c 4
 680.798828125 512.465154972 671.02734375 327.966622352 671.02734375 196.106445312 c 0
 671.02734375 126.701171875 673.181606793 71.7177589088 681 50 c 0
 690 25 718 24 748 22 c 1
 748 22 743 2 744 -12 c 1
 709.0078125 -4.607421875 673.044921875 -0.3720703125 635.391601562 -0.3720703125 c 0
 596.64453125 -0.3720703125 556.108398438 -4.8564453125 513 -15 c 1
 513 -15 507 8 505 20 c 1
 552 30 581.37251868 31.974641178 583 59 c 0
 589.517578125 167.228515625 592.3203125 263.8671875 592.3203125 365.913085938 c 0
 592.3203125 442.528130147 589.916464193 522.157208626 588 612 c 4
 587.643554688 628.709960938 564.991479162 642.760748965 527.5 644.53125 c 4
 456.383789062 647.889648438 347.714321473 646.905996016 262.5 647.43359375 c 4
 233.951171875 647.610351562 212.818670094 640.254715052 212 633 c 4
 202.6875 550.476484858 197.360351562 366.91915045 197.360351562 216.88671875 c 0
 197.360351562 157.0546875 198.211670138 102.56737206 200 62 c 0x66
EndSplineSet
Position2: "cpsp-1" dx=0 dy=0 dh=50 dv=100
Substitution2: "c2pc-1" pi.pcap
Substitution2: "c2sc-1" pi.smcp
EndChar
StartChar: Sigma
Encoding: 931 931 993
GlifName: S_igma
Width: 626
Flags: HW
HStem: 2.48309 38.5169<150 472.628> 648.077 36.8923<179.454 467.505> 659 31<28 50.0696>
VStem: 518 30<539 620.59> 578 28<152.034 171.75>
AnchorPoint: "Top" 310 699 basechar 0
AnchorPoint: "Bottom" 307 -15 basechar 0
LayerCount: 2
Fore
SplineSet
18 1 m 1xd8
 8 28 l 1
 47 49 79.6767578125 85.4267578125 105 116 c 0
 168.08984375 190.967773438 231.771484375 266.940429688 295.001953125 343.299804688 c 1
 232.919921875 420.707625159 158.747070312 509.631018813 99.9716796875 586.299804688 c 0
 75.330078125 618.576171875 49.5 650.299804688 23 657 c 1
 28 688 l 1xb8
 100.521094079 684.355416897 186.588544153 682.96875 267.956054688 682.96875 c 0
 409.863349372 682.96875 537.475120134 687.186361981 554 691 c 1
 565.145421717 681.247804312 569.133789062 675.74129781 569.133789062 667.086914062 c 0
 569.133789062 650.893166282 555.168983192 623.677672155 548 537 c 1
 518 534 l 1
 507 570 526 617 490 628 c 1
 438.703345148 639.861034025 357.361502746 646.077148438 279.205078125 646.077148438 c 0
 243.783637149 646.077148438 209.016484993 644.800277343 177.997070312 642.193359375 c 1
 240.469726562 564.562174479 302.563476562 486.93195783 365.102539062 409.299804688 c 0
 377.26171875 394.141601562 394.323242188 375.299804688 410.703125 367.299804688 c 1
 410.703125 339.299804688 l 1
 394.173828125 331.461914062 380.607421875 318.322265625 371.6640625 307.299804688 c 0
 296.84375 213.670898438 223.921875 129.947265625 150 41 c 1
 228.26916423 41 307.598956516 39 386 39 c 0
 408.404296875 39 437.5 43.2998046875 470 58 c 0
 526.760742188 83.673828125 539 101 578 177 c 1
 606 170 l 1
 590 104 579 62 567 0 c 1
 418.446420524 -0.773710049693 287.995461185 2.4830933189 163.612260931 2.4830933189 c 0
 119.627247387 2.4830933189 72.4064380862 2.08995072445 18 1 c 1xd8
EndSplineSet
Position2: "cpsp-1" dx=0 dy=0 dh=50 dv=100
Substitution2: "c2pc-1" sigma.pcap
Substitution2: "c2sc-1" sigma.smcp
EndChar
StartChar: Upsilon
Encoding: 933 933 995
GlifName: U_psilon
Width: 680
VWidth: 1159
Flags: W
HStem: -11 42<192 270.062 401.394 490.814> 624 76<53.2333 162.515 523.65 633.052>
VStem: 304.377 78.0224<61.5545 369.397>
AnchorPoint: "Top" 327 699 basechar 0
AnchorPoint: "Bottom" 339 -15 basechar 0
LayerCount: 2
Fore
SplineSet
390 379 m 0
 384.549262873 345.20542981 382.399696327 307.581501745 382.399696327 269.343110405 c 0
 382.399696327 202.352455344 385.60150538 133.475872086 389 80 c 0
 394 41 414 36 495 32 c 1
 490 -11 l 1
 438.5 -4 390.75 1 342.75 1 c 0
 294.75 1 246.5 -2.33333333333 194 -11 c 1
 182 31 l 1
 261 40.88 292 47.84 298 100 c 0
 300.345685637 120.39182714 305.005528049 164.056588975 304.377320882 211.999997878 c 0
 303.483216121 280.23613464 301.305266598 355.831563274 296 380 c 0
 275 473 212 624 88 624 c 3
 67 624 46 616 23 600 c 1
 0 629 l 1
 18 655 71 700 112 700 c 3
 287 700 311 498 344 371 c 1
 376 498 400 700 575 700 c 3
 616 700 668 655 686 629 c 1
 663 600 l 1
 640 616 619 624 598 624 c 3
 474 624 405 474 390 379 c 0
EndSplineSet
Validated: 33
Position2: "cpsp-1" dx=0 dy=0 dh=50 dv=100
Substitution2: "c2pc-1" upsilon.pcap
Substitution2: "c2sc-1" upsilon.smcp
EndChar
StartChar: Phi
Encoding: 934 934 996
GlifName: P_hi
Width: 714
UnlinkRmOvrlpSave: 1
Flags: HW
HStem: -10 40<205.641 306.195> 104 42<279.739 473.933> 545 45<236.268 432.867> 652 43<210.708 307.177>
VStem: 41 88<284.198 426.74> 317.07 87.3<41.0295 293.416> 323.778 73.3348<80.3904 534.592> 581 92<254.978 409.987>
LayerCount: 2
Fore
SplineSet
331 545 m 3xf9
 219 545 129 472 129 370 c 3
 129 254 243 146 379 146 c 3
 501 146 581 232 581 328 c 3
 581 443 468 545 331 545 c 3xf9
362 590 m 3
 534 590 673 478 673 342 c 3
 673 211 541 104 363 104 c 3
 185 104 41 210 41 342 c 3
 41 474 187 590 362 590 c 3
EndSplineSet
Refer: 984 921 N 0.97 0 0 1 190 0 2
Position2: "cpsp-1" dx=0 dy=0 dh=50 dv=100
Substitution2: "c2pc-1" phi.pcap
Substitution2: "c2sc-1" phi.smcp
EndChar
StartChar: beta
Encoding: 946 946 1004
GlifName: beta
Width: 531
UnlinkRmOvrlpSave: 1
Flags: HMW
LayerCount: 2
Fore
SplineSet
23 -192 m 1
 44.2734375 -51.5732421875 55.2822265625 89.421875 71.0234375 244 c 0
 94.640625 475.918945312 155.305664062 711 298 711 c 3
 379.883789062 711 433 637.831054688 433 558 c 27
 433 410.487304688 305 267 199 261 c 1
 178 264 160 288 157 309 c 1
 190 329 225.69921875 342 274 342 c 27
 386.25390625 342 481 256.040039062 481 144 c 27
 481 41.556640625 384.271484375 -25 283 -25 c 27
 191.758789062 -25 130 27 73 78 c 9
 74 93 75 102 76 117 c 1
 131 60 184.0234375 9 271 9 c 27
 350.90625 9 403 51 403 165 c 3
 403 242.488606002 348.477068863 295.234321814 266.000004698 307.042068617 c 1
 247 309 l 1
 319 345 358 433.670898438 358 531 c 27
 358 588.21875 347.036132812 654 277 654 c 3
 157 654 70 199 94 -204 c 1
 67.9111328125 -202.762695312 40.4296875 -203.112304688 23 -192 c 1
EndSplineSet
Substitution2: "pcap-1" b.pcap
Substitution2: "smcp-1" b.smcp
EndChar
StartChar: gamma
Encoding: 947 947 1005
GlifName: gamma
Width: 451
UnlinkRmOvrlpSave: 1
Flags: HMW
LayerCount: 2
Fore
SplineSet
162 -154 m 1
 182.916015625 -73.810546875 229.629882812 63.9990234375 229.629882812 157.6328125 c 3
 229.629882812 258.258789062 173.56640625 365 115 365 c 3
 90.869140625 365 76.25390625 340.419921875 55.568359375 314.931640625 c 1
 33.6474609375 321.307617188 -4 355.311523438 -4 367 c 3
 -4 372.098632812 8.998046875 418.5 61.2802734375 418.5 c 3
 156.737304688 418.5 276.497070312 286.581054688 276.497070312 118 c 3
 276.497070312 44.6953125 249.5390625 -65.763671875 223.379882812 -150 c 0
 211.306640625 -188.877929688 194.69921875 -224.568359375 181.859375 -248 c 1
 158 -264 95.9306640625 -290 80 -264 c 1
 90.2060546875 -226.60546875 110.311523438 -188.197265625 129.169921875 -144.150390625 c 0
 242.263671875 120 354.028320312 266.103515625 380.516601562 364.040039062 c 0
 381.612304688 368.08984375 391.0078125 399.434570312 394.806640625 417 c 1
 414.130859375 414 442.115234375 406 451 392.139648438 c 1
 362.548828125 225.2734375 243.305664062 0.2412109375 162 -154 c 1
EndSplineSet
Substitution2: "pcap-1" gamma.pcap
Substitution2: "smcp-1" gamma.smcp
EndChar
StartChar: delta
Encoding: 948 948 1006
GlifName: delta
Width: 487
VWidth: 1039
UnlinkRmOvrlpSave: 1
Flags: HMW
LayerCount: 2
Fore
SplineSet
134 186 m 3
 134 113 179 31 252 31 c 3
 273 31 360 67 360 206 c 3
 360 415 -2 500 -2 648 c 3
 -2 691 28 754 125 754 c 3
 228 754 401 674 447 651 c 1
 446 623 405 611 374 605 c 1
 329 630 193 707 103 707 c 3
 67 707 42 686 42 655 c 3
 42 530 433 457 433 236 c 3
 433 97 333 -9 227 -9 c 3
 100 -9 55 90 55 154 c 0
 55 298 159 378 261 378 c 3
 294 378 317 369 350 363 c 1
 344 333 l 1
 323 342 297 351 266 351 c 3
 172 351 134 254 134 186 c 3
EndSplineSet
Substitution2: "pcap-1" delta.pcap
Substitution2: "smcp-1" delta.smcp
EndChar
StartChar: zeta
Encoding: 950 950 1008
GlifName: zeta
Width: 419
UnlinkRmOvrlpSave: 1
Flags: HMW
LayerCount: 2
Fore
SplineSet
52 130 m 3
 52 425 243 752 532 754 c 1
 533 750 533 745 533 740 c 0
 533 713 521 685 499 664 c 1
 469 652 433 646 391 646 c 3
 314 646 229 683 229 760 c 3
 229 797 249 826 316 828 c 1
 316 826 317 822 317 817 c 0
 317 800 314 771 312 758 c 1
 289 753 275 753 275 738 c 3
 275 719.838176297 325.113544885 690.456902247 381.999998115 680.259310944 c 5
 390.889732199 678.665717569 399.944866099 677.540605009 409 677 c 1
 251 642 82 342 82 157 c 3
 82 75 139 72 178 72 c 3
 214 72 232 80 268 80 c 3
 358 80 391 31 391 -32 c 3
 391 -104 333 -164 262 -164 c 3
 224 -164 195 -147 177 -135 c 1
 181 -115 204 -71 217 -69 c 1
 235 -81 270 -119 307 -119 c 3
 328 -119 352 -98 352 -68 c 3
 352 -24 308 -1 266 -1 c 3
 237 -1 213 -8 178 -8 c 3
 85 -8 52 57 52 130 c 3
EndSplineSet
Substitution2: "pcap-1" z.pcap
Substitution2: "smcp-1" z.smcp
EndChar
StartChar: theta
Encoding: 952 952 1010
GlifName: theta
Width: 488
VWidth: 1039
UnlinkRmOvrlpSave: 1
Flags: HW
HStem: -11 44<184.489 283.36> 657 40<226.149 324.426>
VStem: 52 79<134.659 458.11> 376 78<221.369 559.965>
AnchorPoint: "Bottom" 232 -15 basechar 0
LayerCount: 2
Fore
SplineSet
235 33 m 3
 346 33 376 300.327148438 376 433 c 3
 376 549 355 657 275 657 c 3
 175 657 131 464 131 258 c 3
 131 117.498046875 168 33 235 33 c 3
272 697 m 3
 393 697 454 577 454 403 c 3
 454 143.506835938 340 -11 230 -11 c 3
 118 -11 52 115.298828125 52 286 c 3
 52 478 130 697 272 697 c 3
EndSplineSet
Refer: 1970 58113 S 0.297955 0.00520082 -0.0185432 1.06234 106.023 350.4 2
Position2: "cpsp-1" dx=0 dy=0 dh=50 dv=102
Substitution2: "pcap-1" theta.pcap
Substitution2: "smcp-1" theta.smcp
EndChar
StartChar: iota
Encoding: 953 953 1011
GlifName: iota
Width: 292
VWidth: 1043
Flags: HMW
AnchorPoint: "Top" 160 465 basechar 0
AnchorPoint: "Bottom" 140 -15 basechar 0
LayerCount: 2
Fore
SplineSet
137 80 m 3
 137 52 145 48 156 48 c 3
 186 48 215 104.55859375 219 115 c 1
 254 104 l 1
 230 49.796875 187 -9 127 -9 c 3
 95 -9 74 19 74 105 c 3
 74 201.366210938 101 295.766601562 104 400 c 1
 104 400 176 426 194 410 c 1
 176 279.969726562 137 146.985351562 137 80 c 3
EndSplineSet
Validated: 33
Substitution2: "pcap-1" i.pcap
Substitution2: "smcp-1" i.smcp
EndChar
StartChar: omicron
Encoding: 959 959 1017
GlifName: omicron
Width: 510
Flags: HMW
AnchorPoint: "Top" 294 465 basechar 0
AnchorPoint: "Bottom" 250 -15 basechar 0
LayerCount: 2
Fore
SplineSet
250 34 m 3
 357 34 380 153 380 215 c 3
 380 296 349 380 265 380 c 3
 212 380 132 353 132 187 c 3
 132 92 175 34 250 34 c 3
52 209 m 3
 52 309 120 420 253 420 c 3
 389 420 458 298 458 194 c 3
 458 61 356 -10 254 -10 c 3
 129 -10 52 112 52 209 c 3
EndSplineSet
Substitution2: "pcap-1" o.pcap
Substitution2: "smcp-1" o.smcp
EndChar
StartChar: pi
Encoding: 960 960 1018
GlifName: pi
Width: 575
VWidth: 1043
UnlinkRmOvrlpSave: 1
Flags: HMW
LayerCount: 2
Fore
SplineSet
426 340 m 1
 411 264 389 176 389 119 c 3
 389 90 395 47 427 47 c 3
 456 47 477 87 482 108 c 1
 506 93 l 1
 506 76 469 -9 396 -9 c 3
 363 -9 319 12 319 107 c 3
 319 183 346 301 356 342 c 1
 357 345 427 343 426 340 c 1
185 342 m 3
 105 342 77 303 77 289 c 3
 77 276 85 264 94 258 c 1
 70 238 l 1
 50 251 36 286 36 304 c 3
 36 381 150 410 289 410 c 3
 367 410 508 401 512 401 c 3
 523 401 526 409 526 414 c 3
 526 422 525 427 521 435 c 1
 542 446 l 1
 557 432 561 407 561 392 c 3
 561 327 473 334 405 334 c 3
 321 334 218 342 185 342 c 3
252 344 m 1
 246 301 238 204 190 -10 c 1
 169 -7.517578125 110 1.79296875 107 38 c 1
 127 49.818359375 157.814453125 59.9697265625 172 103 c 0
 202 194 219 283 216 346 c 1
 216 348 252 347 252 344 c 1
EndSplineSet
Substitution2: "pcap-1" pi.pcap
Substitution2: "smcp-1" pi.smcp
EndChar
StartChar: tau
Encoding: 964 964 1022
GlifName: tau
Width: 482
VWidth: 1043
UnlinkRmOvrlpSave: 1
Flags: HMW
LayerCount: 2
Fore
SplineSet
298 346 m 1
 284 256 263 180.03125 263 116 c 3
 263 89 269.364257812 55 299 55 c 3
 320.094726562 55 336 76 356 105 c 1
 364 99 369 96 377 90 c 1
 368 49 326.427734375 -9 269 -9 c 3
 219.48828125 -9 194 32.501953125 194 114 c 3
 194 206.063476562 223 274 238 347 c 1
 298 346 l 1
69 244 m 1
 48 257 34 281.588867188 34 311 c 3
 34 381.077148438 107.978515625 406 313 406 c 3
 336.03125 406 350.23046875 405 374 405 c 3
 422.006835938 405 428.442382812 410.625 430 441 c 1
 437.63671875 443 443.36328125 443 451 445 c 1
 461.5234375 429 468 414.401367188 468 393 c 3
 468 341.037109375 420 334 288 334 c 3
 240.92578125 334 214.381835938 337 167 337 c 3
 128.672851562 337 75 330.689453125 75 297 c 3
 75 282.133789062 86 270 93 262 c 1
 69 244 l 1
EndSplineSet
Substitution2: "pcap-1" t.pcap
Substitution2: "smcp-1" t.smcp
EndChar
StartChar: uni03D0
Encoding: 976 976 1029
GlifName: uni03D_0
Width: 454
VWidth: 1049
UnlinkRmOvrlpSave: 1
Flags: W
HStem: -9 37<169.634 268.721> 350 39<194.827 306.695> 417 30<39 73.9453> 670 31<270.222 328.438>
VStem: 52 76<82.5471 361.309> 52 52<272.579 285.881> 333 43<585.809 669.304> 337 82<112.941 314.558>
LayerCount: 2
Fore
SplineSet
104 286 m 1xf5
 151 344 199 389 265 389 c 3
 369 389 419 315 419 217 c 3xf5
 419 110 350 -9 233 -9 c 3
 107 -9 52 68 52 198 c 3
 52 392 136 701 312 701 c 3
 353 701 376 676 376 641 c 3
 376 527 180 462 31 417 c 1
 39 447 l 1
 157 482 333 552 333 633 c 3
 333 655 323 670 307 670 c 3
 198 670 128 321 128 173 c 3xfa
 128 101 151 28 219 28 c 3
 273 28 337 92 337 216 c 3
 337 282 325 350 258 350 c 3
 201 350 144 298 104 250 c 1
 104 247 104 284 104 286 c 1xf5
EndSplineSet
Substitution2: "pcap-1" b.pcap
Substitution2: "smcp-1" b.smcp
EndChar
StartChar: uni03D7
Encoding: 983 983 1035
GlifName: uni03D_7
Width: 502
VWidth: 1049
UnlinkRmOvrlpSave: 1
Flags: W
HStem: -208.02 52.2969<339.027 405.791> -12 78<360.782 434.382> 331 81<62.3445 152.407>
VStem: 167 32<184.966 310.919> 301 32<108.381 261.529> 434.937 23.7666<14.9824 67.2335> 442.256 19.9053<108.065 121.556>
LayerCount: 2
Fore
SplineSet
442.255859375 125.01953125 m 1xfa
 462.161132812 119.676757812 l 1xfa
 461.161132812 113.96484375 458.703125 103.185546875 458.703125 83.978515625 c 0
 458.703125 21.455078125 494 -36.4384765625 494 -101.279296875 c 3
 494 -163.241210938 457.276367188 -208.01953125 403.815429688 -208.01953125 c 3
 357.168945312 -208.01953125 331 -182 323.971679688 -168.2421875 c 1
 334.315429688 -152.299804688 l 1
 342.559570312 -155.299804688 352.770507812 -155.72265625 362.258789062 -155.72265625 c 3
 391.211914062 -155.72265625 434.936523438 -127.829101562 434.936523438 -34.47265625 c 3xfc
 434.936523438 -10.5029296875 433.454101562 17.6806640625 428.420898438 41.8193359375 c 2
 419 87 l 1
 428 98 432.778320312 109.979492188 442.255859375 125.01953125 c 1xfa
EndSplineSet
Refer: 1042 1008 N 1 0 0 1 20 0 2
EndChar
StartChar: uni03D8
Encoding: 984 984 1036
GlifName: uni03D_8
Width: 845
UnlinkRmOvrlpSave: 1
Flags: HW
HStem: -10 21G<212.5 258.5> 123.495 47.5049<301.566 331.679 415.642 483.111> 663 49<253.281 435.027>
VStem: 43 93<347.932 514.837> 329 86.6416<41.0295 125.066> 601 101<309.167 496.407>
AnchorPoint: "Middle" 423.697 364.853 basechar 0
AnchorPoint: "Bottom" 422 -151 basechar 0
AnchorPoint: "Top" 426 699 basechar 0
LayerCount: 2
Fore
SplineSet
470.641601562 -5.8779296875 m 1
 471.579101562 -32.2630935134 472.579116501 -59.2927717694 474 -87 c 0
 476 -126 528 -121 582 -123 c 1
 581 -162 l 1
 480 -151 357 -149 270 -163 c 1
 265 -123 l 1
 325 -123 381.731312005 -125.988529232 384 -76 c 0
 385.002929688 -53.9013332211 385.896484375 -30.2850025587 386.678710938 -5.5048828125 c 1
 470.641601562 -5.8779296875 l 1
EndSplineSet
Refer: 40 79 N 1 0 0 1 0 0 2
Position2: "cpsp-1" dx=0 dy=0 dh=50 dv=100
EndChar
StartChar: uni03D9
Encoding: 985 985 1037
GlifName: uni03D_9
Width: 510
VWidth: 1043
UnlinkRmOvrlpSave: 1
Flags: W
HStem: -11.2998 20G<221.08 288.537>
VStem: 204 77<-215.107 3.21944>
LayerCount: 2
Fore
SplineSet
288.537109375 6.7001953125 m 1
 286.8359375 -67.3759765625 283.513671875 -153.163085938 281 -214 c 1
 281 -214 214.721679688 -226 204 -226 c 1
 204 -203.36328125 217.919921875 -70.5732421875 224.240234375 8.7001953125 c 1
 288.537109375 6.7001953125 l 1
EndSplineSet
Refer: 1017 959 N 1 0 0 1 -4.375e-007 0 2
EndChar
StartChar: uni03DB
Encoding: 987 987 1039
GlifName: uni03D_B_
Width: 670
Flags: HW
HStem: -155 81.374<222.012 300.388> 1 88<133.441 313.498> 305 87<308.981 623.835> 313 87<188.413 541.765>
VStem: 49 48<123.998 252.639> 318 46<-78.3504 -4.99054> 625 24<396.958 424.797>
LayerCount: 2
Fore
SplineSet
49 148 m 3xde
 49 240.928710938 92.3955078125 307.729492188 148.381835938 353 c 0
 193.8359375 389.75390625 232.884765625 400 340 400 c 3xde
 443.479492188 400 459.6640625 392 584 392 c 3
 612.099609375 392 625 397 625 424 c 1
 634 425 640 426 649 427 c 1
 653 409 658 400.384765625 658 382 c 3
 658 323.364257812 585.228515625 305 526 305 c 3xee
 375.400390625 305 294.594726562 313 257 313 c 3
 157.340820312 313 97 267.346679688 97 199 c 3
 97 107.576171875 154.176757812 89 217 89 c 3
 236.72265625 89 248 92 268 92 c 3
 352.201171875 92 364 41.9248046875 364 -11 c 3
 364 -92.029296875 299.461914062 -155 259 -155 c 3
 230.8125 -155 212.596679688 -127.041992188 205 -94 c 1
 220.028320312 -79.154296875 239.80078125 -73.6259765625 260.19140625 -73.6259765625 c 3
 273.934570312 -73.6259765625 287.958984375 -76.1376953125 301 -80 c 1
 315.611328125 -69 318 -57.4013671875 318 -41 c 3
 318 -4.7646484375 304.826171875 1 235 1 c 3
 124.700195312 1 98.6123046875 18.4384765625 79 43.5361328125 c 0
 60.447265625 67.2783203125 49 98.3193359375 49 148 c 3xde
EndSplineSet
EndChar
StartChar: uni03E2
Encoding: 994 994 1770
GlifName: uni03E_2
Width: 745
UnlinkRmOvrlpSave: 1
Flags: HW
HStem: -191 84<303.394 554.971> -161 81<132.612 358.673> -10 49.6885<199.272 304.765 448.047 575.15> 619.943 75.4014<121.214 198.217 563.619 636.577> 686 20G<81.3584 84.8058 672.315 675.883>
VStem: 29 101<137.051 356.393> 66 43<556.349 611.912> 84 48<-212.523 -162.582> 328 99<201.991 370.554> 627 93<230.828 355.799>
LayerCount: 2
Fore
SplineSet
627 199 m 1xa1c0
 663.470588235 216.083333333 683.529411765 222.916666667 720 240 c 1
 720 44.9489051095 657.726682562 -191 464 -191 c 3xa1c0
 348.059561651 -191 286.476709355 -161 170 -161 c 3
 153.636083055 -161 132 -162.91242156 132 -181 c 3
 132 -193.281768469 141.747222222 -202.214285714 154 -208 c 1
 152 -222 150 -230 148 -244 c 1
 121.818181818 -236.210758377 84 -208.158853169 84 -171 c 3
 84 -114.241396883 139.362038139 -80 195 -80 c 3x61c0
 335.185591271 -80 411.32967443 -107 552 -107 c 3
 668.610599394 -107 627.192086903 148.027185501 627 199 c 1xa1c0
519 39 m 3
 578.717460938 39 627 106.096153846 627 199 c 0
 627 430.557239601 525.870850412 424.315235343 510.999023438 695.245117188 c 1
 591.33844198 695.487304688 667.244607882 698.896484375 677.385742188 706 c 1x2cc0
 674.380859375 653.461487409 676.53125 599.871264411 686 558 c 1
 646 553 l 1
 646 585.268907563 643 611.183629007 599 617 c 1
 588.761597929 618.398830456 576.527951903 619.359507712 563.619140625 619.892578125 c 1
 567.228994471 483.613363015 720 450.890560628 720 240 c 0
 720 109.019586348 617.10591468 -9.86328125 492 -9.86328125 c 3
 393.219453367 -9.86328125 328 117.628256089 328 216 c 3
 328 278.337960811 335.6 320.666666667 344 373 c 1
 370.274509804 373 384.725490196 373 411 373 c 1
 419.666666667 320.666666667 427 279.030113727 427 216 c 3
 427 111.247911715 356.776724423 -10 230 -10 c 3
 118.751234802 -10 29 102.464878015 29 240 c 0
 29 449.414059326 189.905160501 494.546195695 198.216796875 619.943359375 c 1x34c0
 178.050518954 619.618191916 160.283908728 619.037182063 147 618 c 0
 117 615.657657658 114 584.036036036 109 553 c 1
 66 557 l 1
 80.4287109375 615.5006559 83.5283203125 656.67574724 79.1884765625 706 c 1x2ac0
 90.4230705838 699.697265625 167.220955252 695.974609375 248.009765625 695.344726562 c 1
 233.072743833 431.796104637 130 490.656149958 130 260 c 0x34c0
 130 148.188718441 182.299527572 39.6884765625 248 39.6884765625 c 3
 325.80462195 39.6884765625 363.884615385 136.989009034 379 200 c 1
 390.313131313 137.133333333 419.994132714 39 519 39 c 3
EndSplineSet
EndChar
StartChar: uni03E3
Encoding: 995 995 2757
Width: 697
Flags: HW
HStem: -208.02 52.2969<339.027 431.793>
VStem: 582.937 59.0635<85.929 222>
LayerCount: 2
Fore
SplineSet
642 222 m 1
 642 -27.6231472297 545.009986394 -208.01953125 403.815429688 -208.01953125 c 3
 357.168945312 -208.01953125 331 -182 323.971679688 -168.2421875 c 1
 334.315429688 -152.299804688 l 1
 342.559570312 -155.299804688 352.770507812 -155.72265625 362.258789062 -155.72265625 c 3
 450.171684021 -155.72265625 582.936523438 -53.4587201444 582.936523438 288.806640625 c 1
 642 222 l 1
EndSplineSet
Refer: 1027 969 N 1 0 0 1 0 0 2
EndChar
StartChar: uni03E5
Encoding: 997 997 2760
Width: 506
VWidth: 1043
Flags: W
HStem: -9 56<161.848 310.935> 379 35<192.034 280.133>
VStem: 36 78<96.4076 278.388> 383 76<304.705 400.555>
AnchorPoint: "Top" 259 465 basechar 0
AnchorPoint: "Bottom" 241 -15 basechar 0
LayerCount: 2
Fore
SplineSet
114 180 m 3
 114 71.9049129722 184.961635964 47 234 47 c 3
 295.344225875 47 342.35873338 75.4852319261 374.916015625 118 c 1
 379.99609375 64 l 1
 339.003361158 19.5610204759 284.423934556 -9 218 -9 c 3
 121.601262272 -9 36 81.3251231527 36 182 c 3
 36 301.163636364 132.058238636 414 236 414 c 3
 264.811580882 414 290.058823529 408.825396825 296 404 c 1
 293.100097656 387.800611413 278.465332031 373.400305706 267 368 c 1
 264.714285714 370.400007659 254.273437499 379 235 379 c 3
 169.562273944 379 114 269.212599734 114 180 c 3
405 54 m 0
 392 -67 376 -166 388 -257 c 1
 378 -271 335 -261 319 -245 c 1
 327 -224 335.672329745 -203.974022538 339 -162 c 2
 383 393 l 1
 384 404 443 425 459 410 c 1
 459 278.972616391 420.040851417 193.995617034 405 54 c 0
EndSplineSet
Validated: 37
EndChar
StartChar: uni03EA
Encoding: 1002 1002 1771
GlifName: uni03E_A_
Width: 628
UnlinkRmOvrlpSave: 1
Flags: HW
HStem: 624 76<59.2333 164.326 458.324 566.072>
LayerCount: 2
Fore
SplineSet
317.462890625 296 m 0
 352.944335938 205.377929688 392.166992188 129.192382812 419.5 65.2998046875 c 1
 417.744140625 60.0322265625 346.094726562 59.2998046875 296.5 59.2998046875 c 0
 204.95703125 59.2998046875 179.5 63.2998046875 169.5 75.2998046875 c 1
 193.736328125 126.51953125 239.6796875 205.194335938 275.34375 286 c 0
 338.487304688 429.065429688 379.80078125 624 534 624 c 3
 555 624 576 614 599 594 c 1
 622 623 l 1
 604 651.197265625 552 700 511 700 c 3
 359.828125 700 298.245117188 434.72265625 253.127929688 328 c 0
 219.814453125 249.198242188 165.401367188 160.015625 118 80 c 0
 105.612304688 59.0888671875 81.5 27.2998046875 73 -5 c 1
 109.3671875 4 514.360351562 5 558 -4 c 1
 542.5 31.7998046875 541.991210938 22.8046875 519 62 c 0
 448.110351562 182.852539062 396.708007812 287.208007812 353 386 c 0
 313.272460938 475.793945312 291.861328125 700 118 700 c 3
 77 700 24 655 6 629 c 1
 29 600 l 1
 52 616 73 624 94 624 c 3
 230.794921875 624 264.576171875 431.075195312 317.462890625 296 c 0
EndSplineSet
EndChar
StartChar: uni03EB
Encoding: 1003 1003 2761
Width: 463
VWidth: 1047
Flags: HW
LayerCount: 2
Fore
SplineSet
5 391 m 1
 15 403.235351562 36.599609375 423 63 423 c 3
 163.805664062 423 202.177734375 334.074453848 251.487304688 242 c 1
 256.83984375 234.721679688 262.201171875 227.37890625 267.580078125 220 c 1
 337.729204963 112 l 0
 362.218637085 76.2092372172 394.7958829 52.1894270506 424 54 c 1
 358 14 l 1
 246 190 l 1
 239.079500657 200.83984375 232.740473061 211.557942708 227 222 c 1
 184.833984375 291.126989838 137.875976562 345 99 345 c 3
 79.40625 345 65.0712890625 328.125 53 318 c 1
 22.154296875 320.534179688 11.2744140625 368.538085938 5 391 c 1
384 423 m 1
 445 393 l 1
 339.644259134 272.521768967 224.650383307 143.297756136 153.895947853 56 c 1
 451 56 l 1
 450 0 l 1
 42 0 l 1
 37.8019883775 25.9999593968 l 1
 153.507230507 158.034097193 268.507949832 290.752154569 384 423 c 1
EndSplineSet
EndChar
StartChar: uni03EF
Encoding: 1007 1007 2759
Width: 482
Flags: HW
HStem: 334 72<96.6169 427.5> 604 89<183.825 235.642>
VStem: 34 41<259.532 324.409> 242.929 41<322.865 601.197> 430 38<408.067 444.251>
LayerCount: 2
Fore
SplineSet
173 671 m 1
 192.779296875 683.571289062 208.537109375 693 238.928710938 693 c 3
 279.255859375 693 283.928710938 622.260742188 283.928710938 488 c 3
 283.928710938 185.938476562 261.095703125 -57.4111328125 235 -285 c 1
 190 -276 l 1
 228.587890625 32.8740234375 242.928710938 268.510742188 242.928710938 431 c 3
 242.928710938 579.9296875 237.580078125 604 216.928710938 604 c 3
 209.404296875 604 206.424804688 599 198 599 c 3
 184.825195312 599 179.892578125 647 173 671 c 1
69 244 m 1
 48 257 34 281.588867188 34 311 c 3
 34 381.077148438 107.978515625 406 313 406 c 3
 336.03125 406 350.23046875 405 374 405 c 3
 422.006835938 405 428.442382812 410.625 430 441 c 1
 437.63671875 443 443.36328125 443 451 445 c 1
 461.5234375 429 468 414.401367188 468 393 c 3
 468 341.037109375 420 334 288 334 c 3
 240.92578125 334 214.381835938 337 167 337 c 3
 128.672851562 337 75 330.689453125 75 297 c 3
 75 282.133789062 86 270 93 262 c 1
 69 244 l 1
EndSplineSet
EndChar
StartChar: afii10051
Encoding: 1026 1026 1229
GlifName: afii10051
Width: 818
Flags: HW
HStem: -241 62<507.653 603.846> -5 32<204.2 234.439 362.831 424.938> 392 58<474.232 617.122> 634.262 50.7376<71.9004 272.143 362.389 580.838> 678 20G<652.5 681>
VStem: 274 77<106.16 341.086 370 613.452> 691.679 84.1787<-75.9097 229.225>
LayerCount: 2
Fore
SplineSet
775 0 m 3
 775 -92 714.981681441 -152.41245662 645 -200 c 0
 620 -217 595 -235 570 -251 c 1
 545 -218 l 1
 568 -207 586.3984375 -195.28125 603 -182 c 0
 608 -178 612.90234375 -174.899414062 617 -171 c 0
 678.999761971 -111.999749869 689 -30 689 65 c 3
 689 145.698242188 689 242 685 263 c 0xee
 670.248282043 340.446519276 628.571428571 392 527 392 c 0
 468.425414365 392 396.624309392 364 356 328 c 1
 354 277 351 259 351 194 c 0
 351 123 354.219405222 78.0253529982 357 53 c 0
 359 35 381.948622236 34.6314222205 395 33 c 0
 403 32 420 28 429 27 c 1
 424 -5 l 1
 381 0 349 2 303 2 c 0
 272 2 236 -3 205 -6 c 1
 201 25 l 1
 214 27 222.97918472 26.0502525317 235 31 c 0
 252 38 259.904109808 48.0091346801 263 80 c 0
 269 142 274 271 274 349 c 0
 274 413.366275865 273.093222651 595.374981448 272.143145392 634.262422707 c 1
 222.095869512 634.124541096 173.033687108 632.173079754 124 628 c 0
 77 624 74 628 37 554 c 1
 -2 573 l 1
 18 612 47 691 58 713 c 1
 81 695 103.00174793 685.277319043 125 685 c 0xf6
 237.170094588 683.5859375 349.340189175 682.171875 461.827148438 682.171875 c 0
 513.815729984 682.171875 565.861680911 683 618 683 c 0
 634 683 649 689 656 698 c 1
 681 682 l 1
 667 646 650 606 648 559 c 1
 611 565 l 1
 617 595 l 2
 626.469515359 642.347576794 435.442970814 633.805700871 365.59818405 633.051208914 c 1
 352.444871415 564.245857947 358.83653674 487.04017537 354 370 c 1
 421.008547009 418 527.264957265 450 578 450 c 0
 703.56097561 450 770.220996815 381.141467681 773 284 c 0
 773.906050781 252.32853479 775 81.814453125 775 0 c 3
EndSplineSet
Position2: "cpsp-1" dx=0 dy=0 dh=50 dv=100
EndChar
